<svg xmlns="http://www.w3.org/2000/svg" viewBox="0 0 31.03 34"><defs><style>.cls-1{fill:#010101;fill-rule:evenodd;}</style></defs><title>curated-accounts</title><g id="Layer_2" data-name="Layer 2"><g id="Layer_1-2" data-name="Layer 1"><path class="cls-1" d="M31,29.35l-1.83-14a2.2,2.2,0,0,0-2.29-1.56h-.72A10,10,0,0,1,28.49,8L29,7.52V2.85L25.66,0H23.81L20.57,2.85V7.52L21,8a10.06,10.06,0,0,1,2.33,5.71H22.28A2.13,2.13,0,0,0,20,15.31l-1.52,14c-.28,2.56,2.3,4.65,5.77,4.65h1C28.79,34,31.33,31.92,31,29.35Z"/><path class="cls-1" d="M0,4.65l1.83,14a2.2,2.2,0,0,0,2.29,1.56h.72A10,10,0,0,1,2.54,26l-.47.52v4.67L5.37,34H7.22l3.23-2.85V26.48L10,26a10.06,10.06,0,0,1-2.33-5.71H8.75A2.13,2.13,0,0,0,11,18.69l1.52-14C12.79,2.09,10.2,0,6.74,0h-1C2.24,0-.3,2.08,0,4.65Z"/></g></g></svg>