<svg xmlns="http://www.w3.org/2000/svg" viewBox="0 0 23.29 30.14"><defs><style>.cls-1{fill:#010101;}</style></defs><title>firmographics</title><g id="Layer_2" data-name="Layer 2"><g id="Layer_1-2" data-name="Layer 1"><path class="cls-1" d="M13.7,8.22,0,0V30.14H23.29V16.44L13.7,12.33ZM5.48,21.92H8.22v1.37H5.48Zm-4.11,0H4.11v1.37H1.37Zm4.11-2.74H8.22v1.37H5.48Zm-4.11,0H4.11v1.37H1.37Zm4.11-2.74H8.22v1.37H5.48Zm-4.11,0H4.11v1.37H1.37ZM5.48,13.7H8.22v1.37H5.48Zm-4.11,0H4.11v1.37H1.37ZM5.48,11H8.22v1.37H5.48Zm0-2.74H8.22V9.59H5.48ZM1.37,11H4.11v1.37H1.37ZM9.59,13.7h2.74v1.37H9.59Zm0-2.74h2.74v1.37H9.59Zm0,5.48h2.74v1.37H9.59Zm0,2.74h2.74v1.37H9.59Zm0,2.74h2.74v1.37H9.59ZM5.48,24.66H8.22V26H5.48Zm-4.11,0H4.11V26H1.37Zm8.22,0h2.74V26H9.59Zm5.48-5.48h2.74v1.37H15.07Zm0-2.74h2.74v1.37H15.07Zm0,5.48h2.74v1.37H15.07Zm0,2.74h2.74V26H15.07Zm4.11-5.48h2.74v1.37H19.18Zm0,2.74h2.74v1.37H19.18Zm0,2.74h2.74V26H19.18ZM5.48,27.4H8.22v1.37H5.48Zm-4.11,0H4.11v1.37H1.37Zm8.22,0h2.74v1.37H9.59Zm5.48,0h2.74v1.37H15.07Zm4.11,0h2.74v1.37H19.18ZM1.37,8.22H4.11V9.59H1.37Zm0-2.74H4.11V6.85H1.37Z"/></g></g></svg>