<svg xmlns="http://www.w3.org/2000/svg" viewBox="0 0 33.87 33.99"><defs><style>.cls-1{fill:#010101;}</style></defs><title>Intent</title><g id="Layer_2" data-name="Layer 2"><g id="Layer_1-2" data-name="Layer 1"><path class="cls-1" d="M9.78,18.82a.68.68,0,0,0,0,.35l.11,1.65c-.06,2.26-1,3-1,3l1.39,9a20.43,20.43,0,0,1-4.44-2.27l-.58-6.49-.93-.44A4.42,4.42,0,0,1,2.8,22.25,5.22,5.22,0,0,0,1.33,20.5c-.94-.7-1-.37-1.27-.79s.37-.7.37-.7a3.46,3.46,0,0,1,3.18,1.48l.12,0,0-.07h0l.09-.3a1.09,1.09,0,0,1,0-.12,3,3,0,0,1,2.86,1.58c0,.07.09.14.13.22s-.13-2.11-3-1.8a7.37,7.37,0,0,0,0-.94,2.44,2.44,0,0,0-.17-.6L2.22,15a.64.64,0,0,1,.24-.86.59.59,0,0,1,.8.2S4.82,17.42,5,17.81s.41-.11.41-.11l-.56-4.17a.69.69,0,0,1,.57-.84c.73-.15.79.93.79.93s.5,3.6.56,4,.3,0,.3,0,.55-3.46.6-3.82.17-.77.71-.76.47,1.19.47,1.19-.42,3.5-.43,3.76.15.2.15.2,1.31-2.7,1.42-2.89a.62.62,0,0,1,.85-.4c.53.22,0,1.39,0,1.39ZM33.72,17a.59.59,0,0,0-.86.2c-.14.15-1.91,2.39-1.91,2.39s-.17,0-.1-.21S32,16,32,16s.3-1.07-.19-1.19-.69.22-.81.55l-1.34,3.42s-.3.33-.27-.07.3-3.83.3-3.83.16-1-.55-1a.65.65,0,0,0-.7.66l-.33,4s-.32.42-.41,0-.89-3.61-.89-3.61a.57.57,0,0,0-.71-.35c-.54.15-.4.75-.4.75l.66,3.53a2.05,2.05,0,0,1,0,.59,6.53,6.53,0,0,1-.2.85c2.62.33,2.32,2.27,2.32,2.27a2.25,2.25,0,0,0-.08-.24,2.85,2.85,0,0,0-2.25-2l0,.12-.14.25h0l0,.06h-.12a3.29,3.29,0,0,0-2.65-2s-.63.12-.49.57.3.15,1,1a4.89,4.89,0,0,1,1,1.92,4,4,0,0,0,1.06,1.55l.77.61-1,7.79a20.07,20.07,0,0,0,4.11-2.59L30,24.82s1.07-.49,1.58-2.57l.23-1.55a.65.65,0,0,1,.12-.31l1.49-2.11S34.17,17.3,33.72,17ZM26.41,4.67A1,1,0,0,0,25,5.14c-.21.29-2.84,4.4-2.84,4.4s-.29.08-.21-.34,1.42-6,1.42-6,.34-1.87-.53-2-1.13.5-1.29,1.08S19.8,8.33,19.8,8.33s-.45.6-.47-.08-.13-6.59-.13-6.59S19.3-.1,18.09,0A1.11,1.11,0,0,0,17,1.24l.11,6.85s-.48.76-.69.1-2.13-6-2.13-6A1,1,0,0,0,13,1.72c-.89.34-.55,1.34-.55,1.34L14.19,9a3.77,3.77,0,0,1,.16,1,13.65,13.65,0,0,1-.24,1.71l0,.05c4.67.06,4.47,3.49,4.47,3.49s-.11-.26-.17-.38c-.85-2.56-3.53-3-4.3-3.1l-.17.4h0l-.05.11h-.2a5.64,5.64,0,0,0-4.85-3s-1.05.31-.73,1.05.52.21,1.89,1.53A8.65,8.65,0,0,1,12,14.93a6.8,6.8,0,0,0,2.05,2.48c.95.58,1.42.9,1.42.9L15.06,33.9Q16,34,17,34a20.29,20.29,0,0,0,4.9-.59l-.53-14.78s1.74-1,2.27-4.63l.13-2.69a1,1,0,0,1,.15-.55L26.15,6.9S27.23,5.11,26.41,4.67Z"/></g></g></svg>