<svg xmlns="http://www.w3.org/2000/svg" viewBox="0 0 27.53 34"><defs><style>.cls-1{fill:#f37f20;}.cls-2{fill:#1f3d71;}</style></defs><title>lattice-ratings</title><g id="Layer_2" data-name="Layer 2"><g id="Layer_1-2" data-name="Layer 1"><path class="cls-1" d="M25.6,24.64c-1.93-1.47-4.84-1-6.66,1.11s-2.05,5.23-.27,7,5.22,1.54,7.23-.92S27.65,26.2,25.6,24.64Z"/><path class="cls-1" d="M14.82,19.1c-1-.84-2.85-.45-4.1.86s-1.58,3.18-.61,4.15,3,.67,4.31-.8S15.9,20,14.82,19.1Z"/><path class="cls-1" d="M6.9,14.84c-.54-.46-1.62-.2-2.43.6s-1.09,1.87-.58,2.38,1.65.28,2.5-.57S7.45,15.33,6.9,14.84Z"/><path class="cls-1" d="M2.44,11.56c-.35-.32-1.13-.1-1.75.48s-.87,1.33-.54,1.67,1.13.12,1.77-.48S2.78,11.88,2.44,11.56Z"/><path class="cls-1" d="M26,12.8c-1.67-1-4.21-.34-5.78,1.33s-1.72,4-.14,5.19,4.5.69,6.21-1.26S27.74,13.8,26,12.8Z"/><path class="cls-2" d="M16.43,9.44c-.93-.57-2.55-.14-3.65,1s-1.32,2.54-.44,3.19,2.66.27,3.82-.93S17.41,10,16.43,9.44Z"/><path class="cls-2" d="M9.29,7.42c-.51-.33-1.49,0-2.21.64S6.15,9.59,6.64,10,8.16,10,8.9,9.32,9.81,7.75,9.29,7.42Z"/><path class="cls-2" d="M4.9,6.07c-.33-.23-1.05,0-1.6.5s-.76,1.11-.43,1.35,1.06,0,1.62-.5S5.24,6.29,4.9,6.07Z"/><path class="cls-1" d="M26.25,3.82c-1.48-.62-3.73,0-5.11,1.43s-1.47,3.2-.06,4,4,.19,5.44-1.4S27.81,4.47,26.25,3.82Z"/><path class="cls-2" d="M17.71,1.85a3.42,3.42,0,0,0-3.3,1c-1,.95-1.14,2.08-.32,2.53s2.4,0,3.43-1S18.6,2.25,17.71,1.85Z"/><path class="cls-2" d="M11.52.87a2.16,2.16,0,0,0-2,.66c-.65.59-.81,1.28-.34,1.53a2.09,2.09,0,0,0,2.06-.65C11.88,1.79,12,1.1,11.52.87Z"/><path class="cls-2" d="M7.51.05C7.19-.11,6.53.12,6,.57s-.66.94-.35,1.12,1-.06,1.51-.52S7.84.21,7.51.05Z"/></g></g></svg>