<svg xmlns="http://www.w3.org/2000/svg" viewBox="0 0 33 33"><defs><style>.cls-1{fill:#231f20;}</style></defs><title>online-presence</title><g id="Layer_2" data-name="Layer 2"><g id="Layer_1-2" data-name="Layer 1"><path class="cls-1" d="M0,1.47A1.47,1.47,0,0,1,1.47,0H31.53A1.47,1.47,0,0,1,33,1.47V31.53A1.47,1.47,0,0,1,31.53,33H1.47A1.47,1.47,0,0,1,0,31.53Zm1.47,28.6a1.46,1.46,0,0,0,1.46,1.46H30.07a1.46,1.46,0,0,0,1.46-1.46V3.67H1.47ZM2.57,1.28A.55.55,0,0,0,2,1.83a.54.54,0,0,0,.55.55.55.55,0,0,0,.55-.55A.55.55,0,0,0,2.57,1.28Zm1.83,0a.55.55,0,0,0-.55.55.55.55,0,0,0,1.1,0A.55.55,0,0,0,4.4,1.28Zm1.83,0a.55.55,0,0,0-.55.55.55.55,0,0,0,.55.55.54.54,0,0,0,.55-.55A.55.55,0,0,0,6.23,1.28Zm2.94,1a.36.36,0,0,0,.36.36H23.47a.36.36,0,0,0,.36-.36V1.51a.36.36,0,0,0-.36-.36H9.53a.36.36,0,0,0-.36.36ZM28.79,30.39l1.6-1.6a.36.36,0,0,0,0-.52.36.36,0,0,0-.51,0l-1.61,1.61a.36.36,0,0,0,0,.51.34.34,0,0,0,.26.11A.33.33,0,0,0,28.79,30.39Zm1.1.37.87-.87a.37.37,0,0,0-.52-.52l-.87.87a.37.37,0,0,0,0,.52.38.38,0,0,0,.26.11A.36.36,0,0,0,29.89,30.76Z"/><path class="cls-1" d="M21.3,12l-1.25,1.28-5,5-1.42-1.42-1.26-1.28L9.85,18.05l1.28,1.25L13.81,22l1.25,1.28L16.31,22l6.24-6.24,1.28-1.25Z"/></g></g></svg>