<svg xmlns="http://www.w3.org/2000/svg" viewBox="0 0 65.77 65.77"><defs><style>.cls-1{fill:#010101;}</style></defs><title>product-spend-profile</title><g id="Layer_2" data-name="Layer 2"><g id="Layer_1-2" data-name="Layer 1"><path class="cls-1" d="M32.88,0A32.89,32.89,0,1,0,65.77,32.89,32.88,32.88,0,0,0,32.88,0Zm7.33,42.93a7.89,7.89,0,0,1-4.2,2.7A1.2,1.2,0,0,0,35,47v2.25a1,1,0,0,1-1.05,1.05h-2.4a1,1,0,0,1-1.05-1.05V47.58c0-1.2,0-1.2-1.2-1.5a20.43,20.43,0,0,1-4.34-1.2c-1.05-.45-1.2-.75-.9-2,.3-.9.45-1.65.75-2.55s.6-1.05,1.49-.6a17.86,17.86,0,0,0,4.8,1.5,5.79,5.79,0,0,0,3.15-.45,2.54,2.54,0,0,0,.6-4.34A11.19,11.19,0,0,0,33,35.44c-1.65-.75-3.3-1.35-4.95-2.25-2.54-1.5-4-3.6-3.89-6.6.15-3.45,2.09-5.7,5.39-6.75,1.35-.45,1.35-.45,1.35-1.8V16.69c0-1.05.15-1.2,1.2-1.2H33c2.25,0,2.25,0,2.25,2.25,0,1.5,0,1.5,1.5,1.8a15.15,15.15,0,0,1,3.45,1.05c.6.3.9.75.6,1.35-.3.9-.6,1.95-.9,2.85s-.6,1.05-1.35.6a9.47,9.47,0,0,0-5.4-1.05,5.33,5.33,0,0,0-1.5.3c-1.65.75-1.95,2.55-.45,3.6a12.41,12.41,0,0,0,2.4,1.35c1.5.6,2.85,1.2,4.35,1.95A7.57,7.57,0,0,1,40.21,42.93Z"/></g></g></svg>