<svg xmlns="http://www.w3.org/2000/svg" viewBox="0 0 42.5 42.5"><defs><style>.cls-1{fill:#231f20;}</style></defs><title>technology-preofile</title><g id="Layer_2" data-name="Layer 2"><g id="Layer_1-2" data-name="Layer 1"><rect class="cls-1" x="14.29" y="14.29" width="13.93" height="13.93"/><path class="cls-1" d="M7,35.54H35.54V7H7Zm5.43-23.15H30V30H12.39Z"/><rect class="cls-1" x="10.49" width="1.9" height="3.8"/><rect class="cls-1" x="15.46" width="1.9" height="3.8"/><rect class="cls-1" x="20.35" width="1.9" height="3.8"/><rect class="cls-1" x="25.23" width="1.9" height="3.8"/><rect class="cls-1" x="30.11" width="1.9" height="3.8"/><rect class="cls-1" x="10.49" y="38.7" width="1.9" height="3.8"/><rect class="cls-1" x="15.46" y="38.7" width="1.9" height="3.8"/><rect class="cls-1" x="20.35" y="38.7" width="1.9" height="3.8"/><rect class="cls-1" x="25.23" y="38.7" width="1.9" height="3.8"/><rect class="cls-1" x="30.11" y="38.7" width="1.9" height="3.8"/><rect class="cls-1" x="38.7" y="10.49" width="3.8" height="1.9"/><rect class="cls-1" x="38.7" y="15.37" width="3.8" height="1.9"/><rect class="cls-1" x="38.7" y="20.35" width="3.8" height="1.9"/><rect class="cls-1" x="38.7" y="25.23" width="3.8" height="1.9"/><rect class="cls-1" x="38.7" y="30.11" width="3.8" height="1.9"/><rect class="cls-1" y="10.49" width="3.8" height="1.9"/><rect class="cls-1" y="15.37" width="3.8" height="1.9"/><rect class="cls-1" y="20.35" width="3.8" height="1.9"/><rect class="cls-1" y="25.23" width="3.8" height="1.9"/><rect class="cls-1" y="30.11" width="3.8" height="1.9"/></g></g></svg>