<svg xmlns="http://www.w3.org/2000/svg" viewBox="0 0 34 34"><defs><style>.cls-1{fill:#231f20;}</style></defs><title>website-keywords</title><g id="Layer_2" data-name="Layer 2"><g id="Layer_1-2" data-name="Layer 1"><path class="cls-1" d="M0,1.51A1.52,1.52,0,0,1,1.51,0h31A1.52,1.52,0,0,1,34,1.51v31A1.52,1.52,0,0,1,32.49,34h-31A1.52,1.52,0,0,1,0,32.49ZM1.51,31A1.52,1.52,0,0,0,3,32.49H31A1.52,1.52,0,0,0,32.49,31V3.78h-31ZM2.64,1.32a.57.57,0,1,0,.57.57A.57.57,0,0,0,2.64,1.32Zm1.89,0a.57.57,0,1,0,.57.57A.57.57,0,0,0,4.53,1.32Zm1.89,0A.57.57,0,1,0,7,1.89.57.57,0,0,0,6.42,1.32Zm3,1a.38.38,0,0,0,.38.38H24.18a.38.38,0,0,0,.38-.38V1.56a.38.38,0,0,0-.38-.38H9.82a.38.38,0,0,0-.38.38Zm20.22,29,1.66-1.66a.39.39,0,0,0,0-.53.38.38,0,0,0-.54,0l-1.65,1.65a.38.38,0,0,0,0,.54.39.39,0,0,0,.27.11A.38.38,0,0,0,29.66,31.32Zm1.14.37.89-.89a.38.38,0,0,0,0-.54.37.37,0,0,0-.53,0l-.9.9a.37.37,0,0,0,0,.53.39.39,0,0,0,.54,0Z"/><path class="cls-1" d="M24.76,21.54,22.65,20a6.4,6.4,0,1,0-1.32,1.83l2.08,1.55a1.23,1.23,0,0,0,1.66-.16h0A1.24,1.24,0,0,0,24.76,21.54Zm-7.23,0a4.28,4.28,0,1,1,3.62-4.86A4.29,4.29,0,0,1,17.53,21.5Z"/></g></g></svg>