<?xml version="1.0" encoding="utf-8"?>
<!-- Generator: Adobe Illustrator 19.1.0, SVG Export Plug-In . SVG Version: 6.00 Build 0)  -->
<svg version="1.1" xmlns="http://www.w3.org/2000/svg" xmlns:xlink="http://www.w3.org/1999/xlink" x="0px" y="0px"
	 viewBox="0 0 126.9 67.6" style="enable-background:new 0 0 126.9 67.6;" xml:space="preserve">
<style type="text/css">
	.st0{fill:#FFFFFF;}
	.st1{fill:#333333;}
	.st2{fill:#D0D2D3;}
	.st3{opacity:0.7;}
	.st4{opacity:0.7;fill:#FFFFFF;}
</style>
<g id="Layer_1">
</g>
<g id="Content">
	<path class="st1" d="M126.7,67.5H106l-2.1-9.4c4.2-5.8-0.3-6-1-6l0,0l0,0c-0.8,0-5.2,0.3-1,6l-2.1,9.4h-8V49.7
		c1.4-0.8,2.5-1.3,3-1.6c0.1-0.1,0.3-0.3,0.3-0.4v-9.4c-1.2-0.8-2-2.1-2-3.7v-9.8C93,20,97,16,101.9,16h1h1c4.8,0,8.9,3.9,8.9,8.9
		v9.8c0,1.6-0.8,2.9-2,3.7v9.4c0,0.1,0.1,0.3,0.3,0.4c1.3,0.7,7.9,3.9,14,9c1,0.9,1.7,2.2,1.7,3.7v6.7H126.7z M85.7,41.2
		c-6.1-5-12.7-8.4-14-9c-0.1,0-0.1-0.1-0.3-0.3v-9.6c1.2-0.8,2-2.1,2-3.7V8.9c0-5-3.9-8.9-8.9-8.9l0,0h-1h-1l0,0
		c-5,0-8.9,3.9-8.9,8.9v9.8c0,1.6,0.8,2.9,2,3.7v9.6c0,0.1-0.1,0.3-0.3,0.3c-1.3,0.7-7.9,3.9-14,9c-0.4,0.4-0.8,0.8-1,1.3
		c-0.5,0.8-0.7,1.6-0.7,2.5v22.5h19.8l3.1-25.1l0,0v-0.1c-1.3-1.8-1.7-3-1.7-3.9c0.1-1.8,2.4-2,2.9-2l0,0l0,0c0.5,0,2.7,0.1,2.9,2
		c0,0.9-0.4,2.1-1.7,3.9v0.1l0,0l3.1,25.1h19.8V45c0-0.9-0.3-1.7-0.7-2.5C86.5,42,86.1,41.6,85.7,41.2z M23,58.1c-4.2-5.8,0.3-6,1-6
		l0,0l0,0c0.8,0,5.2,0.3,1,6l2.1,9.4h8V49.7c-1.4-0.8-2.5-1.3-3-1.6c-0.1-0.1-0.3-0.3-0.3-0.4v-9.4c1.2-0.8,2-2.1,2-3.7v-9.8
		C33.9,20,30,16,25,16h-1h-1c-4.8,0-8.9,3.9-8.9,8.9v9.8c0,1.6,0.8,2.9,2,3.7v9.4c0,0.1-0.1,0.3-0.3,0.4c-1.3,0.7-7.9,3.9-14,9
		c-1,0.9-1.7,2.2-1.7,3.7v6.8h20.8L23,58.1z"/>
</g>
</svg>
