<?xml version="1.0" encoding="utf-8"?>
<!-- Generator: Adobe Illustrator 19.1.0, SVG Export Plug-In . SVG Version: 6.00 Build 0)  -->
<svg version="1.1" xmlns="http://www.w3.org/2000/svg" xmlns:xlink="http://www.w3.org/1999/xlink" x="0px" y="0px"
	 viewBox="0 0 58 79" style="enable-background:new 0 0 58 79;" xml:space="preserve">
<style type="text/css">
	.st0{fill:#FFFFFF;}
	.st1{fill:#333333;}
	.st2{fill:#D0D2D3;}
	.st3{opacity:0.7;}
	.st4{opacity:0.7;fill:#FFFFFF;}
</style>
<g id="Layer_1">
</g>
<g id="Content">
	<g>
		<path class="st1" d="M28.6,46.8c-8.9,0-16.1,7.2-16.1,16.1S19.7,79,28.6,79c8.9,0,16.1-7.2,16.1-16.1C44.7,54,37.4,46.8,28.6,46.8
			z M28.6,75.7c-7.1,0-12.8-5.9-12.8-12.8c0-7,5.8-12.8,12.8-12.8c7,0,12.8,5.7,12.8,12.8S35.7,75.7,28.6,75.7z"/>
		<path class="st1" d="M55.8,50.2c-7.5-6.1-15.7-10.2-17.3-11C38.2,39.2,38,39,38,38.7V27.1c3-0.9,3-2.6,3-4.5v-12
			C41,4.7,35.9,0,29.9,0h-1.3h-1.3C21.4,0,17,4.6,17,10.6v12c0,1.9,0,3.5,3,4.5v11.6c0,0.2-0.7,0.4-0.9,0.5C17.4,40,9.5,44.1,2,50.2
			c-1.3,1.1-2,2.8-2,4.5V63h9.1c0-11,8.8-19.5,19.5-19.5S48.1,52,48.1,63H58v-8.3C58,53,57.2,51.3,55.8,50.2z"/>
		<path class="st1" d="M33.4,58h-2.8l-0.9,1.1c-0.3,0.6-0.5,0.9-0.7,0.9h0c-0.3,0-0.5-0.3-0.8-0.9l-1-1.1h-2.8l3,4.9L24.2,68H27
			l0.9-2c0.3-0.8,0.6-1,0.8-2h0c0.3,1,0.6,1.2,1,2l1,2h2.8l-3.2-5.1L33.4,58z"/>
	</g>
</g>
</svg>
