<?xml version="1.0" encoding="utf-8"?>
<!-- Generator: Adobe Illustrator 19.1.0, SVG Export Plug-In . SVG Version: 6.00 Build 0)  -->
<svg version="1.1" xmlns="http://www.w3.org/2000/svg" xmlns:xlink="http://www.w3.org/1999/xlink" x="0px" y="0px"
	 viewBox="0 0 66.9 97.2" style="enable-background:new 0 0 66.9 97.2;" xml:space="preserve">
<style type="text/css">
	.st0{fill:#FFFFFF;}
	.st1{fill:#333333;}
	.st2{fill:#D0D2D3;}
	.st3{opacity:0.7;}
	.st4{opacity:0.7;fill:#FFFFFF;}
</style>
<g id="Layer_1">
</g>
<g id="Content">
	<path class="st1" d="M46.8,83.6V68.9c-0.1-0.6-0.3-1.1-0.5-1.6c-0.4-0.7-2.3-4.2-3-6.9c-0.4-1.5-0.8-4.2-0.8-6.6
		c-0.1-4.6,0.7-6,1.4-6.8c0.6-0.6,0.9-0.9,1.7-1.5c0.4-0.3,0.8-0.6,1.2-0.8V28h2.8v2.6c0.9-1.5,2.2-2.3,3.5-2.8V24h-3.3v-7.5h-3.4
		L41.2,11V0h-1.3v11.2l-5,5.3h-3.4V24h-3.3v28.9h-3.3V46h-3.4l-5.2-5.5v-11H15v11.1l-5,5.3H6.5v6.9H3.2v1.8v30.8H0v1.2h28.2h20.4
		l-0.3-3H46.8z M9.6,83.3H6.7v-7.9h2.9V83.3z M9.6,73.4H6.7v-7.9h2.9V73.4z M9.6,63.5H6.7v-7.9h2.9V63.5z M17.2,83.3h-2.9v-7.9h2.9
		V83.3z M17.2,73.4h-2.9v-7.9h2.9V73.4z M17.2,63.5h-2.9v-7.9h2.9V63.5z M24.7,83.3h-2.9v-7.9h2.9V83.3z M24.7,73.4h-2.9v-7.9h2.9
		V73.4z M24.7,63.5h-2.9v-7.9h2.9V63.5z M34.5,83.6h-2.8V28h2.8V83.6z M42,83.6h-2.8V28H42V83.6z M55.9,43.2L55.9,43.2
		c-6.1-0.1-5.2-8.2-5.2-8.2c0.2-5.4,4.8-5.4,5.2-5.3c0.4,0,5-0.1,5.2,5.3C61.1,35,62,43.1,55.9,43.2L55.9,43.2
		C56,43.2,55.9,43.2,55.9,43.2L55.9,43.2z M66.2,48.7c1.2,1.2,0.7,8.5,0,11.1s-2.8,6.4-2.8,6.4c-0.4,1-0.7,2-0.8,3l-2.7,26.5
		c-0.1,0.8-0.8,1.5-1.6,1.5H56h-2.3c-0.8,0-1.6-0.6-1.6-1.5l-2.7-26.5c-0.1-1-0.4-2.1-0.8-3c0,0-2.1-3.8-2.8-6.4
		c-0.7-2.6-1.2-9.9,0-11.1c0.5-0.5,0.8-0.8,1.4-1.2c2.2-1.7,5-2.8,5-2.8l2.1,6.7l1.2-3.5c-2.2-3.1,0.3-3.2,0.6-3.2
		c0.3,0,2.8,0.1,0.6,3.2l1.2,3.5l2.1-6.7c0,0,2.8,1.1,5,2.8C65.4,47.9,65.7,48.2,66.2,48.7z"/>
</g>
</svg>
