<?xml version="1.0" encoding="utf-8"?>
<!-- Generator: Adobe Illustrator 19.1.0, SVG Export Plug-In . SVG Version: 6.00 Build 0)  -->
<svg version="1.1" id="Layer_1" xmlns="http://www.w3.org/2000/svg" xmlns:xlink="http://www.w3.org/1999/xlink" x="0px" y="0px"
	 viewBox="0 0 30.459 37.379" style="enable-background:new 0 0 30.459 37.379;" xml:space="preserve">
<style type="text/css">
	.st0{fill:#D0D2D3;}
	.st1{fill:#333333;}
	.st2{fill:#D0D0D0;}
	.st3{fill:#222222;}
	.st4{fill:#F16A22;}
	.st5{fill:#629ACC;}
	.st6{fill:#6FBE4A;}
	.st7{fill:#76DFFF;}
	.st8{fill:#FFFFFF;}
	.st9{fill:none;stroke:#000000;stroke-miterlimit:10;}
	.st10{fill:#D22027;}
	.st11{fill:#FFBD48;}
	.st12{fill:#A2E264;}
</style>
<g>
	<path class="st8" d="M25.032,0H15.23H5.428C4.91,0,4.629,0.399,4.804,0.887c1.889,1.468,3.307,3.571,4.24,6.132h6.186h6.185
		c0.934-2.561,2.352-4.665,4.241-6.132C25.83,0.399,25.549,0,25.032,0z"/>
	<path class="st8" d="M30.457,25.149c0-0.236-0.023-0.472-0.036-0.713c-0.016-0.317-0.031-0.638-0.066-0.949
		c-0.031-0.293-0.086-0.591-0.134-0.889c-0.038-0.217-0.074-0.434-0.121-0.647c-0.415-2.003-1.194-4.048-2.414-6.07
		c-1.601-2.669-4.374-5.101-6.271-7.587H9.044c-1.897,2.485-4.669,4.918-6.271,7.587c-1.219,2.022-1.998,4.067-2.414,6.07
		c-0.047,0.213-0.083,0.429-0.12,0.647c-0.05,0.298-0.104,0.596-0.135,0.889c-0.035,0.312-0.05,0.632-0.066,0.949
		c-0.012,0.241-0.036,0.477-0.036,0.713C0.002,25.173,0,25.192,0,25.211c0,8.418,6.816,12.168,15.23,12.168s15.23-3.75,15.23-12.168
		C30.459,25.192,30.457,25.173,30.457,25.149z M16.523,29.643v1.435c0,0.34-0.113,0.548-0.547,0.548h-1.473
		c-0.434,0-0.547-0.207-0.547-0.548v-1.472c-1.964-0.416-3.776-1.718-3.776-3.87c0-0.434,0.113-0.529,0.548-0.529h1.831
		c0.434,0,0.642,0.057,0.68,0.529c0.019,0.246,0.113,0.49,0.358,0.774c0.378,0.453,1.152,0.623,1.851,0.623
		c1.019,0,1.849-0.226,1.849-1.284c0-1.057-1.68-1.076-3.284-1.586c-1.906-0.604-3.662-1.359-3.662-3.757
		c0-2.114,1.642-3.284,3.606-3.643v-1.454c0-0.34,0.113-0.547,0.547-0.547h1.473c0.434,0,0.547,0.207,0.547,0.547v1.51
		c1.831,0.378,3.436,1.472,3.436,3.417c0,0.453-0.113,0.529-0.547,0.529h-1.85c-0.359,0-0.416-0.264-0.51-0.509
		c-0.075-0.208-0.17-0.358-0.397-0.566c-0.358-0.34-1.038-0.51-1.605-0.51c-0.623,0-1.661,0.245-1.661,1.095
		c0,1.152,2.775,1.567,3.53,1.869c1.359,0.416,3.36,0.963,3.36,3.53C20.28,28.039,18.75,29.322,16.523,29.643z"/>
</g>
</svg>
