<?xml version="1.0" encoding="utf-8"?>
<!-- Generator: Adobe Illustrator 19.1.0, SVG Export Plug-In . SVG Version: 6.00 Build 0)  -->
<svg version="1.1" id="Layer_1" xmlns="http://www.w3.org/2000/svg" xmlns:xlink="http://www.w3.org/1999/xlink" x="0px" y="0px"
	 viewBox="0 0 33 33.896" style="enable-background:new 0 0 33 33.896;" xml:space="preserve">
<style type="text/css">
	.st0{fill:#D0D2D3;}
	.st1{fill:#333333;}
	.st2{fill:#D0D0D0;}
	.st3{fill:#222222;}
	.st4{fill:#F16A22;}
	.st5{fill:#629ACC;}
	.st6{fill:#6FBE4A;}
	.st7{fill:#76DFFF;}
	.st8{fill:#FFFFFF;}
	.st9{fill:none;stroke:#000000;stroke-miterlimit:10;}
	.st10{fill:#D22027;}
	.st11{fill:#FFBD48;}
	.st12{fill:#A2E264;}
</style>
<g>
	<circle class="st8" cx="6.999" cy="3.816" r="3.816"/>
	<circle class="st8" cx="16.4" cy="3.816" r="3.816"/>
	<circle class="st8" cx="25.755" cy="3.816" r="3.816"/>
	<path class="st8" d="M21.867,9.01H10.984c-0.93,0-1.684,0.754-1.684,1.683v9.621c0,0.93,0.754,1.683,1.684,1.683h0.518v11.898
		h9.648V21.997h0.716c0.93,0,1.683-0.753,1.683-1.683v-9.621C23.549,9.764,22.797,9.01,21.867,9.01z"/>
	<g>
		<path class="st8" d="M6.927,20.315v-9.621c0-0.602,0.14-1.168,0.376-1.683h-5.62C0.754,9.011,0,9.764,0,10.694v9.621
			c0,0.93,0.754,1.683,1.683,1.683h0.518v11.898h6.927v-9.973C7.822,23.249,6.927,21.884,6.927,20.315z"/>
		<path class="st8" d="M31.317,9.01h-5.768c0.236,0.515,0.376,1.082,0.376,1.683v9.621c0,1.648-0.987,3.068-2.4,3.703v9.878h7.076
			V21.997h0.715c0.93,0,1.684-0.753,1.684-1.683v-9.621C33,9.764,32.246,9.01,31.317,9.01z"/>
	</g>
</g>
</svg>
