<?xml version="1.0" encoding="utf-8"?>
<!-- Generator: Adobe Illustrator 19.1.0, SVG Export Plug-In . SVG Version: 6.00 Build 0)  -->
<svg version="1.1" id="Layer_1" xmlns="http://www.w3.org/2000/svg" xmlns:xlink="http://www.w3.org/1999/xlink" x="0px" y="0px"
	 viewBox="0 0 33.534 31" style="enable-background:new 0 0 33.534 31;" xml:space="preserve">
<style type="text/css">
	.st0{fill:#D0D2D3;}
	.st1{fill:#333333;}
	.st2{fill:#D0D0D0;}
	.st3{fill:#222222;}
	.st4{fill:#F16A22;}
	.st5{fill:#629ACC;}
	.st6{fill:#6FBE4A;}
	.st7{fill:#76DFFF;}
	.st8{fill:#FFFFFF;}
	.st9{fill:none;stroke:#000000;stroke-miterlimit:10;}
	.st10{fill:#D22027;}
	.st11{fill:#FFBD48;}
	.st12{fill:#A2E264;}
</style>
<g>
	<path class="st8" d="M25.523,14.867l-0.522,0.894l2.199,0.931l-2.906,1.677l-0.596-0.336l-0.112,0.186l0.484,0.261l-0.969,0.522
		l-0.223,0.41l1.416-0.82l3.204,1.751l-3.316,2.049l-2.943-2.049l0.41-0.261l-0.112-0.186l-0.522,0.298l-2.198-1.528l1.528-0.82
		l-0.112-0.186l-1.602,0.857l-1.752-1.23l2.459-1.267l-0.335-0.559l-1.118-0.596l0.596-0.298l-0.112-0.186l-0.708,0.372
		l-1.304-0.745l1.416-0.671l-0.112-0.186l-1.565,0.745l-1.192-0.671l2.049-0.969l0.261,0.112l-0.41-0.708l-4.806,2.198L6.67,12.519
		L0,15.612L3.801,31l13.637-8.234l7.936,0.521l8.16-5.216L25.523,14.867z M18.555,18.816l0.037-0.037l1.975,1.379l-2.72-0.372
		l-1.863-1.491l2.571,0.447V18.816z M13.712,16.804l1.416,1.118l-3.13-0.559l-0.037-0.037h-0.037l-1.192-1.117L13.712,16.804z
		 M10.47,15.91l-0.037-0.037h-0.037l-0.894-0.82l2.72,0.596l1.08,0.857L10.47,15.91z M12.743,15.724l2.198,0.485l0.037,0.037
		l0.037-0.037l1.118,0.782l-2.347-0.41L12.743,15.724z M12.333,15.426l-0.782-0.633l2.049,0.484l0.037,0.037l0.037-0.037
		l0.857,0.596L12.333,15.426z M11.811,15.314l-2.608-0.559l-0.037-0.037H9.129l-0.671-0.633l2.496,0.596L11.811,15.314z
		 M8.943,14.792l-3.055,1.49l-0.634-0.931l2.832-1.342L8.943,14.792z M9.129,14.978l1.08,1.006l-3.39,1.714l-0.782-1.193
		L9.129,14.978z M10.358,16.134l1.379,1.304l-3.8,1.974L6.93,17.848L10.358,16.134z M11.923,17.624l1.788,1.714l-4.285,2.385
		l-1.341-2.05L11.923,17.624z M12.296,17.661L15.5,18.22l1.9,1.49l-3.428-0.484l-0.037-0.037h-0.037L12.296,17.661z M18.146,18.444
		l-2.534-0.447l-1.416-1.118l2.384,0.484l0.037,0.037l0.037-0.037L18.146,18.444z M19.189,15.835l-2.534,1.304l-1.416-1.006
		l2.385-1.192L19.189,15.835z M17.363,14.829l-2.347,1.155l-1.155-0.82l2.198-1.043L17.363,14.829z M14.643,13.339l1.193,0.634
		l-2.161,1.043l-1.043-0.745L14.643,13.339z M12.37,14.308l-0.037,0.075l0.782,0.521l-1.974-0.485l-0.82-0.633L12.37,14.308z
		 M9.911,13.711l-0.037,0.037l0.708,0.559l-2.385-0.559L8.16,13.711H8.123l-0.634-0.633L9.911,13.711z M7.154,13.116l0.782,0.708
		l-2.795,1.304l-0.559-0.857L7.154,13.116z M1.528,15.686l2.832-1.304l0.559,0.857l-3.055,1.453L1.528,15.686z M1.9,16.916
		l3.13-1.49l0.633,0.931l-3.39,1.64L1.9,16.916z M2.347,18.258l3.428-1.677l0.783,1.192l-3.763,1.9L2.347,18.258z M2.906,19.897
		l3.801-1.9l1.006,1.565l-4.21,2.198L2.906,19.897z M3.577,21.983l4.285-2.236l1.342,2.087L4.397,24.48L3.577,21.983z M5.627,28.28
		l-1.155-3.577l4.881-2.683l1.938,2.944L5.627,28.28z M11.439,24.815l-1.901-2.943l4.36-2.385l2.533,2.385L11.439,24.815z
		 M16.655,21.834L16.655,21.834l-2.422-2.31l3.503,0.485l2.757,2.161L16.655,21.834z M20.828,22.207L20.828,22.207l-2.646-2.124
		l2.757,0.373l0.037,0.037l0.037-0.037l2.832,1.974L20.828,22.207z M24.517,18.481l2.944-1.677l3.428,1.49l-3.167,1.938
		L24.517,18.481z"/>
	<path class="st8" d="M27.535,3.167C26.417,1.229,24.331,0,22.058,0c-2.236,0-4.322,1.193-5.477,3.167
		c-1.118,1.938-1.118,4.36,0,6.297c1.826,3.167,3.651,6.297,5.477,9.464c1.826-3.167,3.652-6.297,5.477-9.464
		C28.69,7.527,28.69,5.142,27.535,3.167 M22.095,9.874c-1.975,0-3.539-1.602-3.539-3.539c0-1.975,1.602-3.54,3.539-3.54
		c1.975,0,3.539,1.602,3.539,3.54C25.635,8.309,24.033,9.874,22.095,9.874"/>
</g>
</svg>
