<?xml version="1.0" encoding="utf-8"?>
<!-- Generator: Adobe Illustrator 19.1.0, SVG Export Plug-In . SVG Version: 6.00 Build 0)  -->
<svg version="1.1" id="Layer_1" xmlns="http://www.w3.org/2000/svg" xmlns:xlink="http://www.w3.org/1999/xlink" x="0px" y="0px"
	 viewBox="0 0 15.438 15.438" style="enable-background:new 0 0 15.438 15.438;" xml:space="preserve">
<style type="text/css">
	.st0{fill:#D0D2D3;}
	.st1{fill:#333333;}
	.st2{fill:#D0D0D0;}
	.st3{fill:#222222;}
	.st4{fill:#F16A22;}
	.st5{fill:#629ACC;}
	.st6{fill:#6FBE4A;}
	.st7{fill:#76DFFF;}
	.st8{fill:#FFFFFF;}
	.st9{fill:none;stroke:#000000;stroke-miterlimit:10;}
	.st10{fill:#D22027;}
	.st11{fill:#FFBD48;}
	.st12{fill:#A2E264;}
</style>
<path class="st8" d="M7.719,6.437c-0.695,0-1.281,0.587-1.281,1.281S7.009,9,7.719,9S9,8.413,9,7.719S8.414,6.437,7.719,6.437
	 M7.719,10.621c-1.59,0-2.902-1.297-2.902-2.902s1.297-2.902,2.902-2.902s2.902,1.297,2.902,2.902S9.309,10.621,7.719,10.621z
	 M7.719,12.226c2.485,0,4.508-2.022,4.508-4.508s-2.022-4.508-4.508-4.508S3.211,5.233,3.211,7.719S5.233,12.226,7.719,12.226z
	 M7.719,13.832c-3.365,0-6.113-2.748-6.113-6.113s2.748-6.113,6.113-6.113s6.113,2.748,6.113,6.113S11.084,13.832,7.719,13.832z
	 M7.719,15.437c4.261,0,7.719-3.458,7.719-7.719S11.98,0,7.719,0S0,3.458,0,7.719S3.458,15.437,7.719,15.437z"/>
</svg>
