<?xml version="1.0" encoding="utf-8"?>
<!-- Generator: Adobe Illustrator 19.1.0, SVG Export Plug-In . SVG Version: 6.00 Build 0)  -->
<svg version="1.1" id="Layer_1" xmlns="http://www.w3.org/2000/svg" xmlns:xlink="http://www.w3.org/1999/xlink" x="0px" y="0px"
	 viewBox="0 0 16 16" style="enable-background:new 0 0 16 16;" xml:space="preserve">
<style type="text/css">
	.st0{fill:#D0D2D3;}
	.st1{fill:#333333;}
	.st2{fill:#D0D0D0;}
	.st3{fill:#222222;}
	.st4{fill:#F16A22;}
	.st5{fill:#629ACC;}
	.st6{fill:#6FBE4A;}
	.st7{fill:#76DFFF;}
	.st8{fill:#FFFFFF;}
	.st9{fill:none;stroke:#000000;stroke-miterlimit:10;}
	.st10{fill:#D22027;}
	.st11{fill:#FFBD48;}
	.st12{fill:#A2E264;}
</style>
<g>
	<rect x="5.379" y="5.379" class="st10" width="5.243" height="5.243"/>
	<path class="st10" d="M2.621,13.379h10.757V2.621H2.621V13.379z M4.664,4.664h6.638v6.638H4.664V4.664z"/>
	<rect x="3.949" class="st10" width="0.715" height="1.43"/>
	<rect x="5.821" class="st10" width="0.715" height="1.43"/>
	<rect x="7.66" class="st10" width="0.715" height="1.43"/>
	<rect x="9.498" class="st10" width="0.715" height="1.43"/>
	<rect x="11.336" class="st10" width="0.715" height="1.43"/>
	<rect x="3.949" y="14.57" class="st10" width="0.715" height="1.43"/>
	<rect x="5.821" y="14.57" class="st10" width="0.715" height="1.43"/>
	<rect x="7.66" y="14.57" class="st10" width="0.715" height="1.43"/>
	<rect x="9.498" y="14.57" class="st10" width="0.715" height="1.43"/>
	<rect x="11.336" y="14.57" class="st10" width="0.715" height="1.43"/>
	<rect x="14.57" y="3.949" class="st10" width="1.43" height="0.715"/>
	<rect x="14.57" y="5.787" class="st10" width="1.43" height="0.715"/>
	<rect x="14.57" y="7.66" class="st10" width="1.43" height="0.715"/>
	<rect x="14.57" y="9.498" class="st10" width="1.43" height="0.715"/>
	<rect x="14.57" y="11.336" class="st10" width="1.43" height="0.715"/>
	<rect y="3.949" class="st10" width="1.43" height="0.715"/>
	<rect y="5.787" class="st10" width="1.43" height="0.715"/>
	<rect y="7.66" class="st10" width="1.43" height="0.715"/>
	<rect y="9.498" class="st10" width="1.43" height="0.715"/>
	<rect y="11.336" class="st10" width="1.43" height="0.715"/>
</g>
</svg>
