<?xml version="1.0" encoding="utf-8"?>
<!-- Generator: Adobe Illustrator 19.1.0, SVG Export Plug-In . SVG Version: 6.00 Build 0)  -->
<svg version="1.1" id="Layer_1" xmlns="http://www.w3.org/2000/svg" xmlns:xlink="http://www.w3.org/1999/xlink" x="0px" y="0px"
	 viewBox="0 0 18.644 18.644" style="enable-background:new 0 0 18.644 18.644;" xml:space="preserve">
<style type="text/css">
	.st0{fill:#D0D2D3;}
	.st1{fill:#333333;}
	.st2{fill:#D0D0D0;}
	.st3{fill:#222222;}
	.st4{fill:#F16A22;}
	.st5{fill:#629ACC;}
	.st6{fill:#6FBE4A;}
	.st7{fill:#76DFFF;}
	.st8{fill:#FFFFFF;}
	.st9{fill:none;stroke:#000000;stroke-miterlimit:10;}
	.st10{fill:#D22027;}
	.st11{fill:#FFBD48;}
	.st12{fill:#A2E264;}
</style>
<path class="st8" d="M18.607,8.739c0-0.17-0.067-0.321-0.2-0.455c-0.134-0.133-0.273-0.212-0.419-0.237l-1.274-0.182
	c-0.389-0.048-0.644-0.255-0.765-0.619l-0.473-1.165c-0.17-0.34-0.146-0.667,0.073-0.983l0.801-1.02
	c0.219-0.315,0.206-0.619-0.036-0.91l-0.874-0.838c-0.267-0.242-0.559-0.255-0.874-0.036l-1.02,0.765
	c-0.316,0.243-0.644,0.279-0.983,0.109l-1.165-0.473c-0.146-0.048-0.286-0.151-0.419-0.309c-0.134-0.157-0.2-0.309-0.2-0.455
	l-0.182-1.274c-0.024-0.146-0.104-0.285-0.237-0.419c-0.134-0.133-0.286-0.2-0.455-0.2C9.783,0.012,9.589,0,9.322,0L8.739,0.036
	c-0.17,0-0.322,0.067-0.455,0.2C8.15,0.371,8.071,0.51,8.048,0.655L7.866,1.93C7.817,2.318,7.611,2.573,7.247,2.695L6.081,3.168
	c-0.34,0.17-0.668,0.134-0.983-0.109l-1.02-0.765C3.763,2.076,3.46,2.088,3.168,2.331L2.331,3.168
	c-0.243,0.291-0.255,0.595-0.036,0.91l0.765,1.02c0.242,0.316,0.279,0.644,0.109,0.983L2.695,7.247
	C2.646,7.392,2.543,7.532,2.385,7.665c-0.158,0.134-0.309,0.2-0.455,0.2L0.656,8.048C0.51,8.072,0.37,8.151,0.237,8.284
	c-0.134,0.134-0.2,0.286-0.2,0.455C0.012,8.861,0,9.055,0,9.322l0.036,0.583c0,0.17,0.066,0.322,0.2,0.455
	c0.133,0.134,0.273,0.213,0.419,0.237l1.274,0.182c0.146,0,0.297,0.067,0.455,0.2c0.157,0.134,0.261,0.273,0.309,0.419l0.473,1.165
	c0.17,0.34,0.133,0.668-0.109,0.983l-0.765,1.02c-0.219,0.316-0.243,0.571-0.073,0.765c0.024,0.024,0.055,0.061,0.091,0.109
	c0.036,0.049,0.079,0.104,0.127,0.164c0.048,0.061,0.097,0.116,0.146,0.164c0.048,0.049,0.097,0.097,0.146,0.146
	c0.048,0.049,0.097,0.097,0.146,0.146c0.048,0.049,0.097,0.085,0.146,0.109c0.097,0.097,0.261,0.17,0.492,0.219
	c0.23,0.049,0.419,0.036,0.564-0.036l1.02-0.765c0.315-0.242,0.643-0.279,0.983-0.109l1.165,0.473
	c0.146,0.049,0.285,0.152,0.419,0.309c0.133,0.158,0.2,0.309,0.2,0.455l0.182,1.274c0.024,0.146,0.103,0.285,0.237,0.419
	c0.133,0.133,0.285,0.2,0.455,0.2c0.121,0.024,0.315,0.037,0.583,0.037l0.583-0.036c0.17,0,0.321-0.067,0.455-0.2
	c0.133-0.134,0.212-0.273,0.237-0.419l0.182-1.274c0-0.146,0.066-0.297,0.2-0.455c0.133-0.157,0.273-0.261,0.419-0.309l1.165-0.473
	c0.34-0.17,0.667-0.133,0.983,0.109l1.02,0.765c0.315,0.219,0.619,0.207,0.91-0.036l0.838-0.838c0.242-0.291,0.255-0.595,0.036-0.91
	l-0.801-1.02c-0.219-0.315-0.243-0.643-0.073-0.983l0.473-1.165c0.121-0.364,0.376-0.57,0.765-0.619l1.274-0.182
	c0.146-0.024,0.285-0.103,0.419-0.237c0.133-0.133,0.2-0.285,0.2-0.455c0.024-0.121,0.036-0.315,0.036-0.583L18.607,8.739z
	 M9.322,13.328c-2.213,0-4.006-1.794-4.006-4.006s1.794-4.006,4.006-4.006s4.006,1.794,4.006,4.006S11.534,13.328,9.322,13.328z"/>
</svg>
