<?xml version="1.0" encoding="utf-8"?>
<!-- Generator: Adobe Illustrator 19.1.0, SVG Export Plug-In . SVG Version: 6.00 Build 0)  -->
<svg version="1.1" id="Layer_1" xmlns="http://www.w3.org/2000/svg" xmlns:xlink="http://www.w3.org/1999/xlink" x="0px" y="0px"
	 viewBox="0 0 48.686 27.125" style="enable-background:new 0 0 48.686 27.125;" xml:space="preserve">
<style type="text/css">
	.st0{fill:#D0D2D3;}
	.st1{fill:#333333;}
	.st2{fill:#D0D0D0;}
	.st3{fill:#222222;}
	.st4{fill:#F16A22;}
	.st5{fill:#629ACC;}
	.st6{fill:#6FBE4A;}
	.st7{fill:#76DFFF;}
	.st8{fill:#FFFFFF;}
	.st9{fill:none;stroke:#000000;stroke-miterlimit:10;}
	.st10{fill:#D22027;}
	.st11{fill:#FFBD48;}
	.st12{fill:#A2E264;}
</style>
<g>
	<path class="st8" d="M14.844,10.044c-0.01-0.004-0.019-0.008-0.03-0.009c-0.041-0.007-0.084,0.008-0.125,0.041l0,0v0l-0.002,0.003
		l0-0.001l-0.001,0.001c0-0.003,0-0.005-0.001-0.008c-0.159-0.602-0.358-0.97-0.564-1.189c-0.04-0.022-0.082-0.041-0.127-0.054v0
		l0,0c-0.006,0.089,0.095,0.223,0.106,0.354c-0.286-0.133-0.559-0.34-0.958-0.355c-0.093-0.004-0.194-0.003-0.298,0
		c-0.963,0.344-2.022-0.045-2.022-0.045c-0.453-0.042-0.763,0.108-0.974,0.32C9.825,9.123,9.811,9.149,9.791,9.172
		C9.747,9.223,9.702,9.274,9.667,9.328c-0.201,0.318-0.252,0.667-0.26,0.739c0,0.003-0.001,0.007-0.001,0.01
		c-0.043-0.035-0.087-0.051-0.129-0.043c-0.018,0.003-0.036,0.011-0.052,0.022l0,0l0,0c-0.038,0.027-0.067,0.078-0.089,0.143
		c-0.012,0.169-0.019,0.34-0.022,0.516c0.002,0.016,0.004,0.032,0.007,0.049c0.045,0.252,0.14,0.461,0.244,0.565
		c0.051,0.051,0.105,0.077,0.155,0.068c0.025-0.004,0.047-0.016,0.067-0.035c0.247,0.77,0.722,1.536,1.32,1.994
		c0.345,0.264,0.73,0.425,1.138,0.425c0.416,0,0.81-0.169,1.161-0.443c0.012-0.01,0.023-0.023,0.035-0.033
		c0.57-0.462,1.023-1.2,1.263-1.944c0.02,0.019,0.042,0.031,0.067,0.035c0.022,0.004,0.044,0.001,0.067-0.007
		c0.011-0.004,0.022-0.013,0.032-0.02c0.012-0.007,0.023-0.011,0.035-0.021l0,0l0,0v0c0.112-0.095,0.217-0.316,0.265-0.585
		C15.032,10.414,14.975,10.106,14.844,10.044L14.844,10.044z"/>
	<path class="st8" d="M12.094,4.953c-4.366,0-7.917,3.552-7.917,7.917c0,1.713,0.549,3.299,1.477,4.596
		c0.006-0.103,0.022-0.206,0.051-0.306c0.731-2.514,2.081-2.601,2.372-2.669c0.572-0.134,1.265-0.077,1.635-0.192
		c0.065,0.541,1.107,0.972,2.383,0.972c1.276,0,2.318-0.43,2.382-0.972c0.37,0.115,1.063,0.058,1.635,0.192
		c0.291,0.068,1.641,0.154,2.372,2.669c0.029,0.1,0.045,0.203,0.051,0.306c0.928-1.297,1.477-2.883,1.477-4.596
		C20.012,8.505,16.46,4.953,12.094,4.953z M15.51,10.691c-0.086,0.486-0.299,0.866-0.502,0.926c-0.264,0.712-0.68,1.405-1.194,1.918
		c-0.306,0.306-0.648,0.548-1.013,0.693c-0.242,0.096-0.495,0.149-0.755,0.149c-0.26,0-0.513-0.053-0.755-0.149
		c-0.353-0.14-0.683-0.371-0.981-0.662c-0.527-0.515-0.953-1.218-1.223-1.943c-0.212-0.03-0.441-0.423-0.532-0.932
		c-0.099-0.554,0.004-1.034,0.229-1.073c0.004-0.001,0.008-0.001,0.011-0.002c0-0.002,0.001-0.004,0.001-0.006H8.79
		c0-0.26,0.035-0.512,0.094-0.754c0.039-0.465,0.14-0.893,0.318-1.235c0.528-1.017,1.689-1.629,3.229-1.526
		c1.767,0.118,2.887,1.229,2.892,3.14c0,0.134-0.004,0.263-0.012,0.392C15.515,9.704,15.604,10.164,15.51,10.691z"/>
	<path class="st8" d="M0,0v27.125h48.686V0H0z M12.094,21.524c-4.772,0-8.654-3.882-8.654-8.653c0-4.772,3.882-8.654,8.654-8.654
		c4.772,0,8.654,3.882,8.654,8.654C20.748,17.642,16.866,21.524,12.094,21.524z M37.659,21.048H23.978v-2.974h13.681V21.048z
		 M40.98,14.563H23.978v-2.974H40.98V14.563z M44.222,8.317H23.978V5.343h20.245V8.317z"/>
</g>
</svg>
