<!-- Generated by IcoMoon.io -->
<svg version="1.1" xmlns="http://www.w3.org/2000/svg" width="32" height="32" viewBox="0 0 32 32">
<title>avatar</title>
<path fill="#f5fafc" d="M31.2 16c0 8.395-6.805 15.2-15.2 15.2s-15.2-6.805-15.2-15.2c0-8.395 6.805-15.2 15.2-15.2s15.2 6.805 15.2 15.2z"></path>
<path fill="#d7e0e4" d="M16 0c-8.8 0-16 7.2-16 16s7.2 16 16 16c8.8 0 16-7.2 16-16s-7.2-16-16-16zM16 31.2c-8.4 0-15.2-6.8-15.2-15.2s6.8-15.2 15.2-15.2 15.2 6.8 15.2 15.2-6.8 15.2-15.2 15.2z"></path>
<path fill="#5c5c5c" d="M21.92 16.4c-1.2 1.76-3.44 2.96-5.92 2.96s-4.72-1.2-5.92-2.96c-1.12 0.72-1.92 1.92-1.92 3.36v3.44c0 0.32 0.24 0.56 0.56 0.56h14.4c0.32 0 0.56-0.24 0.56-0.56v-3.44c0.080-1.36-0.64-2.64-1.76-3.36z"></path>
<path fill="#5c5c5c" d="M21.36 11.92c0 2.96-2.4 5.36-5.36 5.36s-5.36-2.4-5.36-5.36c0-2.96 2.4-5.36 5.36-5.36s5.36 2.4 5.36 5.36z"></path>
</svg>
