<?xml version="1.0" encoding="utf-8"?>
<!-- Generator: Adobe Illustrator 24.1.3, SVG Export Plug-In . SVG Version: 6.00 Build 0)  -->
<svg version="1.1" id="Layer_1" xmlns="http://www.w3.org/2000/svg" xmlns:xlink="http://www.w3.org/1999/xlink" x="0px" y="0px"
	 viewBox="0 0 230 42.5" style="enable-background:new 0 0 230 42.5;" xml:space="preserve" width="160px">
<style type="text/css">
	.st0{fill:#004D71;}
	.st1{fill:#3F96B4;}
	.st2{fill:#A2A9AD;}
</style>
<g>
	<path class="st0" d="M0,10.9h9.8c5,0,12.5,3.4,12.5,12.8S14.9,36.5,9.8,36.5H0V10.9z M3,33.6h5.8c5.9,0,10.3-3,10.3-10
		s-4.4-10-10.3-10H3V33.6z"/>
	<path class="st1" d="M65.1,10.9h7.8c4.2,0,8.5,1.6,8.5,6.3c0,3-1.7,5-4.5,5.8l0,0c3.3,0.3,5.8,3,5.8,6.3c0,5.6-5.2,7.2-10,7.2h-7.6
		C65.1,36.5,65.1,10.9,65.1,10.9z M68.1,21.7h4.2c2.9,0,5.8-0.6,5.8-4.2c0-3.1-2.7-3.9-5.5-3.9h-4.5V21.7z M68.1,33.7h5.1
		c3,0,6.2-1.2,6.2-4.4c0-3.6-3-4.7-6.1-4.7h-5.2V33.7z"/>
	<path class="st0" d="M28.3,6.9l28.9,30l-3,2.9l-4.6-4.7l-4.5,4.3c-2.1,2-4.9,3.1-7.8,3.1l0,0c-6-0.1-10.8-5.1-10.7-11.1
		c0.1-2.9,1.3-5.7,3.3-7.7l3-2.9l2.9,3l-3,2.9c-2.7,2.6-2.7,6.8-0.2,9.5c1.2,1.3,2.9,2,4.7,2.1l0,0c1.8,0,3.5-0.6,4.8-1.9l4.5-4.4
		L28.3,13V6.9L28.3,6.9z"/>
	<path class="st1" d="M49.2,11.7v4.4c0.9,0.4,1.7,0.9,2.4,1.6c2.6,2.7,2.5,6.9-0.2,9.5L51,27.6l3,3l0.4-0.3
		c4.4-4.2,4.5-11.1,0.3-15.5C53.2,13.2,51.3,12.2,49.2,11.7L49.2,11.7z"/>
	<path class="st1" d="M31,2.7l-2.1,2l2.9,3l2.1-2c2-1.9,5.2-1.9,7.1,0.1c2,2,2,5.2,0,7.2l-2.1,2l2.9,3l2.1-2
		c3.7-3.5,3.9-9.4,0.4-13.1S34.9-1,31.2,2.5C31.1,2.6,31.1,2.6,31,2.7L31,2.7z"/>
	<path class="st2" d="M115.1,16.1c-1.5-1.9-3.8-3.1-6.2-3c-5.6,0-9.5,4.9-9.5,10.4c0,5.8,3.9,10.4,9.5,10.4c2.8,0.1,5.5-1.2,7.2-3.5
		l2.2,1.9c-2.2,3-5.5,4.4-9.4,4.4c-7.2,0-12.7-5.5-12.7-13.1c0-7.3,5.3-13.1,12.7-13.1c3.4,0,6.7,1.2,8.8,3.9L115.1,16.1z"/>
	<path class="st2" d="M129.8,19c5.1,0,8.8,3.5,8.8,8.7s-3.7,8.7-8.8,8.7c-5.1,0-8.8-3.5-8.8-8.7S124.8,19,129.8,19z M129.8,33.8
		c3.6,0,5.9-2.7,5.9-6.1s-2.3-6.1-5.9-6.1c-3.6,0-5.9,2.7-5.9,6.1S126.3,33.8,129.8,33.8z"/>
	<path class="st2" d="M142.9,23.3c0-1.5-0.1-2.8-0.1-3.9h2.6c0,0.9,0.1,1.8,0.1,2.7h0.1c0.7-1.6,2.8-3.1,5.5-3.1
		c4.3,0,6.3,2.7,6.3,6.7v10.2h-2.7V26c0-2.7-1.2-4.5-3.8-4.5c-3.6,0-5.1,2.6-5.1,6.3v8h-2.7L142.9,23.3z"/>
	<path class="st2" d="M162.5,23.3c0-1.5-0.1-2.8-0.1-3.9h2.6c0,0.9,0.1,1.8,0.1,2.7h0.1c0.7-1.6,2.8-3.1,5.5-3.1
		c4.3,0,6.3,2.7,6.3,6.7v10.2h-2.7V26c0-2.7-1.2-4.5-3.8-4.5c-3.6,0-5.1,2.6-5.1,6.3v8h-2.7L162.5,23.3z"/>
	<path class="st2" d="M196.9,32.9c-1.9,2.5-4.3,3.4-7.3,3.4c-5.2,0-8.4-3.9-8.4-8.7c0-5.1,3.6-8.7,8.5-8.7c4.7,0,7.8,3.2,7.8,8.6
		v0.9h-13.3c0.2,2.9,2.4,5.3,5.4,5.3c2.4,0,3.9-0.8,5.3-2.5L196.9,32.9z M194.5,26.2c-0.1-2.8-1.9-4.7-5-4.7c-3,0-5,1.9-5.4,4.7
		H194.5z"/>
	<path class="st2" d="M213.5,23.5c-1-1.3-2.5-2-4.2-2c-3.7,0-5.6,2.7-5.6,6.1s2.2,6.1,5.6,6.1c1.8,0,3.2-0.6,4.2-2l2,1.9
		c-1.6,1.8-3.8,2.6-6.2,2.6c-5.1,0-8.5-3.6-8.5-8.7c0-5,3.5-8.7,8.5-8.7c2.4,0,4.7,0.8,6.3,2.6L213.5,23.5z"/>
	<path class="st2" d="M229.9,21.7H225V30c0,2.1,0,3.8,2.5,3.8c0.8,0,1.7-0.2,2.4-0.6l0.1,2.5c-1,0.4-2.1,0.6-3.2,0.6
		c-3.9,0-4.5-2.1-4.5-5.5v-9.1h-3.6v-2.3h3.6v-4.7h2.7v4.7h4.9V21.7z"/>
</g>
</svg>
