<?xml version="1.0" encoding="utf-8"?>
<!-- Generator: Adobe Illustrator 24.1.3, SVG Export Plug-In . SVG Version: 6.00 Build 0)  -->
<svg version="1.1" id="Capa_1" xmlns="http://www.w3.org/2000/svg" xmlns:xlink="http://www.w3.org/1999/xlink" x="0px" y="0px"
	 viewBox="0 0 22 22" style="enable-background:new 0 0 22 22;" xml:space="preserve">
<style type="text/css">
	.st0{fill-rule:evenodd;clip-rule:evenodd;fill:#74AA50;}
	.st1{fill:#FFFFFF;}
</style>
<g id="styleguide">
	<g id="wizard-bar-progess-specs" transform="translate(-770.000000, -1306.000000)">
		<g id="Group-8" transform="translate(770.000000, 1306.000000)">
			<circle id="Oval-Copy-5" class="st0" cx="11" cy="11" r="11"/>
			<g id="Path-3-Copy-2">
				<path class="st1" d="M9.9,19c-0.3,0-0.5-0.1-0.7-0.3l-3.9-3.6c-0.4-0.4-0.4-1-0.1-1.4c0.4-0.4,1-0.4,1.4-0.1l2.8,2.6L14,4.6
					c0.2-0.5,0.8-0.8,1.3-0.6c0.5,0.2,0.8,0.8,0.6,1.3l-5.1,13c-0.1,0.3-0.4,0.5-0.7,0.6C10.1,19,10,19,9.9,19z"/>
			</g>
		</g>
	</g>
</g>
</svg>
