<?xml version="1.0" encoding="utf-8"?>
<!-- Generator: Adobe Illustrator 20.0.0, SVG Export Plug-In . SVG Version: 6.00 Build 0)  -->
<svg version="1.1" id="Layer_1" xmlns="http://www.w3.org/2000/svg" xmlns:xlink="http://www.w3.org/1999/xlink" x="0px" y="0px"
	 viewBox="0 0 100 94" style="enable-background:new 0 0 100 94;" xml:space="preserve">
<style type="text/css">
	.st0{fill:#FFFFFF;}
	.st1{fill:none;}
	.st2{fill:#222222;}
</style>
<g>
	<path class="st0" d="M1090.6,353.4c0-0.8,0.7-1.5,1.5-1.5h30.1c0.8,0,1.5,0.7,1.5,1.5v30.1c0,0.8-0.7,1.5-1.5,1.5H1092
		c-0.8,0-1.5-0.7-1.5-1.5V353.4z M1092,382c0,0.8,0.7,1.5,1.5,1.5h27.1c0.8,0,1.5-0.7,1.5-1.5v-26.4c-0.9,0-29.1,0-30.1,0V382z
		 M1093.1,353.2c-0.3,0-0.5,0.2-0.5,0.5c0,0.3,0.2,0.6,0.5,0.6s0.6-0.2,0.6-0.6C1093.7,353.5,1093.5,353.2,1093.1,353.2z
		 M1095,353.2c-0.3,0-0.6,0.2-0.6,0.5c0,0.3,0.2,0.6,0.6,0.6s0.6-0.2,0.6-0.6C1095.5,353.5,1095.3,353.2,1095,353.2z M1096.8,353.2
		c-0.3,0-0.6,0.2-0.6,0.5c0,0.3,0.2,0.6,0.6,0.6s0.5-0.2,0.5-0.6C1097.4,353.5,1097.1,353.2,1096.8,353.2z M1099.7,354.2
		c0,0.2,0.2,0.4,0.4,0.4h13.9c0.2,0,0.4-0.2,0.4-0.4v-0.7c0-0.2-0.2-0.4-0.4-0.4h-13.9c-0.2,0-0.4,0.2-0.4,0.4V354.2z M1119.4,382.3
		l1.6-1.6c0.1-0.1,0.1-0.4,0-0.5c-0.1-0.1-0.4-0.1-0.5,0l-1.6,1.6c-0.1,0.1-0.1,0.4,0,0.5c0.1,0.1,0.2,0.1,0.3,0.1
		S1119.3,382.4,1119.4,382.3z M1120.5,382.7l0.9-0.9c0.1-0.1,0.1-0.4,0-0.5c-0.1-0.1-0.4-0.1-0.5,0l-0.9,0.9c-0.1,0.1-0.1,0.4,0,0.5
		c0.1,0.1,0.2,0.1,0.3,0.1S1120.4,382.8,1120.5,382.7z"/>
	<path class="st0" d="M1111.9,363.9l-1.3,1.3l-5,5l-1.4-1.4l-1.3-1.3l-2.5,2.5l1.3,1.3l2.7,2.7l1.3,1.3l1.3-1.3l6.2-6.2l1.3-1.3
		L1111.9,363.9z"/>
</g>
<g>
	<circle class="st1" cx="35.2" cy="31.7" r="0.6"/>
	<circle class="st1" cx="37.1" cy="31.7" r="0.6"/>
	<circle class="st1" cx="39" cy="31.7" r="0.6"/>
	<path class="st1" d="M42.4,32.5h14.4c0.2,0,0.4-0.2,0.4-0.4v-0.8c0-0.2-0.2-0.4-0.4-0.4H42.4c-0.2,0-0.4,0.2-0.4,0.4v0.8
		C42,32.3,42.2,32.5,42.4,32.5z"/>
	<path class="st1" d="M34.1,60.8c0,0.8,0.7,1.5,1.5,1.5h28c0.8,0,1.5-0.7,1.5-1.5V33.6c-0.9,0-30,0-31,0V60.8z M64.3,60.6l-0.9,0.9
		c-0.1,0.1-0.2,0.1-0.3,0.1s-0.2,0-0.3-0.1c-0.1-0.1-0.1-0.4,0-0.5l0.9-0.9c0.1-0.1,0.4-0.1,0.5,0S64.4,60.4,64.3,60.6z M61.7,60.6
		l1.7-1.7c0.1-0.1,0.4-0.1,0.5,0c0.1,0.1,0.1,0.4,0,0.5l-1.7,1.7c-0.1,0.1-0.2,0.1-0.3,0.1c-0.1,0-0.2,0-0.3-0.1
		C61.6,60.9,61.6,60.7,61.7,60.6z M39.6,39.5H60v1H39.6V39.5z M39.6,44.4H60v1H39.6V44.4z M39.6,49.7H60v1H39.6V49.7z M39.6,54.6H60
		v1H39.6V54.6z"/>
	<path d="M63.7,60l-0.9,0.9c-0.1,0.1-0.1,0.4,0,0.5c0.1,0.1,0.2,0.1,0.3,0.1s0.2,0,0.3-0.1l0.9-0.9c0.1-0.1,0.1-0.4,0-0.5
		S63.9,59.9,63.7,60z"/>
	<path d="M65.1,29.8h-31c-0.8,0-1.5,0.7-1.5,1.5v31c0,0.8,0.7,1.5,1.5,1.5h31c0.8,0,1.5-0.7,1.5-1.5v-31
		C66.6,30.5,65.9,29.8,65.1,29.8z M42,31.3c0-0.2,0.2-0.4,0.4-0.4h14.4c0.2,0,0.4,0.2,0.4,0.4v0.8c0,0.2-0.2,0.4-0.4,0.4H42.4
		c-0.2,0-0.4-0.2-0.4-0.4V31.3z M39,31.1c0.3,0,0.6,0.3,0.6,0.6s-0.3,0.6-0.6,0.6s-0.6-0.3-0.6-0.6S38.7,31.1,39,31.1z M37.1,31.1
		c0.3,0,0.6,0.3,0.6,0.6s-0.3,0.6-0.6,0.6s-0.6-0.3-0.6-0.6S36.8,31.1,37.1,31.1z M35.2,31.1c0.3,0,0.6,0.3,0.6,0.6
		s-0.3,0.6-0.6,0.6c-0.3,0-0.6-0.3-0.6-0.6S34.9,31.1,35.2,31.1z M65.1,60.8c0,0.8-0.7,1.5-1.5,1.5h-28c-0.8,0-1.5-0.7-1.5-1.5V33.6
		c1,0,30,0,31,0V60.8z"/>
	<path d="M62,61.2c0.1,0,0.2,0,0.3-0.1l1.7-1.7c0.1-0.1,0.1-0.4,0-0.5c-0.1-0.1-0.4-0.1-0.5,0l-1.7,1.7c-0.1,0.1-0.1,0.4,0,0.5
		C61.8,61.2,61.9,61.2,62,61.2z"/>
	<rect x="39.6" y="39.5" class="st2" width="20.4" height="1"/>
	<rect x="39.6" y="44.4" class="st2" width="20.4" height="1"/>
	<rect x="39.6" y="49.7" class="st2" width="20.4" height="1"/>
	<rect x="39.6" y="54.6" class="st2" width="20.4" height="1"/>
</g>
</svg>
