<?xml version="1.0" encoding="utf-8"?>
<!-- Generator: Adobe Illustrator 20.0.0, SVG Export Plug-In . SVG Version: 6.00 Build 0)  -->
<svg version="1.1" id="Layer_1" xmlns="http://www.w3.org/2000/svg" xmlns:xlink="http://www.w3.org/1999/xlink" x="0px" y="0px"
	 viewBox="0 0 100 94" style="enable-background:new 0 0 100 94;" xml:space="preserve">
<style type="text/css">
	.st0{fill:#FFFFFF;}
	.st1{fill:#222222;}
</style>
<g>
	<path class="st0" d="M1090.6,353.4c0-0.8,0.7-1.5,1.5-1.5h30.1c0.8,0,1.5,0.7,1.5,1.5v30.1c0,0.8-0.7,1.5-1.5,1.5H1092
		c-0.8,0-1.5-0.7-1.5-1.5V353.4z M1092,382c0,0.8,0.7,1.5,1.5,1.5h27.1c0.8,0,1.5-0.7,1.5-1.5v-26.4c-0.9,0-29.1,0-30.1,0V382z
		 M1093.1,353.2c-0.3,0-0.5,0.2-0.5,0.5c0,0.3,0.2,0.6,0.5,0.6s0.6-0.2,0.6-0.6C1093.7,353.5,1093.5,353.2,1093.1,353.2z
		 M1095,353.2c-0.3,0-0.6,0.2-0.6,0.5c0,0.3,0.2,0.6,0.6,0.6s0.6-0.2,0.6-0.6C1095.5,353.5,1095.3,353.2,1095,353.2z M1096.8,353.2
		c-0.3,0-0.6,0.2-0.6,0.5c0,0.3,0.2,0.6,0.6,0.6s0.5-0.2,0.5-0.6C1097.4,353.5,1097.1,353.2,1096.8,353.2z M1099.7,354.2
		c0,0.2,0.2,0.4,0.4,0.4h13.9c0.2,0,0.4-0.2,0.4-0.4v-0.7c0-0.2-0.2-0.4-0.4-0.4h-13.9c-0.2,0-0.4,0.2-0.4,0.4V354.2z M1119.4,382.3
		l1.6-1.6c0.1-0.1,0.1-0.4,0-0.5c-0.1-0.1-0.4-0.1-0.5,0l-1.6,1.6c-0.1,0.1-0.1,0.4,0,0.5c0.1,0.1,0.2,0.1,0.3,0.1
		S1119.3,382.4,1119.4,382.3z M1120.5,382.7l0.9-0.9c0.1-0.1,0.1-0.4,0-0.5c-0.1-0.1-0.4-0.1-0.5,0l-0.9,0.9c-0.1,0.1-0.1,0.4,0,0.5
		c0.1,0.1,0.2,0.1,0.3,0.1S1120.4,382.8,1120.5,382.7z"/>
	<path class="st0" d="M1111.9,363.9l-1.3,1.3l-5,5l-1.4-1.4l-1.3-1.3l-2.5,2.5l1.3,1.3l2.7,2.7l1.3,1.3l1.3-1.3l6.2-6.2l1.3-1.3
		L1111.9,363.9z"/>
</g>
<path class="st1" d="M40.8,49.8c-0.1,0.3-0.1,0.5-0.1,0.5l0.2,2.4c-0.1,3.3-1.5,4.4-1.5,4.4l2.1,13.3c-2.4-0.8-4.6-2-6.6-3.4
	l-0.9-9.6c0,0-0.5-0.2-1.4-0.7c-0.9-0.4-1.9-1.6-2.1-2c-0.2-0.4-0.8-1.5-2.2-2.6c-1.4-1-1.5-0.5-1.9-1.2c-0.4-0.6,0.6-1,0.6-1
	s2.5-0.5,4.7,2.2c0,0,0.1,0,0.2,0l0-0.1c0,0,0,0,0,0c0,0,0,0,0,0l0.1-0.4c0,0,0-0.1,0-0.2c0.7,0,3.2,0.1,4.2,2.3
	c0.1,0.1,0.1,0.2,0.2,0.3c0,0-0.2-3.1-4.4-2.7c0-0.3,0.1-1.1,0-1.4c-0.1-0.5-0.3-0.9-0.3-0.9l-2.2-5.1c0,0-0.4-0.9,0.4-1.3
	c0.8-0.4,1.2,0.3,1.2,0.3s2.3,4.6,2.6,5.2c0.3,0.6,0.6-0.2,0.6-0.2l-0.8-6.2c0,0-0.2-1,0.8-1.2c1.1-0.2,1.2,1.4,1.2,1.4
	s0.7,5.3,0.8,5.9c0.1,0.6,0.4,0,0.4,0s0.8-5.1,0.9-5.7c0.1-0.5,0.3-1.1,1-1.1c0.8,0,0.7,1.8,0.7,1.8s-0.6,5.2-0.6,5.6
	c0,0.4,0.2,0.3,0.2,0.3s1.9-4,2.1-4.3c0.2-0.3,0.5-0.9,1.3-0.6c0.8,0.3,0,2.1,0,2.1S40.9,49.5,40.8,49.8z M76.2,47.1
	c-0.7-0.5-1.1,0.1-1.3,0.3c-0.2,0.2-2.8,3.5-2.8,3.5s-0.3,0-0.2-0.3c0.1-0.4,1.7-5,1.7-5s0.5-1.6-0.3-1.8s-1,0.3-1.2,0.8
	c-0.2,0.5-2,5.1-2,5.1s-0.4,0.5-0.4-0.1c0-0.6,0.4-5.7,0.4-5.7s0.2-1.5-0.8-1.5c-1.1,0-1,1-1,1l-0.5,5.9c0,0-0.5,0.6-0.6,0
	c-0.1-0.6-1.3-5.3-1.3-5.3s-0.2-0.7-1-0.5c-0.8,0.2-0.6,1.1-0.6,1.1l1,5.2c0,0,0.1,0.4,0.1,0.9c0,0.3-0.2,0.9-0.3,1.3
	c3.9,0.5,3.4,3.4,3.4,3.4c0-0.1-0.1-0.2-0.1-0.3c-0.5-2.1-2.5-2.8-3.3-3c0,0.1-0.1,0.2-0.1,0.2l-0.2,0.4c0,0,0,0,0,0c0,0,0,0,0,0
	l0,0.1c-0.1,0-0.2,0-0.2,0c-1.4-2.9-3.9-3-3.9-3s-0.9,0.2-0.7,0.8c0.2,0.7,0.4,0.2,1.5,1.5c1.1,1.2,1.4,2.4,1.5,2.8
	c0.1,0.4,0.8,1.7,1.6,2.3c0.8,0.6,1.1,0.9,1.1,0.9l-1.5,11.5c2.2-1,4.2-2.3,6.1-3.8l0.4-6.9c0,0,1.6-0.7,2.3-3.8l0.3-2.3
	c0,0,0-0.2,0.2-0.5c0.2-0.3,2.2-3.1,2.2-3.1S76.9,47.5,76.2,47.1z M65.4,28.8c-1.2-0.7-1.8,0.3-2.1,0.7C62.9,30,59,36,59,36
	s-0.4,0.1-0.3-0.5c0.1-0.6,2.1-8.9,2.1-8.9s0.5-2.8-0.8-3c-1.3-0.2-1.7,0.7-1.9,1.6c-0.2,0.9-2.5,9-2.5,9s-0.7,0.9-0.7-0.1
	s-0.2-9.7-0.2-9.7s0.2-2.6-1.6-2.5c-1.8,0.2-1.6,1.8-1.6,1.8l0.2,10.1c0,0-0.7,1.1-1,0.2c-0.3-1-3.2-8.9-3.2-8.9s-0.5-1.2-1.9-0.7
	c-1.3,0.5-0.8,2-0.8,2l2.5,8.7c0,0,0.2,0.7,0.2,1.5c0,0.7-0.4,2.5-0.4,2.5l0,0.1c6.9,0.1,6.6,5.2,6.6,5.2c-0.1-0.2-0.2-0.4-0.3-0.6
	c-1.3-3.8-5.2-4.5-6.4-4.6l-0.3,0.6c0,0,0,0-0.1,0c0,0,0,0,0.1,0L46.8,40c-0.2,0-0.3,0-0.3,0c-3-4.8-7.2-4.4-7.2-4.4
	s-1.6,0.5-1.1,1.6c0.5,1.1,0.8,0.3,2.8,2.3c2,1.9,2.7,3.9,3,4.6c0.3,0.7,1.6,2.8,3,3.7c1.4,0.9,2.1,1.3,2.1,1.3l-0.7,23.1
	c1,0.1,1.9,0.1,2.9,0.1c2.5,0,4.9-0.3,7.2-0.9L58,49.5c0,0,2.6-1.5,3.4-6.9l0.2-4c0,0,0-0.3,0.2-0.8c0.3-0.5,3.2-5.7,3.2-5.7
	S66.6,29.5,65.4,28.8z"/>
</svg>
