<?xml version="1.0" encoding="utf-8"?>
<!-- Generator: Adobe Illustrator 20.0.0, SVG Export Plug-In . SVG Version: 6.00 Build 0)  -->
<svg version="1.1" id="Layer_1" xmlns="http://www.w3.org/2000/svg" xmlns:xlink="http://www.w3.org/1999/xlink" x="0px" y="0px"
	 viewBox="0 0 100 94" style="enable-background:new 0 0 100 94;" xml:space="preserve">
<style type="text/css">
	.st0{fill:#FFFFFF;}
</style>
<g>
	<path class="st0" d="M1090.6,353.4c0-0.8,0.7-1.5,1.5-1.5h30.1c0.8,0,1.5,0.7,1.5,1.5v30.1c0,0.8-0.7,1.5-1.5,1.5H1092
		c-0.8,0-1.5-0.7-1.5-1.5V353.4z M1092,382c0,0.8,0.7,1.5,1.5,1.5h27.1c0.8,0,1.5-0.7,1.5-1.5v-26.4c-0.9,0-29.1,0-30.1,0V382z
		 M1093.1,353.2c-0.3,0-0.5,0.2-0.5,0.5c0,0.3,0.2,0.6,0.5,0.6s0.6-0.2,0.6-0.6C1093.7,353.5,1093.5,353.2,1093.1,353.2z
		 M1095,353.2c-0.3,0-0.6,0.2-0.6,0.5c0,0.3,0.2,0.6,0.6,0.6s0.6-0.2,0.6-0.6C1095.5,353.5,1095.3,353.2,1095,353.2z M1096.8,353.2
		c-0.3,0-0.6,0.2-0.6,0.5c0,0.3,0.2,0.6,0.6,0.6s0.5-0.2,0.5-0.6C1097.4,353.5,1097.1,353.2,1096.8,353.2z M1099.7,354.2
		c0,0.2,0.2,0.4,0.4,0.4h13.9c0.2,0,0.4-0.2,0.4-0.4v-0.7c0-0.2-0.2-0.4-0.4-0.4h-13.9c-0.2,0-0.4,0.2-0.4,0.4V354.2z M1119.4,382.3
		l1.6-1.6c0.1-0.1,0.1-0.4,0-0.5c-0.1-0.1-0.4-0.1-0.5,0l-1.6,1.6c-0.1,0.1-0.1,0.4,0,0.5c0.1,0.1,0.2,0.1,0.3,0.1
		S1119.3,382.4,1119.4,382.3z M1120.5,382.7l0.9-0.9c0.1-0.1,0.1-0.4,0-0.5c-0.1-0.1-0.4-0.1-0.5,0l-0.9,0.9c-0.1,0.1-0.1,0.4,0,0.5
		c0.1,0.1,0.2,0.1,0.3,0.1S1120.4,382.8,1120.5,382.7z"/>
	<path class="st0" d="M1111.9,363.9l-1.3,1.3l-5,5l-1.4-1.4l-1.3-1.3l-2.5,2.5l1.3,1.3l2.7,2.7l1.3,1.3l1.3-1.3l6.2-6.2l1.3-1.3
		L1111.9,363.9z"/>
</g>
<g>
	<path d="M34.9,31.1c0-0.8,0.7-1.5,1.5-1.5h31c0.8,0,1.5,0.7,1.5,1.5v31c0,0.8-0.7,1.5-1.5,1.5h-31c-0.8,0-1.5-0.7-1.5-1.5V31.1z
		 M36.4,60.6c0,0.8,0.7,1.5,1.5,1.5h28c0.8,0,1.5-0.7,1.5-1.5V33.4c-0.9,0-30,0-31,0V60.6z M37.5,30.9c-0.3,0-0.6,0.3-0.6,0.6
		c0,0.3,0.3,0.6,0.6,0.6s0.6-0.3,0.6-0.6C38.1,31.2,37.8,30.9,37.5,30.9z M39.4,30.9c-0.3,0-0.6,0.3-0.6,0.6c0,0.3,0.3,0.6,0.6,0.6
		s0.6-0.3,0.6-0.6C40,31.2,39.7,30.9,39.4,30.9z M41.3,30.9c-0.3,0-0.6,0.3-0.6,0.6c0,0.3,0.3,0.6,0.6,0.6s0.6-0.3,0.6-0.6
		C41.9,31.2,41.6,30.9,41.3,30.9z M44.3,31.9c0,0.2,0.2,0.4,0.4,0.4h14.4c0.2,0,0.4-0.2,0.4-0.4v-0.8c0-0.2-0.2-0.4-0.4-0.4H44.7
		c-0.2,0-0.4,0.2-0.4,0.4V31.9z M64.5,60.9l1.7-1.7c0.1-0.1,0.1-0.4,0-0.5c-0.1-0.1-0.4-0.1-0.5,0L64,60.4c-0.1,0.1-0.1,0.4,0,0.5
		c0.1,0.1,0.2,0.1,0.3,0.1C64.4,61,64.5,61,64.5,60.9z M65.7,61.3l0.9-0.9c0.1-0.1,0.1-0.4,0-0.5c-0.1-0.1-0.4-0.1-0.5,0l-0.9,0.9
		c-0.1,0.1-0.1,0.4,0,0.5c0.1,0.1,0.2,0.1,0.3,0.1S65.6,61.4,65.7,61.3z"/>
	<g>
		<path d="M59.6,51.1l-2.1-1.6c0.5-1.1,0.7-2.3,0.5-3.6c-0.5-3.5-3.7-5.9-7.2-5.4c-3.5,0.5-5.9,3.7-5.4,7.2c0.5,3.5,3.7,5.9,7.2,5.4
			c1.4-0.2,2.6-0.8,3.5-1.7l2.1,1.5c0.5,0.4,1.3,0.3,1.7-0.2l0,0C60.3,52.3,60.1,51.5,59.6,51.1z M52.4,51.1
			c-2.3,0.3-4.5-1.3-4.9-3.6c-0.3-2.3,1.3-4.5,3.6-4.9c2.3-0.3,4.5,1.3,4.9,3.6C56.4,48.6,54.8,50.8,52.4,51.1z"/>
	</g>
</g>
</svg>
