<?xml version="1.0" encoding="utf-8"?>
<!-- Generator: Adobe Illustrator 20.0.0, SVG Export Plug-In . SVG Version: 6.00 Build 0)  -->
<svg version="1.1" id="Layer_1" xmlns="http://www.w3.org/2000/svg" xmlns:xlink="http://www.w3.org/1999/xlink" x="0px" y="0px"
	 viewBox="0 0 100 94" style="enable-background:new 0 0 100 94;" xml:space="preserve">
<style type="text/css">
	.st0{fill:#222222;}
</style>
<path class="st0" d="M68.3,60.1v-6.3l-3.5-1l-0.5-14.2h0.1v-0.3h-1.9v0.3h0.1l-0.5,13.5l-3.3-0.9v-5l-1.7-0.7v-2.3h-1.1v1.8
	l-3.7-1.7l-1.1,0.4l-0.5-13.5h0.2v-0.4h-2.6v0.4h0.2l-0.5,13.5l-1.1-0.4l-6.4,2.9v5l-3.3,0.9L37,38.6h0.1v-0.3h-1.9v0.3h0.1
	l-0.5,14.2l-3.5,1v6.3h-0.5V61h14.3h9.4h14.3v-0.9H68.3z M34.7,57.6h-1v-1.1h1V57.6z M36.6,57.6h-1v-1.1h1V57.6z M38.5,57.6h-1v-1.1
	h1V57.6z M40.5,57.6h-1v-1.1h1V57.6z M48.4,55.4h-1v-1.1h1V55.4z M48.4,50.8h-1v-1.1h1V50.8z M48.4,48.6h-1v-1.1h1V48.6z M49.3,47.5
	h1v1.1h-1V47.5z M49.3,49.7h1v1.1h-1V49.7z M49.3,54.2h1v1.1h-1V54.2z M50.4,60.3h-1.2v-2.1h1.2V60.3z M52.2,55.4h-1v-1.1h1V55.4z
	 M52.2,50.8h-1v-1.1h1V50.8z M52.2,48.6h-1v-1.1h1V48.6z M60.1,57.6h-1v-1.1h1V57.6z M62,57.6h-1v-1.1h1V57.6z M63.9,57.6h-1v-1.1h1
	V57.6z M65.9,57.6h-1v-1.1h1V57.6z"/>
</svg>
