<?xml version="1.0" encoding="utf-8"?>
<!-- Generator: Adobe Illustrator 20.0.0, SVG Export Plug-In . SVG Version: 6.00 Build 0)  -->
<svg version="1.1" id="Layer_1" xmlns="http://www.w3.org/2000/svg" xmlns:xlink="http://www.w3.org/1999/xlink" x="0px" y="0px"
	 viewBox="0 0 100 94" style="enable-background:new 0 0 100 94;" xml:space="preserve">
<style type="text/css">
	.st0{fill:#FFFFFF;}
	.st1{fill:#222222;}
</style>
<g>
	<path class="st0" d="M1090.6,353.4c0-0.8,0.7-1.5,1.5-1.5h30.1c0.8,0,1.5,0.7,1.5,1.5v30.1c0,0.8-0.7,1.5-1.5,1.5H1092
		c-0.8,0-1.5-0.7-1.5-1.5V353.4z M1092,382c0,0.8,0.7,1.5,1.5,1.5h27.1c0.8,0,1.5-0.7,1.5-1.5v-26.4c-0.9,0-29.1,0-30.1,0V382z
		 M1093.1,353.2c-0.3,0-0.5,0.2-0.5,0.5c0,0.3,0.2,0.6,0.5,0.6s0.6-0.2,0.6-0.6C1093.7,353.5,1093.5,353.2,1093.1,353.2z
		 M1095,353.2c-0.3,0-0.6,0.2-0.6,0.5c0,0.3,0.2,0.6,0.6,0.6s0.6-0.2,0.6-0.6C1095.5,353.5,1095.3,353.2,1095,353.2z M1096.8,353.2
		c-0.3,0-0.6,0.2-0.6,0.5c0,0.3,0.2,0.6,0.6,0.6s0.5-0.2,0.5-0.6C1097.4,353.5,1097.1,353.2,1096.8,353.2z M1099.7,354.2
		c0,0.2,0.2,0.4,0.4,0.4h13.9c0.2,0,0.4-0.2,0.4-0.4v-0.7c0-0.2-0.2-0.4-0.4-0.4h-13.9c-0.2,0-0.4,0.2-0.4,0.4V354.2z M1119.4,382.3
		l1.6-1.6c0.1-0.1,0.1-0.4,0-0.5c-0.1-0.1-0.4-0.1-0.5,0l-1.6,1.6c-0.1,0.1-0.1,0.4,0,0.5c0.1,0.1,0.2,0.1,0.3,0.1
		S1119.3,382.4,1119.4,382.3z M1120.5,382.7l0.9-0.9c0.1-0.1,0.1-0.4,0-0.5c-0.1-0.1-0.4-0.1-0.5,0l-0.9,0.9c-0.1,0.1-0.1,0.4,0,0.5
		c0.1,0.1,0.2,0.1,0.3,0.1S1120.4,382.8,1120.5,382.7z"/>
	<path class="st0" d="M1111.9,363.9l-1.3,1.3l-5,5l-1.4-1.4l-1.3-1.3l-2.5,2.5l1.3,1.3l2.7,2.7l1.3,1.3l1.3-1.3l6.2-6.2l1.3-1.3
		L1111.9,363.9z"/>
</g>
<g>
	<rect x="44" y="39.3" class="st1" width="10.5" height="10.5"/>
	<path class="st1" d="M38.5,55.3H60V33.8H38.5V55.3z M42.6,37.9h13.3v13.3H42.6V37.9z"/>
	<rect x="41.2" y="28.6" class="st1" width="1.4" height="2.9"/>
	<rect x="44.9" y="28.6" class="st1" width="1.4" height="2.9"/>
	<rect x="48.6" y="28.6" class="st1" width="1.4" height="2.9"/>
	<rect x="52.3" y="28.6" class="st1" width="1.4" height="2.9"/>
	<rect x="55.9" y="28.6" class="st1" width="1.4" height="2.9"/>
	<rect x="41.2" y="57.7" class="st1" width="1.4" height="2.9"/>
	<rect x="44.9" y="57.7" class="st1" width="1.4" height="2.9"/>
	<rect x="48.6" y="57.7" class="st1" width="1.4" height="2.9"/>
	<rect x="52.3" y="57.7" class="st1" width="1.4" height="2.9"/>
	<rect x="55.9" y="57.7" class="st1" width="1.4" height="2.9"/>
	<rect x="62.4" y="36.5" class="st1" width="2.9" height="1.4"/>
	<rect x="62.4" y="40.1" class="st1" width="2.9" height="1.4"/>
	<rect x="62.4" y="43.9" class="st1" width="2.9" height="1.4"/>
	<rect x="62.4" y="47.6" class="st1" width="2.9" height="1.4"/>
	<rect x="62.4" y="51.2" class="st1" width="2.9" height="1.4"/>
	<rect x="33.3" y="36.5" class="st1" width="2.9" height="1.4"/>
	<rect x="33.3" y="40.1" class="st1" width="2.9" height="1.4"/>
	<rect x="33.3" y="43.9" class="st1" width="2.9" height="1.4"/>
	<rect x="33.3" y="47.6" class="st1" width="2.9" height="1.4"/>
	<rect x="33.3" y="51.2" class="st1" width="2.9" height="1.4"/>
</g>
</svg>
