<svg xmlns="http://www.w3.org/2000/svg" xmlns:xlink="http://www.w3.org/1999/xlink" xmlns:sketch="http://www.bohemiancoding.com/sketch/ns" viewBox="0 0 22 22" version="1.1" x="0px" y="0px"><title>building_company_office_corporation_buildings</title><desc>Created with Sketch.</desc><g stroke="none" stroke-width="1" fill="none" fill-rule="evenodd" sketch:type="MSPage"><g sketch:type="MSArtboardGroup" transform="translate(-242.000000, -22.000000)" fill="#000000"><path d="M255,28 L245,22 L245,44 L254.5,44 L262,44 L262,34 L255,31 L255,28 Z M249,38 L251,38 L251,39 L249,39 L249,38 Z M246,38 L248,38 L248,39 L246,39 L246,38 Z M249,36 L251,36 L251,37 L249,37 L249,36 Z M246,36 L248,36 L248,37 L246,37 L246,36 Z M249,34 L251,34 L251,35 L249,35 L249,34 Z M246,34 L248,34 L248,35 L246,35 L246,34 Z M249,32 L251,32 L251,33 L249,33 L249,32 Z M246,32 L248,32 L248,33 L246,33 L246,32 Z M249,30 L251,30 L251,31 L249,31 L249,30 Z M249,28 L251,28 L251,29 L249,29 L249,28 Z M246,30 L248,30 L248,31 L246,31 L246,30 Z M252,32 L254,32 L254,33 L252,33 L252,32 Z M252,30 L254,30 L254,31 L252,31 L252,30 Z M252,34 L254,34 L254,35 L252,35 L252,34 Z M252,36 L254,36 L254,37 L252,37 L252,36 Z M252,38 L254,38 L254,39 L252,39 L252,38 Z M249,40 L251,40 L251,41 L249,41 L249,40 Z M246,40 L248,40 L248,41 L246,41 L246,40 Z M252,40 L254,40 L254,41 L252,41 L252,40 Z M256,36 L258,36 L258,37 L256,37 L256,36 Z M256,34 L258,34 L258,35 L256,35 L256,34 Z M256,38 L258,38 L258,39 L256,39 L256,38 Z M256,40 L258,40 L258,41 L256,41 L256,40 Z M259,36 L261,36 L261,37 L259,37 L259,36 Z M259,38 L261,38 L261,39 L259,39 L259,38 Z M259,40 L261,40 L261,41 L259,41 L259,40 Z M249,42 L251,42 L251,43 L249,43 L249,42 Z M246,42 L248,42 L248,43 L246,43 L246,42 Z M252,42 L254,42 L254,43 L252,43 L252,42 Z M256,42 L258,42 L258,43 L256,43 L256,42 Z M259,42 L261,42 L261,43 L259,43 L259,42 Z M246,28 L248,28 L248,29 L246,29 L246,28 Z M246,26 L248,26 L248,27 L246,27 L246,26 Z" sketch:type="MSShapeGroup"></path></g></g></svg>