<svg xmlns="http://www.w3.org/2000/svg" xmlns:xlink="http://www.w3.org/1999/xlink" version="1.1" x="0px" y="0px" viewBox="0 0 100 100" style="enable-background:new 0 0 100 100;" xml:space="preserve"><g><path d="M69.9,51.8c-0.4,0.7-0.9,1.5-1.3,2.3l2,0.9l-3.4,1.6c-0.1,0.2-0.3,0.5-0.4,0.7l4.4-2.1l6.6,3l-8,4l-4.5-2.5   c-0.1,0.2-0.2,0.4-0.3,0.6l4.1,2.3l-8.2,4.1l-5.6-3.9l3.6-1.7c-0.1-0.1-0.2-0.3-0.3-0.4l-3.9,1.8l-4.7-3.3l6.1-2.8   c-0.1-0.1-0.1-0.2-0.2-0.4L49.7,59l-4-2.7l6.7-2.9l2.8,1.6c-0.2-0.3-0.4-0.6-0.5-0.9L53,53l0.9-0.4c-0.1-0.1-0.1-0.2-0.2-0.3   l-1.1,0.5l-3.8-2.1l3.2-1.3c0-0.1-0.1-0.2-0.1-0.3l-3.4,1.4l-3.4-1.9l5.3-2.2c-0.2-0.4-0.4-0.7-0.6-1.1l-12.7,5.1l-14-2.7L5,56.9   L16.3,95l34.1-21.2L72,75.1l23-12.8L69.9,51.8z M60.1,66.9L51.7,66l-5.1-4.1l7.9,1L60.1,66.9z M32.6,56.6l-3-2.8l7.8,1.3l3.5,2.8   L32.6,56.6z M41.2,58.1l4.2,3.4l-8.8-1.2l-3.6-3.4L41.2,58.1z M34.7,52.5l6.7,1.2l3.4,2.4l-7-1.2L34.7,52.5z M37,54.8l-7.7-1.3   l-2.5-2.4l7.3,1.3L37,54.8z M28.6,53.6l-7.8,4.1l-2-2.8l7.3-3.8L28.6,53.6z M28.8,53.9l3,2.9l-8.5,4.6L20.9,58L28.8,53.9z M32.1,57   l3.6,3.4l-9.3,5.2l-2.8-4L32.1,57z M36,60.8l4.4,4.2L30.2,71l-3.5-4.9L36,60.8z M36.9,60.7l8.9,1.2l5.1,4.1l-9.5-1L36.9,60.7z    M54,62.6l-7.9-1l-4.2-3.3l7.5,1.1L54,62.6z M49,59.1l-7.4-1.1L38,55.1l7,1.2L49,59.1z M52,53.1L45.4,56L42,53.6l6.3-2.7L52,53.1z    M44.6,48.8l3.4,1.9l-6.3,2.7l-3.1-2.1L44.6,48.8z M38.1,51.4l3,2.1l-6.6-1.2l-2.7-2.1L38.1,51.4z M31.1,50.1l2.7,2.1l-7.2-1.3   l-2.3-2.1L31.1,50.1z M23.7,48.9l2.2,2.1l-7.3,3.7l-1.7-2.5L23.7,48.9z M8.8,56.4l7.4-3.7l1.7,2.5l-8,4.1L8.8,56.4z M10,59.5l8-4.1   l1.9,2.8l-8.6,4.5L10,59.5z M11.5,63l8.7-4.6l2.3,3.3L13,66.9L11.5,63z M13.2,67.2l9.5-5.1l2.8,4l-10.4,5.8L13.2,67.2z M15.3,72.4   l10.5-5.8l3.4,5l-11.5,6.6L15.3,72.4z M21.1,86.7l-3.2-7.9l11.6-6.7l4.6,6.7L21.1,86.7z M35.2,78.1l-4.7-6.6l10.4-6l5.8,5.6   L35.2,78.1z M47.8,70.9l-5.9-5.6l9.6,1l6.6,5.3L47.8,70.9z M59,71.7l-6.7-5.3l8.4,0.9l7.2,5.1L59,71.7z M68.7,72.2l-7.3-5l8.2-4.2   l7.9,4.4L68.7,72.2z M70.4,62.6l8-4.1l8.5,3.8L78.3,67L70.4,62.6z"></path></g><g><path d="M76.4,18.7c-3-5.2-8.6-8.5-14.7-8.5c-6,0-11.6,3.2-14.7,8.5c-3,5.2-3,11.7,0,16.9   c4.9,8.5,9.8,16.9,14.7,25.4c4.9-8.5,9.8-16.9,14.7-25.4C79.5,30.4,79.5,24,76.4,18.7z M61.8,36.7c-5.3,0-9.5-4.3-9.5-9.5   c0-5.3,4.3-9.5,9.5-9.5c5.3,0,9.5,4.3,9.5,9.5C71.3,32.5,67,36.7,61.8,36.7z"></path></g></svg>