<?xml version="1.0" encoding="utf-8"?>
<!-- Generator: Adobe Illustrator 20.0.0, SVG Export Plug-In . SVG Version: 6.00 Build 0)  -->
<svg version="1.1" id="Layer_1" xmlns="http://www.w3.org/2000/svg" xmlns:xlink="http://www.w3.org/1999/xlink" x="0px" y="0px"
	 viewBox="0 0 100 94" style="enable-background:new 0 0 100 94;" xml:space="preserve">
<style type="text/css">
	.st0{fill:#FFFFFF;}
	.st1{fill:#222222;}
</style>
<g>
	<path class="st0" d="M1090.6,353.4c0-0.8,0.7-1.5,1.5-1.5h30.1c0.8,0,1.5,0.7,1.5,1.5v30.1c0,0.8-0.7,1.5-1.5,1.5H1092
		c-0.8,0-1.5-0.7-1.5-1.5V353.4z M1092,382c0,0.8,0.7,1.5,1.5,1.5h27.1c0.8,0,1.5-0.7,1.5-1.5v-26.4c-0.9,0-29.1,0-30.1,0V382z
		 M1093.1,353.2c-0.3,0-0.5,0.2-0.5,0.5c0,0.3,0.2,0.6,0.5,0.6s0.6-0.2,0.6-0.6C1093.7,353.5,1093.5,353.2,1093.1,353.2z
		 M1095,353.2c-0.3,0-0.6,0.2-0.6,0.5c0,0.3,0.2,0.6,0.6,0.6s0.6-0.2,0.6-0.6C1095.5,353.5,1095.3,353.2,1095,353.2z M1096.8,353.2
		c-0.3,0-0.6,0.2-0.6,0.5c0,0.3,0.2,0.6,0.6,0.6s0.5-0.2,0.5-0.6C1097.4,353.5,1097.1,353.2,1096.8,353.2z M1099.7,354.2
		c0,0.2,0.2,0.4,0.4,0.4h13.9c0.2,0,0.4-0.2,0.4-0.4v-0.7c0-0.2-0.2-0.4-0.4-0.4h-13.9c-0.2,0-0.4,0.2-0.4,0.4V354.2z M1119.4,382.3
		l1.6-1.6c0.1-0.1,0.1-0.4,0-0.5c-0.1-0.1-0.4-0.1-0.5,0l-1.6,1.6c-0.1,0.1-0.1,0.4,0,0.5c0.1,0.1,0.2,0.1,0.3,0.1
		S1119.3,382.4,1119.4,382.3z M1120.5,382.7l0.9-0.9c0.1-0.1,0.1-0.4,0-0.5c-0.1-0.1-0.4-0.1-0.5,0l-0.9,0.9c-0.1,0.1-0.1,0.4,0,0.5
		c0.1,0.1,0.2,0.1,0.3,0.1S1120.4,382.8,1120.5,382.7z"/>
	<path class="st0" d="M1111.9,363.9l-1.3,1.3l-5,5l-1.4-1.4l-1.3-1.3l-2.5,2.5l1.3,1.3l2.7,2.7l1.3,1.3l1.3-1.3l6.2-6.2l1.3-1.3
		L1111.9,363.9z"/>
</g>
<g>
	<path class="st1" d="M49.8,43C49.8,43,49.8,43,49.8,43C49.8,43,49.8,43,49.8,43c7.3,0,6.3-10.6,6.3-10.6c-0.3-6.5-5.7-6.8-6.2-6.8
		c-0.6,0-5.9,0.6-6.2,7.1C43.6,32.5,42.5,43,49.8,43z"/>
	<path class="st1" d="M64.2,58.1v-5.3c0-2.1-1.2-3.6-3.3-4.9c-2.1-1.3-4.5-2.5-5.7-3c-0.4-0.2-0.8-0.1-1.1,0.2
		c-0.2,0.2-0.4,0.5-0.7,0.7c-1.4,1-6.4,0.8-7.5,0c-0.2-0.2-0.4-0.3-0.5-0.5c-0.4-0.4-1-0.6-1.5-0.4c-1.6,0.6-4.7,1.7-6.8,3
		c-2.1,1.4-2.6,3-2.6,4.9c0,0.2,0,2.3,0,5.3H64.2z"/>
</g>
</svg>
