<?xml version="1.0" encoding="UTF-8"?>
<svg width="36px" height="34px" viewBox="0 0 36 34" version="1.1" xmlns="http://www.w3.org/2000/svg" xmlns:xlink="http://www.w3.org/1999/xlink">
    <!-- Generator: Sketch 44.1 (41455) - http://www.bohemiancoding.com/sketch -->
    <title>rules</title>
    <desc>Created with Sketch.</desc>
    <defs></defs>
    <g id="Page-1" stroke="none" stroke-width="1" fill="none" fill-rule="evenodd">
        <g id="rules" transform="translate(-3.000000, -4.000000)" fill-rule="nonzero" fill="#222222">
            <g id="Group" transform="translate(3.000000, 4.000000)">
                <path d="M0.9,1.6 C0.9,0.8 1.6,0.1 2.4,0.1 L33.9,0.1 C34.7,0.1 35.4,0.8 35.4,1.6 L35.4,31.7 C35.4,32.5 34.7,33.2 33.9,33.2 L2.4,33.2 C1.6,33.2 0.9,32.5 0.9,31.7 L0.9,1.6 Z M2.4,30.3 C2.4,31.1 3.1,31.8 3.9,31.8 L32.3,31.8 C33.1,31.8 33.8,31.1 33.8,30.3 L33.8,3.8 C32.8,3.8 3.4,3.8 2.3,3.8 L2.3,30.3 L2.4,30.3 Z M3.6,1.4 C3.3,1.4 3,1.6 3,2 C3,2.3 3.3,2.6 3.6,2.6 C3.9,2.6 4.2,2.4 4.2,2 C4.1,1.7 3.9,1.4 3.6,1.4 Z M5.5,1.4 C5.2,1.4 4.9,1.6 4.9,2 C4.9,2.3 5.2,2.6 5.5,2.6 C5.8,2.6 6.1,2.4 6.1,2 C6.1,1.7 5.8,1.4 5.5,1.4 Z M7.4,1.4 C7.1,1.4 6.8,1.6 6.8,2 C6.8,2.3 7.1,2.6 7.4,2.6 C7.7,2.6 8,2.4 8,2 C8,1.7 7.7,1.4 7.4,1.4 Z M10.5,2.4 C10.5,2.6 10.7,2.8 10.9,2.8 L25.5,2.8 C25.7,2.8 25.9,2.6 25.9,2.4 L25.9,1.7 C25.9,1.5 25.7,1.3 25.5,1.3 L10.8,1.3 C10.6,1.3 10.4,1.5 10.4,1.7 L10.4,2.4 L10.5,2.4 Z M31,30.6 L32.7,29 C32.9,28.9 32.9,28.6 32.7,28.5 C32.5,28.4 32.3,28.4 32.2,28.5 L30.5,30.1 C30.3,30.2 30.3,30.5 30.5,30.6 C30.6,30.7 30.7,30.7 30.8,30.7 C30.8,30.7 30.9,30.7 31,30.6 Z M32.2,31 L33.1,30.1 C33.3,30 33.3,29.7 33.1,29.6 C32.9,29.5 32.7,29.5 32.6,29.6 L31.7,30.5 C31.5,30.6 31.5,30.9 31.7,31 C31.8,31.1 31.9,31.1 32,31.1 C32.1,31.1 32.1,31.1 32.2,31 Z" id="Shape"></path>
                <rect id="Rectangle-path" x="8" y="9.6" width="20.7" height="1"></rect>
                <rect id="Rectangle-path" x="8" y="14.4" width="20.7" height="1"></rect>
                <rect id="Rectangle-path" x="8" y="19.5" width="20.7" height="1"></rect>
                <rect id="Rectangle-path" x="8" y="24.3" width="20.7" height="1"></rect>
            </g>
        </g>
    </g>
</svg>