<?xml version="1.0" encoding="UTF-8"?>
<svg width="32px" height="41px" viewBox="0 0 32 41" version="1.1" xmlns="http://www.w3.org/2000/svg" xmlns:xlink="http://www.w3.org/1999/xlink">
    <!-- Generator: Sketch 44.1 (41455) - http://www.bohemiancoding.com/sketch -->
    <title>rules</title>
    <desc>Created with Sketch.</desc>
    <defs></defs>
    <g id="Page-1" stroke="none" stroke-width="1" fill="none" fill-rule="evenodd">
        <g id="rules" transform="translate(-5.000000, 0.000000)" fill-rule="nonzero" fill="#222222">
            <g id="Group" transform="translate(5.000000, 0.000000)">
                <path d="M18.9,11.7 L0.2,0.9 L0.2,40.5 L18,40.5 L32,40.5 L32,22.5 L18.9,17.1 L18.9,11.7 Z M7.7,29.7 L11.4,29.7 L11.4,31.5 L7.7,31.5 L7.7,29.7 Z M2.1,29.7 L5.8,29.7 L5.8,31.5 L2.1,31.5 L2.1,29.7 Z M7.7,26.1 L11.4,26.1 L11.4,27.9 L7.7,27.9 L7.7,26.1 Z M2.1,26.1 L5.8,26.1 L5.8,27.9 L2.1,27.9 L2.1,26.1 Z M7.7,22.5 L11.4,22.5 L11.4,24.3 L7.7,24.3 L7.7,22.5 Z M2.1,22.5 L5.8,22.5 L5.8,24.3 L2.1,24.3 L2.1,22.5 Z M7.7,18.9 L11.4,18.9 L11.4,20.7 L7.7,20.7 L7.7,18.9 Z M2.1,18.9 L5.8,18.9 L5.8,20.7 L2.1,20.7 L2.1,18.9 Z M7.7,15.3 L11.4,15.3 L11.4,17.1 L7.7,17.1 L7.7,15.3 Z M7.7,11.7 L11.4,11.7 L11.4,13.5 L7.7,13.5 L7.7,11.7 Z M2.1,15.3 L5.8,15.3 L5.8,17.1 L2.1,17.1 L2.1,15.3 Z M13.3,18.9 L17,18.9 L17,20.7 L13.3,20.7 L13.3,18.9 Z M13.3,15.3 L17,15.3 L17,17.1 L13.3,17.1 L13.3,15.3 Z M13.3,22.5 L17,22.5 L17,24.3 L13.3,24.3 L13.3,22.5 Z M13.3,26.1 L17,26.1 L17,27.9 L13.3,27.9 L13.3,26.1 Z M13.3,29.7 L17,29.7 L17,31.5 L13.3,31.5 L13.3,29.7 Z M7.7,33.3 L11.4,33.3 L11.4,35.1 L7.7,35.1 L7.7,33.3 Z M2.1,33.3 L5.8,33.3 L5.8,35.1 L2.1,35.1 L2.1,33.3 Z M13.3,33.3 L17,33.3 L17,35.1 L13.3,35.1 L13.3,33.3 Z M20.8,26.1 L24.5,26.1 L24.5,27.9 L20.8,27.9 L20.8,26.1 Z M20.8,22.5 L24.5,22.5 L24.5,24.3 L20.8,24.3 L20.8,22.5 Z M20.8,29.7 L24.5,29.7 L24.5,31.5 L20.8,31.5 L20.8,29.7 Z M20.8,33.3 L24.5,33.3 L24.5,35.1 L20.8,35.1 L20.8,33.3 Z M26.4,26.1 L30.1,26.1 L30.1,27.9 L26.4,27.9 L26.4,26.1 Z M26.4,29.7 L30.1,29.7 L30.1,31.5 L26.4,31.5 L26.4,29.7 Z M26.4,33.3 L30.1,33.3 L30.1,35.1 L26.4,35.1 L26.4,33.3 Z M7.7,36.9 L11.4,36.9 L11.4,38.7 L7.7,38.7 L7.7,36.9 Z M2.1,36.9 L5.8,36.9 L5.8,38.7 L2.1,38.7 L2.1,36.9 Z M13.3,36.9 L17,36.9 L17,38.7 L13.3,38.7 L13.3,36.9 Z M20.8,36.9 L24.5,36.9 L24.5,38.7 L20.8,38.7 L20.8,36.9 Z M26.4,36.9 L30.1,36.9 L30.1,38.7 L26.4,38.7 L26.4,36.9 Z M2.1,11.7 L5.8,11.7 L5.8,13.5 L2.1,13.5 L2.1,11.7 Z M2.1,8.1 L5.8,8.1 L5.8,9.9 L2.1,9.9 L2.1,8.1 Z" id="Shape"></path>
            </g>
        </g>
    </g>
</svg>