<svg xmlns="http://www.w3.org/2000/svg" viewBox="0 0 20.71 20.7"><defs><style>.cls-1{fill:#fff;}</style></defs><title>donut</title><g id="Layer_2" data-name="Layer 2"><g id="Content"><path class="cls-1" d="M4,9.61A6.42,6.42,0,0,1,9.52,4V0A10.37,10.37,0,0,0,0,9.61Z"/><path class="cls-1" d="M11.26,4a6.41,6.41,0,0,1,5.48,5.62h4A10.38,10.38,0,0,0,11.26,0Z"/><path class="cls-1" d="M9.52,16.72A6.41,6.41,0,0,1,4,11.34H0A10.39,10.39,0,0,0,9.52,20.7Z"/><path class="cls-1" d="M16.7,11.34a6.41,6.41,0,0,1-5.44,5.37v4a10.39,10.39,0,0,0,9.44-9.36Z"/></g></g></svg>