<?xml version="1.0" encoding="utf-8"?>
<!-- Generator: Adobe Illustrator 19.1.0, SVG Export Plug-In . SVG Version: 6.00 Build 0)  -->
<svg version="1.1" id="Layer_1" xmlns="http://www.w3.org/2000/svg" xmlns:xlink="http://www.w3.org/1999/xlink" x="0px" y="0px"
	 viewBox="0 0 13.891 19.709" style="enable-background:new 0 0 13.891 19.709;" xml:space="preserve">
<style type="text/css">
	.st0{fill:#D0D2D3;}
	.st1{fill:#333333;}
	.st2{fill:#D0D0D0;}
	.st3{fill:#222222;}
	.st4{fill:#F16A22;}
	.st5{fill:#629ACC;}
	.st6{fill:#6FBE4A;}
	.st7{fill:#76DFFF;}
	.st8{fill:#FFFFFF;}
	.st9{fill:none;stroke:#000000;stroke-miterlimit:10;}
	.st10{fill:#D22027;}
	.st11{fill:#FFBD48;}
	.st12{fill:#A2E264;}
</style>
<g>
	<path class="st8" d="M13.818,9.666c0,0.804,0.042,1.611-0.008,2.412c-0.135,2.146-1.841,4.074-3.991,4.565
		c-3.057,0.698-5.976-1.223-6.475-4.265c-0.039-0.24-0.052-0.485-0.053-0.728c-0.005-1.176-0.008-2.353-0.001-3.529
		c0.007-1.12,0.941-1.997,2.085-1.971c1.07,0.024,1.949,0.916,1.955,1.995c0.007,1.158-0.002,2.316,0.003,3.474
		c0.003,0.702,0.582,1.246,1.283,1.221c0.631-0.022,1.174-0.534,1.179-1.176c0.01-1.322,0.038-2.647-0.033-3.966
		c-0.102-1.887-1.728-3.578-3.643-3.89C3.591,3.396,1.323,4.963,0.873,7.438C0.834,7.652,0.821,7.874,0.82,8.092
		c-0.005,1.219-0.014,2.438,0.001,3.657c0.041,3.418,2.392,6.333,5.779,7.178c0.03,0.008,0.06,0.015,0.09,0.023
		c0.257,0.065,0.397,0.261,0.343,0.482c-0.051,0.211-0.279,0.327-0.539,0.257c-3.308-0.897-5.402-2.967-6.268-6.213
		c-0.167-0.627-0.222-1.272-0.223-1.92c-0.002-1.134-0.005-2.267,0-3.401c0.011-2.602,1.927-4.76,4.557-5.141
		c2.775-0.402,5.485,1.537,5.919,4.239c0.044,0.276,0.074,0.557,0.076,0.836c0.008,1.188,0.011,2.377,0.002,3.565
		c-0.009,1.1-0.94,1.973-2.065,1.955c-1.081-0.018-1.969-0.909-1.975-1.994C6.512,10.45,6.521,9.286,6.514,8.122
		c-0.004-0.69-0.585-1.227-1.28-1.205c-0.623,0.02-1.172,0.521-1.179,1.155c-0.014,1.328-0.043,2.659,0.032,3.984
		c0.107,1.904,1.73,3.584,3.658,3.894c2.426,0.39,4.637-1.056,5.179-3.398c0.067-0.289,0.099-0.591,0.102-0.887
		c0.011-1.207,0.016-2.414,0.002-3.62c-0.041-3.464-2.401-6.399-5.832-7.269C7.159,0.769,7.122,0.761,7.087,0.75
		C6.868,0.683,6.74,0.483,6.79,0.29c0.053-0.207,0.264-0.331,0.497-0.277C7.51,0.064,7.735,0.12,7.951,0.197
		c3.252,1.159,5.205,3.401,5.776,6.735c0.153,0.894,0.114,1.82,0.164,2.732C13.866,9.664,13.842,9.665,13.818,9.666z"/>
	<path class="st8" d="M1.642,9.997c0-0.737-0.036-1.476,0.007-2.211c0.092-1.565,1.462-2.969,3.052-3.175
		c2.038-0.264,3.8,0.997,4.153,2.978c0.033,0.185,0.046,0.376,0.046,0.564c0.004,1.133,0.002,2.267,0.002,3.4
		c0,0.037,0.002,0.073-0.003,0.11C8.874,11.865,8.724,12,8.527,12.003c-0.208,0.003-0.367-0.132-0.388-0.343
		c-0.012-0.121-0.005-0.244-0.005-0.365c0-1.048,0.008-2.096-0.002-3.144c-0.014-1.425-1.01-2.552-2.444-2.783
		C4.182,5.125,2.67,6.221,2.469,7.703C2.446,7.878,2.433,8.055,2.433,8.231c-0.003,1.133-0.008,2.267,0,3.4
		c0.018,2.737,1.855,5.076,4.559,5.788c1.565,0.412,3.063,0.21,4.488-0.537c0.055-0.029,0.108-0.06,0.163-0.09
		c0.227-0.123,0.415-0.095,0.523,0.079c0.13,0.209,0.085,0.452-0.145,0.564c-0.422,0.206-0.845,0.424-1.29,0.572
		c-3.915,1.304-8.14-1.064-8.959-5.024c-0.099-0.48-0.123-0.978-0.146-1.47C1.601,11.01,1.62,10.503,1.62,9.997
		C1.627,9.997,1.635,9.997,1.642,9.997z"/>
	<path class="st8" d="M12.206,9.761c0,0.731,0.034,1.464-0.007,2.193c-0.089,1.584-1.466,2.994-3.075,3.194
		c-2.031,0.253-3.791-1.016-4.134-2.982c-0.028-0.162-0.043-0.327-0.043-0.491C4.943,10.51,4.944,9.346,4.945,8.182
		c0-0.066,0.008-0.136,0.033-0.196c0.068-0.166,0.201-0.244,0.384-0.229C5.536,7.77,5.652,7.863,5.693,8.03
		c0.019,0.076,0.019,0.157,0.019,0.236c0.001,1.109-0.005,2.219,0.002,3.328c0.009,1.357,0.916,2.464,2.248,2.763
		c1.588,0.356,3.213-0.748,3.419-2.325c0.022-0.169,0.034-0.34,0.034-0.51c0.003-1.128,0.007-2.255,0-3.383
		c-0.017-2.749-1.849-5.087-4.567-5.802C5.228,1.91,3.686,2.144,2.23,2.95c-0.221,0.122-0.354,0.12-0.493-0.01
		c-0.202-0.19-0.168-0.497,0.105-0.625c0.504-0.236,1.008-0.492,1.54-0.647c3.862-1.121,7.888,1.245,8.694,5.105
		c0.101,0.486,0.122,0.991,0.146,1.488c0.024,0.499,0.005,0.999,0.005,1.499C12.221,9.761,12.214,9.761,12.206,9.761z"/>
</g>
</svg>
