<?xml version="1.0" encoding="utf-8"?>
<!-- Generator: Adobe Illustrator 19.1.0, SVG Export Plug-In . SVG Version: 6.00 Build 0)  -->
<svg version="1.1" id="Layer_1" xmlns="http://www.w3.org/2000/svg" xmlns:xlink="http://www.w3.org/1999/xlink" x="0px" y="0px"
	 viewBox="0 0 32 32" style="enable-background:new 0 0 32 32;" xml:space="preserve">
<style type="text/css">
	.st0{fill:#D0D2D3;}
	.st1{fill:#333333;}
	.st2{fill:#D0D0D0;}
	.st3{fill:#222222;}
	.st4{fill:#F16A22;}
	.st5{fill:#629ACC;}
	.st6{fill:#6FBE4A;}
	.st7{fill:#76DFFF;}
	.st8{fill:#FFFFFF;}
	.st9{fill:none;stroke:#000000;stroke-miterlimit:10;}
	.st10{fill:#D22027;}
	.st11{fill:#FFBD48;}
	.st12{fill:#A2E264;}
</style>
<g>
	<rect x="10.758" y="10.757" class="st8" width="10.485" height="10.485"/>
	<path class="st8" d="M5.243,26.757h21.515V5.242H5.243V26.757z M9.328,9.328h13.277v13.277H9.328V9.328z"/>
	<rect x="7.898" y="0" class="st8" width="1.43" height="2.86"/>
	<rect x="11.643" y="0" class="st8" width="1.43" height="2.86"/>
	<rect x="15.319" y="0" class="st8" width="1.43" height="2.86"/>
	<rect x="18.996" y="0" class="st8" width="1.43" height="2.86"/>
	<rect x="22.672" y="0" class="st8" width="1.43" height="2.86"/>
	<rect x="7.898" y="29.14" class="st8" width="1.43" height="2.86"/>
	<rect x="11.643" y="29.14" class="st8" width="1.43" height="2.86"/>
	<rect x="15.319" y="29.14" class="st8" width="1.43" height="2.86"/>
	<rect x="18.996" y="29.14" class="st8" width="1.43" height="2.86"/>
	<rect x="22.672" y="29.14" class="st8" width="1.43" height="2.86"/>
	<rect x="29.141" y="7.898" class="st8" width="2.86" height="1.43"/>
	<rect x="29.141" y="11.574" class="st8" width="2.86" height="1.43"/>
	<rect x="29.141" y="15.319" class="st8" width="2.86" height="1.43"/>
	<rect x="29.141" y="18.996" class="st8" width="2.86" height="1.43"/>
	<rect x="29.141" y="22.672" class="st8" width="2.86" height="1.43"/>
	<rect x="0" y="7.898" class="st8" width="2.86" height="1.43"/>
	<rect x="0" y="11.574" class="st8" width="2.86" height="1.43"/>
	<rect x="0" y="15.319" class="st8" width="2.86" height="1.43"/>
	<rect x="0" y="18.996" class="st8" width="2.86" height="1.43"/>
	<rect x="0" y="22.672" class="st8" width="2.86" height="1.43"/>
</g>
</svg>
