<?xml version="1.0" encoding="utf-8"?>
<!-- Generator: Adobe Illustrator 19.1.0, SVG Export Plug-In . SVG Version: 6.00 Build 0)  -->
<svg version="1.1" id="Layer_1" xmlns="http://www.w3.org/2000/svg" xmlns:xlink="http://www.w3.org/1999/xlink" x="0px" y="0px"
	 viewBox="0 0 38 31.241" style="enable-background:new 0 0 38 31.241;" xml:space="preserve">
<style type="text/css">
	.st0{fill:#D0D2D3;}
	.st1{fill:#333333;}
	.st2{fill:#D0D0D0;}
	.st3{fill:#222222;}
	.st4{fill:#F16A22;}
	.st5{fill:#629ACC;}
	.st6{fill:#6FBE4A;}
	.st7{fill:#76DFFF;}
	.st8{fill:#FFFFFF;}
	.st9{fill:none;stroke:#000000;stroke-miterlimit:10;}
	.st10{fill:#D22027;}
	.st11{fill:#FFBD48;}
	.st12{fill:#A2E264;}
</style>
<path class="st8" d="M37.484,30.348v-6.293l-3.486-0.973L33.492,8.835h0.107V8.508H31.71v0.327h0.107l-0.48,13.504L28.08,21.43
	v-5.041l-1.653-0.748v-2.29h-1.095v1.795l-3.656-1.655l-1.058,0.448L20.138,0.393h0.158V0h-2.592v0.393h0.158L17.38,13.939
	l-1.058-0.448l-6.403,2.898v5.041l-3.256,0.909L6.182,8.835h0.107V8.508H4.4v0.327h0.107L4.001,23.082l-3.486,0.973v6.293H0v0.893
	h14.312h9.376H38v-0.893H37.484z M3.91,27.834H2.922V26.7H3.91V27.834z M5.834,27.834H4.847V26.7h0.987V27.834z M7.76,27.834H6.773
	V26.7H7.76V27.834z M9.684,27.834H8.697V26.7h0.987V27.834z M17.568,25.622h-0.987v-1.134h0.987V25.622z M17.568,21.095h-0.987
	v-1.134h0.987V21.095z M17.568,18.883h-0.987v-1.134h0.987V18.883z M18.506,17.749h0.987v1.134h-0.987V17.749z M18.506,19.961h0.987
	v1.134h-0.987V19.961z M18.506,24.488h0.987v1.134h-0.987V24.488z M19.586,30.524h-1.173v-2.12h1.173V30.524z M21.419,25.622h-0.987
	v-1.134h0.987V25.622z M21.419,21.095h-0.987v-1.134h0.987V21.095z M21.419,18.883h-0.987v-1.134h0.987V18.883z M29.302,27.834
	h-0.987V26.7h0.987V27.834z M31.227,27.834H30.24V26.7h0.987V27.834z M33.152,27.834h-0.987V26.7h0.987V27.834z M35.077,27.834
	H34.09V26.7h0.987V27.834z"/>
</svg>
