<?xml version="1.0" encoding="utf-8"?>
<!-- Generator: Adobe Illustrator 19.1.0, SVG Export Plug-In . SVG Version: 6.00 Build 0)  -->
<svg version="1.1" xmlns="http://www.w3.org/2000/svg" xmlns:xlink="http://www.w3.org/1999/xlink" x="0px" y="0px"
	 viewBox="0 0 15.4 15.4" style="enable-background:new 0 0 15.4 15.4;" xml:space="preserve">
<style type="text/css">
	.st0{fill:#FFFFFF;}
	.st1{fill:#333333;}
	.st2{fill:#D0D2D3;}
	.st3{opacity:0.7;}
	.st4{opacity:0.7;fill:#FFFFFF;}
</style>
<g id="Layer_1">
	<g>
		<path class="st0" d="M13.1,2.1l-2,2.4c0.8,0.8,1.3,1.9,1.3,3.1c0,0.3,0,0.6-0.1,1l3,0.9c0.2-0.6,0.2-1.2,0.2-1.9
			C15.4,5.5,14.5,3.5,13.1,2.1z"/>
		<path class="st0" d="M5.6,3.7C6.2,3.4,7,3.2,7.7,3.2c0.9,0,1.8,0.3,2.5,0.8l2-2.4C11,0.6,9.4,0,7.7,0C6.3,0,5,0.4,3.9,1L5.6,3.7z"
			/>
		<path class="st0" d="M11.8,9.6c-0.7,1.4-2,2.5-3.7,2.6v3.2c3.1-0.2,5.7-2.1,6.8-4.8L11.8,9.6z"/>
		<path class="st0" d="M7.1,12.2C4.8,11.9,3.2,10,3.2,7.7c0-1.4,0.6-2.6,1.6-3.4L3,1.6C1.2,3,0,5.2,0,7.7c0,4,3.1,7.4,7.1,7.7V12.2z
			"/>
	</g>
</g>
<g id="Content">
</g>
</svg>
