<svg id="Layer_1" data-name="Layer 1" xmlns="http://www.w3.org/2000/svg" viewBox="0 0 28 28"><defs><style>.cls-1{fill:#e7e7e7;}</style></defs><title>ico-tenant</title><path class="cls-1" d="M896-35.47a14,14,0,0,1-14,14,14,14,0,0,1-14-14,14,14,0,0,1,14-14,14,14,0,0,1,14,14" transform="translate(-868.05 49.47)"/><path d="M888-41.47H876.1c-0.37,0-.63-0.17-0.63.2v2.64c0,0.37.26,0.16,0.63,0.16H888c0.37,0,.48.2,0.48-0.16v-2.64c0-.36-0.12-0.2-0.48-0.2m-0.66,2.19H886V-40.6h1.33v1.32Z" transform="translate(-868.05 49.47)"/><path d="M888-36.47H876.1a0.51,0.51,0,0,0-.63.49v2.64a0.85,0.85,0,0,0,.63.87h5.37v1.29a1.72,1.72,0,0,1-.56.71h-2.44v1h2.44a4.43,4.43,0,0,0,1.14.66,4.43,4.43,0,0,0,1.14-.66h3.28v-1h-3.28a2.11,2.11,0,0,1-.72-0.71v-1.29H888c0.37,0,.47-0.51.47-0.87V-36a0.4,0.4,0,0,0-.48-0.49M887.33-34H886v-1.32h1.33V-34Z" transform="translate(-868.05 49.47)"/></svg>