<?xml version="1.0" encoding="utf-8"?>
<!-- Generator: Adobe Illustrator 19.1.0, SVG Export Plug-In . SVG Version: 6.00 Build 0)  -->
<svg version="1.1" xmlns="http://www.w3.org/2000/svg" xmlns:xlink="http://www.w3.org/1999/xlink" x="0px" y="0px"
	 viewBox="0 0 18 18" style="enable-background:new 0 0 18 18;" xml:space="preserve">
<style type="text/css">
	.st0{fill:#FFFFFF;}
	.st1{fill:#333333;}
	.st2{fill:#D0D2D3;}
	.st3{opacity:0.7;}
	.st4{opacity:0.7;fill:#FFFFFF;}
</style>
<g id="Layer_1">
</g>
<g id="Content">
	<g>
		<g class="st3">
			<path class="st0" d="M16.4,0H1.6C0.7,0,0,0.7,0,1.6v14.8C0,17.3,0.7,18,1.6,18h14.8c0.9,0,1.6-0.7,1.6-1.6V1.6
				C18,0.7,17.2,0,16.4,0z M16.2,15.9c0,0.1-0.1,0.2-0.2,0.2H2c-0.1,0-0.2-0.1-0.2-0.2V2.1C1.8,2,1.9,1.9,2,1.9h14
				c0.1,0,0.2,0.1,0.2,0.2V15.9z"/>
		</g>
		<g class="st3">
			<rect x="3.1" y="12.5" class="st0" width="2.5" height="2.3"/>
			<rect x="6.2" y="9.6" class="st0" width="2.5" height="5.2"/>
			<rect x="9.3" y="4.4" class="st0" width="2.5" height="10.4"/>
			<rect x="12.4" y="7.7" class="st0" width="2.5" height="7.1"/>
		</g>
	</g>
</g>
</svg>
