<?xml version="1.0" encoding="UTF-8"?>
<svg width="24px" height="26px" viewBox="0 0 24 26" version="1.1" xmlns="http://www.w3.org/2000/svg" xmlns:xlink="http://www.w3.org/1999/xlink">
    <!-- Generator: Sketch 41.2 (35397) - http://www.bohemiancoding.com/sketch -->
    <title>Remodel - White</title>
    <desc>Created with Sketch.</desc>
    <defs></defs>
    <g id="Other" stroke="none" stroke-width="1" fill="none" fill-rule="evenodd">
        <g id="Remodel---White" fill="#FFFFFF">
            <path d="M23.6250411,6.51786301 C23.3750137,6.268 23.0715616,6.14290411 22.7145205,6.14290411 L17.1427397,6.14290411 C16.6071781,6.14290411 16.0356164,6.32142466 15.4285479,6.67863014 L15.4285479,2.28580822 C15.4285479,1.92860274 15.3036164,1.62482192 15.053589,1.3749589 C14.8035616,1.12509589 14.5001096,1 14.1427397,1 L8.57145205,1 C8.21424658,1 7.82136986,1.08926027 7.39282192,1.26778082 C6.96427397,1.44630137 6.6249863,1.66065753 6.3749589,1.91068493 L0.910684932,7.3749589 C0.660657534,7.6249863 0.44630137,7.96427397 0.267780822,8.39282192 C0.089260274,8.82153425 0,9.21424658 0,9.57145205 L0,18.5714521 C0,18.9288219 0.124931507,19.2324384 0.374958904,19.4823014 C0.624986301,19.7323288 0.92860274,19.8572603 1.28564384,19.8572603 L8.57145205,19.8572603 L8.57145205,23.7145205 C8.57145205,24.0715616 8.69638356,24.3751781 8.94641096,24.6250411 C9.19627397,24.8750685 9.49989041,25 9.85709589,25 L22.7145205,25 C23.0715616,25 23.3751781,24.8750685 23.6250411,24.6250411 C23.8750685,24.3751781 24,24.0715616 24,23.7145205 L24,7.42871233 C24,7.07150685 23.8750685,6.76789041 23.6250411,6.51786301 L23.6250411,6.51786301 Z M15.4285479,8.99561644 L15.4285479,13 L11.4241644,13 L15.4285479,8.99561644 L15.4285479,8.99561644 Z M6.85709589,3.85271233 L6.85709589,7.85709589 L2.85271233,7.85709589 L6.85709589,3.85271233 L6.85709589,3.85271233 Z M9.48213699,12.517863 C9.23210959,12.7678904 9.01775342,13.1071781 8.83923288,13.5358904 C8.66071233,13.9646027 8.57145205,14.3571507 8.57145205,14.7145205 L8.57145205,18.1427397 L1.71435616,18.1427397 L1.71435616,9.57145205 L7.28564384,9.57145205 C7.64284932,9.57145205 7.94646575,9.44652055 8.19649315,9.19649315 C8.44635616,8.94646575 8.57145205,8.64284932 8.57145205,8.28580822 L8.57145205,2.71435616 L13.7145205,2.71435616 L13.7145205,8.28580822 L9.48213699,12.517863 L9.48213699,12.517863 Z M22.2854795,23.2858082 L10.2854795,23.2858082 L10.2854795,14.7141918 L15.8570959,14.7141918 C16.214137,14.7141918 16.517589,14.5892603 16.7676164,14.3392329 C17.0176438,14.0893699 17.1425753,13.7857534 17.1425753,13.4287123 L17.1425753,7.85709589 L22.2853151,7.85709589 L22.2853151,23.2858082 L22.2854795,23.2858082 Z" id="Copy-Icon"></path>
        </g>
    </g>
</svg>