<?xml version="1.0" encoding="UTF-8"?>
<svg width="24px" height="24px" viewBox="0 0 24 24" version="1.1" xmlns="http://www.w3.org/2000/svg" xmlns:xlink="http://www.w3.org/1999/xlink">
    <!-- Generator: Sketch 45.1 (43504) - http://www.bohemiancoding.com/sketch -->
    <title>preview-icon</title>
    <desc>Created with Sketch.</desc>
    <defs></defs>
    <g id="All-NEW" stroke="none" stroke-width="1" fill="none" fill-rule="evenodd">
        <g id="preview-icon" fill="#333333">
            <path d="M0,5.5019389 L0,1.10688494 C0,0.49664082 0.479798427,0.00215223856 1.07296173,0.00215223856 L1.0855598,0.00215223856 L1.08451,0.00106919445 L5.35007229,0.00106919445 L5.35007229,1.61001294 L1.56425521,1.61001294 L1.56425521,5.50204692 L0,5.5019389 Z M18.6613959,1.61322883 L22.4378062,1.61322883 L22.4378062,5.51495758 L24,5.51495758 L24,1.11879565 L23.9989491,1.11879565 C23.9989491,1.11446901 24,1.11013961 24,1.10581297 C24,0.495568856 23.5202016,-4.79616347e-14 22.9280865,-4.79616347e-14 L18.6614496,0.00108027418 L18.6613959,1.61322883 Z M5.33766343,22.3877323 L1.56125311,22.3877323 L1.56125311,18.4860036 L0.000106699516,18.4860036 L0.000106699516,22.8810575 L0.00115649374,22.8810575 C0.00115649374,22.8853842 0.000106699516,22.8886305 0.000106699516,22.8940402 C0.000106699516,23.5042854 0.479905126,23.998774 1.07202025,23.998774 L5.3375828,23.998774 L5.33766343,22.3877323 Z M22.434581,18.4990223 L22.434581,22.3910563 L18.649839,22.3910563 L18.649839,24 L22.9143257,24 L22.9143257,23.9989181 C22.9185238,23.9989181 22.9227246,24 22.9269227,24 C23.5190378,24 23.9988362,23.5055114 23.9988362,22.8952673 L23.9988362,18.4991054 L22.434581,18.4990223 Z M23.859248,12.0004806 L17.9297651,17.5198507 C14.6540631,20.5689938 9.34515748,20.5689938 6.06945278,17.5198507 L0.139970682,12.0004806 L6.06945278,6.48111049 C9.34515479,3.43307534 14.6540604,3.43307534 17.9297651,6.48111049 L23.859248,12.0004806 Z M16.5628261,7.75361808 C14.0421132,5.40781655 9.9571343,5.40781655 7.43638915,7.75361808 C4.91567356,10.0994196 4.91567356,13.9025941 7.43638915,16.2473431 C9.95605655,18.5931446 14.0420836,18.5931446 16.5628261,16.2473431 C19.0835712,13.9015415 19.0835416,10.098367 16.5628261,7.75361808 Z M15.5234599,12.0004806 C15.5234599,14.006522 13.9465674,15.6315868 11.9991534,15.6315868 C10.052707,15.6315868 8.4748442,14.0064112 8.4748442,12.0004806 C8.4748442,9.99454992 10.0527876,8.36826639 11.9991534,8.36826639 C13.9466453,8.36826639 15.5234599,9.99452223 15.5234599,12.0004806 Z M13.9035382,10.4153306 C13.9035382,10.1891904 13.8237474,9.98360869 13.6967158,9.82023799 C13.6452716,9.98578585 13.4972415,10.1069815 13.3198273,10.1069815 C13.1004053,10.1069815 12.9219214,9.92304131 12.9219214,9.69689284 C12.9219214,9.60924936 12.9492172,9.52809861 12.9954124,9.46101636 C12.9891126,9.46101636 12.9828127,9.45885304 12.9765129,9.45885304 C12.464194,9.45885304 12.0484421,9.8873341 12.0484421,10.4142586 C12.0484421,10.9422634 12.464194,11.3707444 12.9765129,11.3707444 C13.4877836,11.3718247 13.9035355,10.9433437 13.9035355,10.4153389 L13.9035382,10.4153306 Z" id="Page-1"></path>
        </g>
    </g>
</svg>