<?xml version="1.0" encoding="UTF-8"?>
<svg width="24px" height="24px" viewBox="0 0 24 24" version="1.1" xmlns="http://www.w3.org/2000/svg" xmlns:xlink="http://www.w3.org/1999/xlink">
    <!-- Generator: Sketch 45.1 (43504) - http://www.bohemiancoding.com/sketch -->
    <title>targets-icon</title>
    <desc>Created with Sketch.</desc>
    <defs></defs>
    <g id="All-NEW" stroke="none" stroke-width="1" fill="none" fill-rule="evenodd">
        <g id="targets-icon" fill="#333333">
            <path d="M19.9238404,-0.000239868168 C19.847902,-0.000239868168 19.7972788,0.0250729318 19.7466532,0.0756985318 L16.8611332,2.96121853 C16.6080052,3.21528253 16.5067492,3.94934653 16.5067492,3.94934653 L16.6333108,5.87309053 L15.5955028,6.91089853 L13.7214388,8.78402653 L13.6708132,8.83465213 L11.8736212,10.6327801 L11.0636212,11.4427801 C10.96237,11.5440289 10.886434,11.6959081 10.886434,11.8477801 L10.8358084,12.4805881 C10.7851828,12.8349721 11.0889364,13.1640361 11.4432964,13.1640361 L11.493922,13.1640361 L12.15205,13.1134105 C12.3039244,13.1134105 12.455794,13.0627849 12.55705,12.9362233 L13.36705,12.1515433 L15.190498,10.3290313 L15.2158108,10.2784057 L17.0889388,8.40434173 L18.2280028,7.26527773 L20.0505148,7.41715213 C20.0505148,7.41715213 20.7086428,7.26527773 20.9373868,7.03747213 L23.8229068,4.15195213 C23.9747764,4.00007773 23.8735324,3.74695213 23.6710324,3.72163213 L21.9244804,3.59507053 L22.5572884,2.96132653 C22.8357364,2.65758253 22.8357364,2.17664653 22.5572884,1.89819853 L22.1016724,1.44258253 C21.9751108,1.31602093 21.7726084,1.24008253 21.5954164,1.24008253 C21.3929164,1.24008253 21.2157364,1.31602093 21.0629044,1.44258253 L20.3288404,2.17664653 L20.176966,0.227582532 C20.176966,0.0757081318 20.0504044,-0.000230268168 19.923838,-0.000230268168 L19.9238404,-0.000239868168 Z M10.7851204,2.42976013 C4.83576036,2.42976013 0,7.26528013 0,13.2148801 C0,19.1644801 4.83552036,24 10.7851204,24 C16.7599204,24 21.5954404,19.1644801 21.5954404,13.2148801 C21.5954404,11.3923681 21.1398244,9.64584013 20.3288884,8.15136013 L19.8985684,8.15136013 L18.5316964,8.05010893 L17.5445044,9.03823693 C18.3038884,10.2532369 18.7341844,11.6959969 18.7341844,13.2147169 C18.7341844,17.5947169 15.1651444,21.1395169 10.7851444,21.1395169 C6.40514436,21.1395169 2.86034436,17.5947169 2.86034436,13.2147169 C2.86034436,8.83471693 6.40514436,5.29087693 10.7851444,5.29087693 C12.3292084,5.29087693 13.7467444,5.72119693 14.9625844,6.48055693 L15.8738404,5.56930093 L15.7472788,3.99991693 C15.721966,3.87335533 15.7472788,3.74678893 15.7472788,3.62023693 C14.2528948,2.85991693 12.5821588,2.42962093 10.7850388,2.42962093 L10.7851204,2.42976013 Z M10.7851204,7.89816013 C7.84800036,7.89816013 5.46864036,10.2784801 5.46864036,13.2146401 C5.46864036,16.1517601 7.84802436,18.5311201 10.7851204,18.5311201 C13.7212804,18.5311201 16.1016004,16.1517361 16.1016004,13.2146401 C16.1016004,12.4046401 15.9244132,11.6452561 15.5953444,10.9618321 L15.5700316,11.0124577 L13.5694156,13.0121377 L13.5694156,13.2146377 C13.5694156,14.7587017 12.3290956,15.9998377 10.7849356,15.9998377 C9.24087156,15.9998377 7.99973556,14.7585817 7.99973556,13.2146377 C7.99973556,11.6706937 9.26628756,10.4301577 10.7849356,10.4301577 L11.0127484,10.4301577 L12.9871324,8.42954173 L13.037758,8.40422893 C12.35431,8.07516493 11.59495,7.89797293 10.78495,7.89797293 L10.7851204,7.89816013 Z" id="Page-1"></path>
        </g>
    </g>
</svg>