<?xml version="1.0" encoding="utf-8"?>
<!-- Generator: Adobe Illustrator 19.1.0, SVG Export Plug-In . SVG Version: 6.00 Build 0)  -->
<svg version="1.1" xmlns="http://www.w3.org/2000/svg" xmlns:xlink="http://www.w3.org/1999/xlink" x="0px" y="0px"
	 viewBox="0 0 20 17.9" style="enable-background:new 0 0 20 17.9;" xml:space="preserve">
<style type="text/css">
	.st0{fill:#FFFFFF;}
	.st1{fill:#333333;}
	.st2{fill:#D0D2D3;}
	.st3{opacity:0.7;}
	.st4{opacity:0.7;fill:#FFFFFF;}
</style>
<g id="Layer_1">
	<g>
		<g>
			<g>
				<path class="st0" d="M17.7,17.9H2.3c-0.9,0-1.6-0.4-2-1c-0.4-0.6-0.3-1.5,0.1-2.2L8.1,1.2C8.6,0.5,9.3,0,10,0
					c0.7,0,1.4,0.5,1.9,1.2l7.7,13.4c0.5,0.8,0.5,1.6,0.1,2.2C19.4,17.5,18.7,17.9,17.7,17.9z M10,1.6c-0.1,0-0.3,0.1-0.5,0.4
					L1.8,15.5c-0.2,0.3-0.2,0.5-0.1,0.6c0.1,0.1,0.3,0.2,0.6,0.2h15.5c0.3,0,0.5-0.1,0.6-0.2c0.1-0.1,0-0.3-0.1-0.6L10.5,2.1
					C10.3,1.8,10.1,1.6,10,1.6z"/>
			</g>
		</g>
		<path class="st0" d="M9,10.7c0,0.4,0.1,0.8,0.2,1c0.1,0.3,0.4,0.4,0.7,0.4c0.3,0,0.6-0.2,0.7-0.4c0.1-0.2,0.2-0.6,0.2-1l0.3-3.3
			c0-0.3,0-0.6,0-0.9c0-0.5-0.1-0.9-0.2-1.2c-0.1-0.2-0.4-0.5-1-0.5c-0.4,0-0.7,0.1-0.9,0.4c-0.2,0.3-0.4,0.6-0.4,1
			c0,0.3,0,0.7,0.1,1.4L9,10.7z"/>
		<path class="st0" d="M10,12.8c-0.3,0-0.6,0.1-0.9,0.4c-0.2,0.2-0.4,0.5-0.4,0.9c0,0.4,0.1,0.7,0.4,0.9c0.2,0.2,0.5,0.3,0.9,0.3
			c0.3,0,0.6-0.1,0.9-0.3c0.3-0.2,0.4-0.5,0.4-0.9c0-0.3-0.1-0.6-0.4-0.9C10.6,13,10.3,12.8,10,12.8z"/>
	</g>
</g>
<g id="Content">
</g>
</svg>
