<?xml version="1.0" encoding="utf-8"?>
<!-- Generator: Adobe Illustrator 20.0.0, SVG Export Plug-In . SVG Version: 6.00 Build 0)  -->
<svg version="1.1" id="Layer_1" xmlns="http://www.w3.org/2000/svg" xmlns:xlink="http://www.w3.org/1999/xlink" x="0px" y="0px"
	 viewBox="0 0 29.3 29" style="enable-background:new 0 0 29.3 29;" xml:space="preserve">
<style type="text/css">
	.st0{fill:none;}
	.st1{fill:#222222;}
</style>
<g>
	<path class="st0" d="M15.6,10h2.1c-0.5-3-2.8-5.4-5.8-6v2.1C13.7,6.7,15.1,8.1,15.6,10z"/>
	<path class="st1" d="M24.2,16.6v8.6H11.8V14.3H18v-1.9h-6.6c-0.4,0-0.8,0.3-0.8,0.8v12.5c0,0.4,0.3,0.8,0.8,0.8h13.3
		c0.4,0,0.8-0.3,0.8-0.8v-9.1L24.2,16.6L24.2,16.6z"/>
	<path class="st1" d="M23.2,10.2v1.5l-1.1-1.1l-0.8,0.8l2.4,2.4l2.5-2.5l-0.8-0.8l-1.2,1.2v-1.5c0-2.2-1-3.3-3.1-3.3H20V8h1.2
		C22.6,8,23.2,8.6,23.2,10.2z"/>
	<path class="st1" d="M14.7,10.6l0.1,0.4h4.1l-0.1-0.6c-0.4-3.9-3.4-7-7.3-7.5l-0.6-0.1v4.1L11.3,7C13,7.4,14.4,8.8,14.7,10.6z
		 M11.9,4c3,0.6,5.3,3,5.8,6h-2.1c-0.5-1.9-1.9-3.3-3.7-3.9V4z"/>
	<path class="st1" d="M9.4,6.5V3.4c-3.7,0.4-6.6,3.4-7,7.1h3.1C5.9,8.5,7.4,6.9,9.4,6.5z"/>
	<path class="st1" d="M5.6,12.5H2.5c0.5,3.6,3.4,6.4,7,6.8v-3.1H9.4C7.5,15.8,6,14.4,5.6,12.5z"/>
</g>
</svg>
