<?xml version="1.0" encoding="UTF-8"?>
<svg width="24px" height="24px" viewBox="0 0 24 24" version="1.1" xmlns="http://www.w3.org/2000/svg" xmlns:xlink="http://www.w3.org/1999/xlink">
    <!-- Generator: Sketch 45.1 (43504) - http://www.bohemiancoding.com/sketch -->
    <title>ratings-icon</title>
    <desc>Created with Sketch.</desc>
    <defs></defs>
    <g id="All-NEW" stroke="none" stroke-width="1" fill="none" fill-rule="evenodd">
        <g id="ratings-icon" fill="#333333">
            <path d="M1.89999998,1.2936902 L1.89999998,22.7063098 C1.89999998,23.4198863 2.47844957,24 3.19335735,24 L18.4800027,21.5038136 C20.596436,21.109749 22.1320898,19.2649008 22.1344196,17.1118569 L22.1344196,1.2936902 C22.1344196,0.580113715 21.55597,0 20.8410622,0 L3.19335735,0 C2.47844957,0 1.89999998,0.580113715 1.89999998,1.2936902 Z M4.48837884,2.59004299 L19.5460407,2.59004299 L19.5460407,17.1118569 C19.4744834,18.0936902 18.658064,18.8528637 17.673901,18.8528637 C16.6897379,18.8528637 15.8733185,18.0936902 15.8017612,17.1118569 C15.8030925,16.1513244 14.7956316,15.5246152 13.9349466,15.9509638 L4.49869641,20.6184995 L4.48837884,2.59004299 Z M14.07673,13.5549577 L14.07673,13.5549577 C13.9802108,13.5589516 13.8840244,13.5393149 13.7971571,13.4977118 L12.0172098,12.5484954 L10.2372625,13.4977118 C9.79527109,13.7303564 9.27905975,13.3559284 9.36359726,12.8633477 L9.70307861,10.8820413 L8.27293022,9.46620441 C7.91547633,9.11773679 8.11417277,8.51199556 8.60708637,8.44043822 L10.6040355,8.15054777 L11.4946748,6.34863403 C11.7143392,5.89865483 12.3553598,5.89865483 12.5750242,6.34863403 L13.4643322,8.15054777 L15.4612814,8.44043822 C15.940882,8.533962 16.1149494,9.12938566 15.7614894,9.46620441 L14.3210234,10.8690612 L14.6601719,12.8503675 C14.7214117,13.2168077 14.4405075,13.5509638 14.0687422,13.5536264 L14.07673,13.5549577 Z" id="Page-1"></path>
        </g>
    </g>
</svg>