<?xml version="1.0" encoding="utf-8"?>
<!-- Generator: Adobe Illustrator 19.2.1, SVG Export Plug-In . SVG Version: 6.00 Build 0)  -->
<svg version="1.1" id="Layer_1" xmlns="http://www.w3.org/2000/svg" xmlns:xlink="http://www.w3.org/1999/xlink" x="0px" y="0px"
	 viewBox="0 0 19.1 17.4" style="enable-background:new 0 0 19.1 17.4;" xml:space="preserve">
<g>
	<path d="M17.2,1.5H2.6c-0.4,0-0.7,0.3-0.7,0.7v13.2c0,0.4,0.3,0.7,0.7,0.7h14.6c0.4,0,0.7-0.3,0.7-0.7V2.2
		C17.9,1.8,17.6,1.5,17.2,1.5z M16.8,15H3V3.2h13.8V15z"/>
	<rect x="8.3" y="9.1" width="3.1" height="0.5"/>
	<polygon points="5.3,9.4 7.1,7.5 7.1,7.5 7.4,7.2 7.4,7.2 5.3,5 4.9,5.3 6.7,7.2 4.9,9 	"/>
</g>
</svg>
