<?xml version="1.0" encoding="utf-8"?>
<!-- Generator: Adobe Illustrator 19.1.0, SVG Export Plug-In . SVG Version: 6.00 Build 0)  -->
<svg version="1.1" id="Layer_1" xmlns="http://www.w3.org/2000/svg" xmlns:xlink="http://www.w3.org/1999/xlink" x="0px" y="0px"
	 viewBox="0 0 15.999 16.001" style="enable-background:new 0 0 15.999 16.001;" xml:space="preserve">
<style type="text/css">
	.st0{fill:#D0D2D3;}
	.st1{fill:#333333;}
	.st2{fill:#D0D0D0;}
	.st3{fill:#222222;}
	.st4{fill:#F16A22;}
	.st5{fill:#629ACC;}
	.st6{fill:#6FBE4A;}
	.st7{fill:#76DFFF;}
	.st8{fill:#FFFFFF;}
	.st9{fill:none;stroke:#000000;stroke-miterlimit:10;}
	.st10{fill:#D22027;}
	.st11{fill:#FFBD48;}
	.st12{fill:#A2E264;}
</style>
<path class="st1" d="M13.899,15.92l-3.758-3.787c-1.03,0.679-2.262,1.077-3.59,1.077C2.929,13.209,0,10.251,0,6.601
	C0,2.958,2.929,0,6.551,0c3.616,0,6.551,2.958,6.551,6.601c0,1.274-0.356,2.461-0.972,3.467l3.785,3.813
	c0.2,0.197,0.032,0.686-0.37,1.09l-0.563,0.57C14.579,15.946,14.093,16.115,13.899,15.92 M10.925,6.601
	c0-2.436-1.957-4.408-4.374-4.408S2.17,4.165,2.17,6.601c0,2.436,1.964,4.414,4.381,4.414S10.925,9.037,10.925,6.601"/>
</svg>
