<?xml version="1.0" encoding="utf-8"?>
<!-- Generator: Adobe Illustrator 19.1.0, SVG Export Plug-In . SVG Version: 6.00 Build 0)  -->
<svg version="1.1" xmlns="http://www.w3.org/2000/svg" xmlns:xlink="http://www.w3.org/1999/xlink" x="0px" y="0px"
	 viewBox="0 0 20 20" style="enable-background:new 0 0 20 20;" xml:space="preserve">
<style type="text/css">
	.st0{fill:#FFFFFF;}
	.st1{fill:#333333;}
	.st2{fill:#D0D2D3;}
	.st3{opacity:0.7;}
	.st4{opacity:0.7;fill:#FFFFFF;}
</style>
<g id="Layer_1">
</g>
<g id="Content">
	<path class="st0" d="M14,0c-3.3,0-6,2.7-6,6v2l-2,2l-2,2l-2,2l-2,2v2v2h2h2v-2h2v-2h2v-2h2v-2h2h2c3.3,0,6-2.7,6-6S17.3,0,14,0z
		 M14,8c-1.1,0-2-0.9-2-2s0.9-2,2-2s2,0.9,2,2S15.1,8,14,8z"/>
</g>
</svg>
