<?xml version="1.0" encoding="utf-8"?>
<!-- Generator: Adobe Illustrator 19.2.1, SVG Export Plug-In . SVG Version: 6.00 Build 0)  -->
<svg version="1.1" id="Layer_1" xmlns="http://www.w3.org/2000/svg" xmlns:xlink="http://www.w3.org/1999/xlink" x="0px" y="0px"
	 viewBox="0 0 28.1 24.3" style="enable-background:new 0 0 28.1 24.3;" xml:space="preserve">
<style type="text/css">
	.st0{fill:#FFFFFF;}
</style>
<g>
	<path class="st0" d="M19.4,9.1c-0.5,0-1,0.1-1.4,0.3c-0.5-0.9-1.4-1.5-2.4-1.5c-0.8,0-1.6,0.4-2.1,0.9C12.9,8.1,12,7.6,11,7.6
		c-1.7,0-3,1.4-3,3c0,0.5,0.1,0.9,0.3,1.3c-0.8,0.4-1.4,1.3-1.4,2.4C6.8,15.8,8,17,9.5,17c0.2,0,0.4,0,0.6-0.1
		c0.4,1.1,1.4,1.9,2.7,1.9c1.2,0,2.2-0.8,2.6-1.8c0.3,0.2,0.8,0.3,1.2,0.3c0.9,0,1.8-0.5,2.2-1.3c0.2,0,0.4,0.1,0.6,0.1
		c1.9,0,3.5-1.5,3.5-3.5C22.8,10.7,21.3,9.1,19.4,9.1z M9.7,13.6c-0.2,0-0.3,0-0.4-0.1l0.1-0.2c0.1,0.1,0.2,0.1,0.3,0.1
		c0.2,0,0.3-0.1,0.3-0.2c0-0.1-0.1-0.2-0.3-0.3c-0.3-0.1-0.4-0.2-0.4-0.4c0-0.2,0.2-0.4,0.5-0.4c0.1,0,0.3,0,0.4,0.1l-0.1,0.2
		c-0.1,0-0.2-0.1-0.3-0.1c-0.2,0-0.2,0.1-0.2,0.2c0,0.1,0.1,0.2,0.3,0.2c0.3,0.1,0.4,0.2,0.4,0.4C10.2,13.4,10,13.6,9.7,13.6z
		 M11.3,13.6l0-0.2h0c-0.1,0.1-0.2,0.2-0.4,0.2c-0.3,0-0.4-0.2-0.4-0.4c0-0.3,0.3-0.5,0.9-0.5v0c0-0.1,0-0.3-0.3-0.3
		c-0.1,0-0.3,0-0.4,0.1l-0.1-0.2c0.1-0.1,0.3-0.1,0.5-0.1c0.4,0,0.5,0.3,0.5,0.6v0.5c0,0.1,0,0.3,0,0.4H11.3z M12.2,13.6H12v-2.2
		h0.3V13.6z M13.8,12.9h-1c0,0.4,0.2,0.5,0.5,0.5c0.2,0,0.3,0,0.4-0.1l0,0.2c-0.1,0-0.3,0.1-0.5,0.1c-0.4,0-0.7-0.3-0.7-0.7
		s0.3-0.8,0.7-0.8c0.5,0,0.6,0.4,0.6,0.7C13.8,12.8,13.8,12.9,13.8,12.9z M14.5,13.6c-0.2,0-0.3,0-0.4-0.1l0.1-0.2
		c0.1,0.1,0.2,0.1,0.3,0.1c0.2,0,0.3-0.1,0.3-0.2c0-0.1-0.1-0.2-0.3-0.3c-0.3-0.1-0.4-0.2-0.4-0.4c0-0.2,0.2-0.4,0.5-0.4
		c0.1,0,0.3,0,0.4,0.1l-0.1,0.2c-0.1,0-0.2-0.1-0.3-0.1c-0.2,0-0.2,0.1-0.2,0.2c0,0.1,0.1,0.2,0.3,0.2c0.3,0.1,0.4,0.2,0.4,0.4
		C15,13.4,14.8,13.6,14.5,13.6z M16,12.3h-0.4v1.3h-0.3v-1.3h-0.2v-0.2h0.2v-0.1c0-0.2,0-0.4,0.2-0.5c0.1-0.1,0.2-0.1,0.3-0.1
		c0.1,0,0.2,0,0.2,0l0,0.2c0,0-0.1,0-0.2,0c-0.2,0-0.3,0.2-0.3,0.4v0.1H16V12.3z M16.8,13.6c-0.4,0-0.7-0.3-0.7-0.7
		c0-0.5,0.3-0.8,0.7-0.8c0.4,0,0.7,0.3,0.7,0.7C17.5,13.4,17.1,13.6,16.8,13.6z M18.5,12.4C18.5,12.3,18.5,12.3,18.5,12.4
		c-0.3,0-0.4,0.1-0.4,0.3c0,0,0,0.1,0,0.1v0.8h-0.3v-1c0-0.2,0-0.3,0-0.4H18l0,0.3h0c0.1-0.2,0.2-0.3,0.4-0.3c0,0,0,0,0.1,0V12.4z
		 M19.4,13.4c0.1,0,0.2,0,0.3-0.1l0,0.2c-0.1,0-0.2,0.1-0.4,0.1c-0.4,0-0.7-0.3-0.7-0.7c0-0.4,0.3-0.8,0.8-0.8c0.2,0,0.3,0,0.4,0.1
		l-0.1,0.2c-0.1,0-0.2-0.1-0.3-0.1c-0.3,0-0.5,0.2-0.5,0.5C18.9,13.2,19.1,13.4,19.4,13.4z M21.2,12.9h-1c0,0.4,0.2,0.5,0.5,0.5
		c0.2,0,0.3,0,0.4-0.1l0,0.2c-0.1,0-0.3,0.1-0.5,0.1c-0.4,0-0.7-0.3-0.7-0.7s0.3-0.8,0.7-0.8c0.5,0,0.6,0.4,0.6,0.7
		C21.3,12.8,21.2,12.9,21.2,12.9z"/>
	<path class="st0" d="M10.7,13.2c0,0.2,0.1,0.3,0.2,0.3c0.2,0,0.3-0.1,0.3-0.2c0,0,0-0.1,0-0.1v-0.3C11,12.8,10.7,12.9,10.7,13.2z"
		/>
	<path class="st0" d="M16.8,12.3c-0.3,0-0.4,0.3-0.4,0.6c0,0.3,0.2,0.6,0.4,0.6c0.3,0,0.4-0.2,0.4-0.6
		C17.2,12.6,17.1,12.3,16.8,12.3z"/>
	<path class="st0" d="M20.6,12.3c-0.3,0-0.4,0.3-0.4,0.4H21C21,12.5,20.9,12.3,20.6,12.3z"/>
	<path class="st0" d="M13.2,12.3c-0.3,0-0.4,0.3-0.4,0.4h0.8C13.6,12.5,13.5,12.3,13.2,12.3z"/>
</g>
</svg>
