<?xml version="1.0" encoding="utf-8"?>
<!-- Generator: Adobe Illustrator 19.1.0, SVG Export Plug-In . SVG Version: 6.00 Build 0)  -->
<svg version="1.1" xmlns="http://www.w3.org/2000/svg" xmlns:xlink="http://www.w3.org/1999/xlink" x="0px" y="0px"
	 viewBox="0 0 20.5 18.4" style="enable-background:new 0 0 20.5 18.4;" xml:space="preserve">
<style type="text/css">
	.st0{fill:#FFFFFF;}
	.st1{fill:#333333;}
	.st2{fill:#D0D2D3;}
	.st3{opacity:0.7;}
	.st4{opacity:0.7;fill:#FFFFFF;}
</style>
<g id="Layer_1">
</g>
<g id="Content">
	<g>
		<path class="st4" d="M20.5,9.2c0,5.1-4.1,9.2-9.2,9.2c-2.6,0-4.9-1-6.5-2.7l1.4-1.4c1.3,1.3,3.1,2.1,5.1,2.1c4,0,7.2-3.2,7.2-7.2
			S15.2,2,11.3,2C7.8,2,4.9,4.5,4.2,7.7l2.3-0.3L3.2,12L0,7.4l2.2,0.3C2.8,3.3,6.6,0,11.3,0C16.3,0,20.5,4.1,20.5,9.2z"/>
		<path class="st4" d="M14.6,6.2c1.2-0.5,2,1.3,0.8,1.9l-3.7,1.5L11,11.6c-0.5,1.3-2.3,0.5-1.9-0.7L10,8.5c0.1-0.3,0.3-0.5,0.5-0.5
			L14.6,6.2z"/>
	</g>
</g>
</svg>
