<?xml version="1.0" encoding="UTF-8"?>
<svg width="24px" height="24px" viewBox="0 0 24 24" version="1.1" xmlns="http://www.w3.org/2000/svg" xmlns:xlink="http://www.w3.org/1999/xlink">
    <!-- Generator: Sketch 45.1 (43504) - http://www.bohemiancoding.com/sketch -->
    <title>segments-icon</title>
    <desc>Created with Sketch.</desc>
    <defs></defs>
    <g id="All-NEW" stroke="none" stroke-width="1" fill="none" fill-rule="evenodd">
        <g id="segments-icon" fill="#333333">
            <path d="M20.1405606,7.70549637 C19.2585745,6.03852653 17.8737962,4.68078138 16.1794229,3.82063917 C16.8886117,5.02791867 17.3986037,6.33827306 17.6889992,7.70312683 L20.1405606,7.70549637 Z M15.5254331,7.70549637 C14.9782417,5.58239051 14.0518563,4.04693003 13.0678718,3.38938329 L13.0678718,7.70549637 L15.5254331,7.70549637 Z M10.953505,3.38938329 C9.96952044,4.04693003 9.0359351,5.57291236 8.49594359,7.70549637 L10.953505,7.70549637 L10.953505,3.38938329 Z M7.82395414,3.82063917 C6.13438069,4.68196615 4.75440237,6.03852653 3.87361621,7.70312683 L6.31557784,7.70312683 C6.60717326,6.33827306 7.11596527,5.02791867 7.82395414,3.82063917 L7.82395414,3.82063917 Z M23.8497024,9.97195926 C24.0500992,11.2135971 24.0500992,12.480115 23.8497024,13.7229376 C23.8341026,13.8106105 23.7573038,13.874588 23.6661052,13.8734032 L21.1641446,13.8734032 C21.0645461,13.8734032 20.9829474,13.7952085 20.9817474,13.6980574 C20.9817474,13.6838402 20.9829474,13.6708077 20.9865473,13.6565905 C21.1113454,13.0689451 21.1737444,12.4694521 21.1749444,11.8687743 C21.1749444,11.1697606 21.0933457,10.4719317 20.9289482,9.79187438 L18.0369937,9.79187438 C18.1101925,10.4825946 18.146192,11.1768692 18.146192,11.8711438 C18.146192,12.5026256 18.1137925,13.1127816 18.0573934,13.7122746 C18.0489935,13.8046866 17.9685948,13.8757728 17.8749962,13.8757728 L16.1158239,13.8757728 C16.0162254,13.8757728 15.9358267,13.797578 15.9358267,13.6992422 L15.9358267,13.6791011 C15.9958258,13.1009339 16.0294252,12.4990713 16.0294252,11.8711438 C16.0294252,11.1768692 15.9898258,10.4837794 15.9094271,9.79424392 L13.0618719,9.79424392 L13.0618719,13.705166 C13.0618719,13.8046866 12.9802731,13.8852509 12.8794747,13.8852509 L11.1251023,13.8852509 C11.0243039,13.8852509 10.9427051,13.8046866 10.9427051,13.705166 L10.9427051,9.79661346 L8.09514988,9.79661346 C8.01595113,10.486149 7.97395179,11.1792388 7.97395179,11.8735133 C7.97395179,12.5026256 8.00995122,13.1033034 8.06755032,13.6814707 C8.07835015,13.7786217 8.00875124,13.8662946 7.91035279,13.8769575 C7.91035279,13.8769575 7.89595301,13.8781423 7.88875313,13.8781423 L6.12598082,13.8781423 C6.03238229,13.8781423 5.95438352,13.8070562 5.94478367,13.715829 C5.88838455,13.1187054 5.85718505,12.5026256 5.85718505,11.8735133 C5.85838503,11.1804235 5.89438446,10.4873337 5.96638333,9.79661346 L3.07922869,9.79661346 C2.91603125,10.4778556 2.83443254,11.1744997 2.83443254,11.8735133 C2.83563252,12.4741912 2.89923152,13.0736842 3.02282958,13.6613296 C3.04562922,13.7572959 2.98443018,13.8520774 2.88723171,13.8734032 C2.87403191,13.8757728 2.86083212,13.8781423 2.84643235,13.8781423 L0.334871807,13.8781423 C0.244873221,13.8793271 0.166874447,13.8153495 0.153674654,13.7276766 C-0.897508831,7.26713188 3.55562121,1.18926746 10.0991184,0.15140991 C16.6426156,-0.88526287 22.7985189,3.51141449 23.8497024,9.97195926 L23.8497024,9.97195926 Z M15.1474391,23.9877752 C15.471434,23.9865905 15.7354298,23.7294956 15.7426297,23.409608 L15.7426297,22.9250376 C15.7522296,22.5992261 15.4918337,22.327914 15.1630388,22.3184359 L15.1474391,22.3184359 L14.6566468,22.3184359 C14.326652,22.3184359 14.0590562,22.5826393 14.0590562,22.9084508 L14.0590562,23.3930213 C14.0590562,23.7188327 14.326652,23.9830362 14.6566468,23.9830362 L15.1474391,23.9877752 Z M12.2674843,23.9877752 C12.5926792,23.9877752 12.859075,23.7306804 12.8650749,23.409608 L12.8650749,22.9250376 C12.8650749,22.5992261 12.5974791,22.3350226 12.2674843,22.3350226 L11.7754921,22.3350226 C11.4466972,22.3350226 11.1791014,22.5992261 11.1791014,22.9250376 L11.1791014,23.409608 C11.1791014,23.7354195 11.4466972,23.9996229 11.7754921,23.9996229 L12.2674843,23.9877752 Z M9.38752958,23.9877752 C9.71392445,23.9877752 9.9779203,23.7306804 9.98512019,23.409608 L9.98512019,22.9250376 C9.98512019,22.5992261 9.71752439,22.3350226 9.38752958,22.3350226 L8.89673729,22.3350226 C8.56554249,22.3350226 8.29914668,22.5992261 8.29914668,22.9250376 L8.29914668,23.409608 C8.29914668,23.7354195 8.56554249,23.9996229 8.89673729,23.9996229 L9.38752958,23.9877752 Z M18.0273938,18.9608008 L17.0446093,18.9608008 C16.7158144,18.9608008 16.4482186,19.2250043 16.4482186,19.549631 L16.4482186,20.5199567 C16.4482186,20.8457681 16.7158144,21.1099716 17.0446093,21.1099716 L18.0273938,21.1099716 C18.3573887,21.1052325 18.6201845,20.83629 18.6153846,20.5116633 L18.6153846,20.4986309 L18.6153846,19.5283051 C18.6033848,19.2107871 18.3393889,18.9608008 18.017794,18.9608008 L18.0273938,18.9608008 Z M13.3594672,18.9608008 C13.0282724,18.9608008 12.7618766,19.2250043 12.7618766,19.549631 L12.7618766,20.5199567 C12.7618766,20.8457681 13.0282724,21.1099716 13.3594672,21.1099716 L14.3422517,21.1099716 C14.6710466,21.1052325 14.9338424,20.83629 14.9290425,20.5116633 L14.9290425,20.4986309 L14.9290425,19.5283051 C14.9290425,19.2024937 14.6626467,18.9382902 14.3314519,18.9382902 L13.3594672,18.9608008 Z M20.6757522,15.0960847 L19.2021754,15.0960847 C18.8721806,15.0960847 18.6057847,15.3591034 18.6057847,15.6849149 L18.6057847,17.1409958 C18.6057847,17.4668073 18.8721806,17.729826 19.2021754,17.729826 L20.6757522,17.729826 C21.006947,17.729826 21.2733428,17.4668073 21.2733428,17.1409958 L21.2733428,15.6849149 C21.2733428,15.3591034 21.006947,15.0960847 20.6757522,15.0960847 L20.6757522,15.0960847 Z M16.7110145,15.0960847 L15.2362377,15.0960847 C14.9062429,15.0960847 14.6386471,15.3591034 14.6386471,15.6849149 L14.6386471,17.1409958 C14.6386471,17.4668073 14.9062429,17.729826 15.2362377,17.729826 L16.7110145,17.729826 C17.0398094,17.729826 17.3086051,17.4668073 17.3086051,17.1409958 L17.3086051,15.6849149 C17.3086051,15.3591034 17.0398094,15.0960847 16.7110145,15.0960847 L16.7110145,15.0960847 Z M12.7450768,15.0960847 L11.2655001,15.0960847 C10.9355053,15.0960847 10.6679095,15.3591034 10.6679095,15.6849149 L10.6679095,17.1409958 C10.6631095,17.4668073 10.9247054,17.734565 11.2559002,17.7404889 L11.2655001,17.7404889 L12.7390769,17.7404889 C13.0690717,17.7404889 13.3366675,17.4762854 13.3366675,17.150474 L13.3366675,15.694393 C13.3426674,15.3697663 13.0786716,15.1008238 12.7498768,15.0960847 L12.7390769,15.0960847 L12.7450768,15.0960847 Z M8.77793916,15.0960847 L7.30436231,15.0960847 C6.97316751,15.0960847 6.7067717,15.3591034 6.7067717,15.6849149 L6.7067717,17.1409958 C6.7067717,17.4668073 6.97316751,17.729826 7.30436231,17.729826 L8.77793916,17.729826 C9.10913395,17.729826 9.37552977,17.4668073 9.37552977,17.1409958 L9.37552977,15.6849149 C9.37552977,15.3591034 9.10913395,15.0960847 8.77793916,15.0960847 L8.77793916,15.0960847 Z M9.67192511,18.9608008 C9.34313028,18.9608008 9.07553448,19.2250043 9.07553448,19.549631 L9.07553448,20.5199567 C9.07553448,20.8457681 9.34313028,21.1099716 9.67192511,21.1099716 L10.6559097,21.1099716 C10.9859045,21.1040478 11.2475004,20.8351052 11.2403005,20.5092938 L11.2403005,20.4986309 L11.2403005,19.5283051 C11.2403005,19.2024937 10.9727047,18.9382902 10.6439098,18.9382902 L9.67192511,18.9608008 Z M5.3891924,19.549631 L5.3891924,20.5199567 C5.3891924,20.8457681 5.65798817,21.1099716 5.98678301,21.1099716 L6.96956757,21.1099716 C7.29956238,21.1040478 7.56235825,20.8351052 7.55515837,20.5092938 L7.55515837,20.4986309 L7.55515837,19.5283051 C7.55515837,19.2024937 7.28756257,18.9382902 6.95756776,18.9382902 L5.97358322,18.9382902 C5.64478838,18.9453988 5.38319249,19.2143414 5.3891924,19.5401528 L5.3891924,19.549631 Z M5.40959208,15.6849149 L5.40959208,17.1409958 C5.40959208,17.4668073 5.14199628,17.729826 4.81320145,17.729826 L3.33722464,17.729826 C3.0084298,17.729826 2.74083401,17.4668073 2.74083401,17.1409958 L2.74083401,15.6849149 C2.74083401,15.3591034 3.0084298,15.0960847 3.33722464,15.0960847 L4.81320145,15.0960847 C5.14199628,15.0960847 5.40959208,15.3591034 5.40959208,15.6849149 L5.40959208,15.6849149 Z" id="Fill-94"></path>
        </g>
    </g>
</svg>