<?xml version="1.0" encoding="utf-8"?>
<!-- Generator: Adobe Illustrator 19.1.0, SVG Export Plug-In . SVG Version: 6.00 Build 0)  -->
<svg version="1.1" xmlns="http://www.w3.org/2000/svg" xmlns:xlink="http://www.w3.org/1999/xlink" x="0px" y="0px"
	 viewBox="0 0 20 20" style="enable-background:new 0 0 20 20;" xml:space="preserve">
<style type="text/css">
	.st0{fill:#FFFFFF;}
	.st1{fill:#333333;}
	.st2{fill:#D0D2D3;}
	.st3{opacity:0.7;}
	.st4{opacity:0.7;fill:#FFFFFF;}
</style>
<g id="Layer_1">
	<g>
		<line class="st0" x1="10" y1="1.3" x2="18.7" y2="10"/>
		<polygon class="st0" points="18.7,17.5 20,16.2 18.7,15 20,13.7 18.7,12.5 20,11.2 19.2,10.5 17.5,12.2 16.3,11 15,12.2 
			13.7,10.9 12.5,12.2 11.3,11 10,12.2 7.8,10 8.3,9.5 9,8.8 7.8,7.5 9,6.3 7.8,5.1 9,3.8 7.8,2.5 9.5,0.8 8.7,0 7.4,1.3 6.2,0 
			4.9,1.2 3.7,0 2.5,1.3 1.2,0 1.3,0.1 0,1.3 1.3,2.5 0,3.8 1.3,5 0,6.3 1.3,7.5 0,8.8 1.3,10 0,11.3 1.3,12.6 0,13.8 1.2,15.1 
			0,16.3 1.3,17.5 0,18.8 0.1,18.7 1.3,20 2.5,18.7 3.8,20 5,18.7 6.3,20 7.5,18.7 8.8,20 10,18.7 11.3,20 12.6,18.7 13.8,20 
			15.1,18.8 16.3,20 17.5,18.7 18.8,20 18.7,19.9 20,18.7 		"/>
		<polygon class="st0" points="10,1.3 8.7,2.5 10,3.8 8.7,5.1 10,6.3 8.8,7.5 10,8.8 8.8,10 8.8,10 10,11.2 11.3,10 12.5,11.2 
			13.7,10 15,11.2 16.3,10 17.5,11.2 18.8,10 		"/>
	</g>
</g>
<g id="Content">
</g>
</svg>
