<?xml version="1.0" encoding="UTF-8"?>
<svg width="24px" height="24px" viewBox="0 0 24 24" version="1.1" xmlns="http://www.w3.org/2000/svg" xmlns:xlink="http://www.w3.org/1999/xlink">
    <!-- Generator: Sketch 45.1 (43504) - http://www.bohemiancoding.com/sketch -->
    <title>insights-icon</title>
    <desc>Created with Sketch.</desc>
    <defs></defs>
    <g id="All-NEW" stroke="none" stroke-width="1" fill="none" fill-rule="evenodd">
        <g id="insights-icon" fill="#333333">
            <path d="M9.6511772,21.8163463 C9.89778392,21.5751951 10.1934935,21.4573348 10.537225,21.4628099 L13.5052434,21.5064572 C13.8478855,21.5108234 14.1403016,21.636307 14.3803689,21.886196 C14.6193384,22.1328027 14.7371736,22.4285123 14.7317264,22.7722438 C14.7262709,23.1159752 14.6007844,23.4094808 14.3541666,23.6495481 L14.3541666,23.6506392 C14.1064676,23.8885165 13.8118502,24.0052651 13.4702976,23.9998179 L10.5011618,23.9561705 C10.1574304,23.9507147 9.8650142,23.8263208 9.62603634,23.5807895 C9.38706686,23.3320023 9.26923164,23.0362954 9.27467883,22.692564 C9.28013439,22.349922 9.40452858,22.0585953 9.64785302,21.818528 C9.64894525,21.8174357 9.65003469,21.8163435 9.65112692,21.8163435 L9.6511772,21.8163463 Z M9.08486532,18.4706562 C9.32819813,18.2273234 9.62173446,18.1051081 9.96652742,18.1051081 L14.0943776,18.1051081 C14.4359302,18.1051081 14.7294358,18.2251389 14.9738609,18.4662985 L14.978227,18.4706646 C15.2204704,18.7139974 15.3415963,19.0075337 15.3415963,19.3501478 C15.3415963,19.6960582 15.220476,19.9906811 14.978227,20.2340167 C14.7327097,20.4784418 14.4380895,20.6006543 14.0943581,20.6006543 L9.96650786,20.6006543 C9.62277641,20.6006543 9.32815344,20.4784418 9.08484576,20.2340167 L9.0826613,20.2318323 C8.84041792,19.9884995 8.71929204,19.6949631 8.71929204,19.3501702 C8.71929204,19.0064387 8.84041233,18.7129331 9.08484018,18.4706869 L9.08486532,18.4706562 Z M16.0410625,8.12072195 C15.7911819,8.12072195 15.5784148,8.20910884 15.4005292,8.3847876 C15.2248477,8.56265082 15.1364636,8.77542073 15.1364636,9.0253209 C15.1364636,9.27520152 15.2237582,9.48796863 15.4005292,9.66367532 C15.5783925,9.84153854 15.7911624,9.92992264 16.0410625,9.92992264 C16.2909431,9.92992264 16.5037103,9.84153575 16.679417,9.66367532 C16.8572802,9.48799377 16.9456643,9.27522107 16.9456643,9.0253209 C16.9456643,8.77544028 16.8572774,8.56267317 16.679417,8.3847876 C16.5037354,8.20910605 16.2909627,8.12072195 16.0410625,8.12072195 Z M11.9741091,2.9713147 C11.9610163,3.20046248 12.0308492,3.40016194 12.182524,3.57036557 C12.3352911,3.74059156 12.525166,3.83334178 12.754311,3.84643459 C13.1362287,3.86716742 13.5006874,3.95991764 13.8443909,4.1225036 C14.1772,4.28181566 14.4707336,4.4956778 14.726053,4.76521577 C14.9792075,5.03473699 15.1756275,5.34027109 15.3152989,5.68179574 C15.4582443,6.03424269 15.5302617,6.4019697 15.5302617,6.78606621 C15.5302617,7.01412456 15.6110085,7.20943833 15.772505,7.3709544 C15.9339988,7.53354036 16.1293098,7.61537945 16.3573932,7.61537945 C16.586541,7.61537945 16.7818548,7.53354036 16.9433709,7.3709544 C17.1048674,7.20946067 17.1856142,7.0141497 17.1856142,6.78606621 C17.1856142,6.18701533 17.0743129,5.61087057 16.8506262,5.05872137 C16.6334818,4.52512054 16.3268583,4.04719275 15.9296606,3.62491007 C15.5313735,3.20480626 15.071994,2.87090768 14.5514944,2.62321432 C14.0135358,2.3700598 13.4461345,2.22601663 12.8481451,2.19109877 C12.6222712,2.18346153 12.4236835,2.2543867 12.2523625,2.40387985 C12.0810471,2.5566469 11.9872047,2.74543243 11.9741119,2.97128117 L11.9741091,2.9713147 Z M15.1002356,0.698385216 L15.1024173,0.700566885 C15.9273448,1.08902114 16.6562622,1.61496798 17.2869627,2.28170364 L17.2891471,2.28170364 C17.9198475,2.94950081 18.4076082,3.70679944 18.754608,4.55463312 C19.1103232,5.43084803 19.2892982,6.34745593 19.2892982,7.30442889 C19.2947538,8.30721407 19.0274143,9.33511219 18.4894557,10.3892127 L18.4894557,10.3913943 C18.0486246,11.2512398 17.4430092,12.086003 16.6715479,12.8967651 C16.6628184,12.9044051 16.6529967,12.914224 16.6442672,12.9240457 C16.5264181,13.0353471 16.4216645,13.1488301 16.3321853,13.2633915 C16.3310931,13.2644837 16.3300037,13.2655731 16.3300037,13.2677576 C16.2339795,13.3888779 16.1597777,13.5067271 16.1084931,13.6223834 C16.0626641,13.7424143 16.0288357,13.8853596 16.0081029,14.0523201 C15.9862778,14.2345466 15.9753667,14.4516967 15.9764589,14.7026583 L15.9764589,15.2188002 C15.9764589,15.5177809 15.9186265,15.8047779 15.8007773,16.0808245 C15.8007773,16.081914 15.7996851,16.0830062 15.7985957,16.0851879 C15.6872943,16.3492535 15.5301639,16.5827535 15.3272045,16.7868135 C15.1231529,16.9886834 14.8896418,17.1469144 14.6255789,17.2592941 L14.6233945,17.2614757 C14.3484149,17.3771404 14.0603509,17.4349728 13.7602807,17.4349728 L10.229107,17.436065 C9.93012624,17.436065 9.6420399,17.3782327 9.3681721,17.262568 L9.36053487,17.2603863 C9.10083256,17.1469032 8.86841646,16.9908651 8.66435646,16.7889951 L8.66217479,16.7868135 C8.45703095,16.5816696 8.29880553,16.3470718 8.18751532,16.0808301 C8.07185059,15.8047611 8.01401823,15.5177865 8.01401823,15.2188058 L8.01401823,14.7026639 C8.01510766,14.4506016 8.00419653,14.2323622 7.98237426,14.0501468 L7.98455593,14.0523285 C7.9638231,13.8886503 7.92999747,13.7479006 7.88416567,13.6300458 L7.88198401,13.6278641 C7.77941208,13.4019902 7.60154886,13.1673953 7.34729094,12.9262385 C7.33637981,12.9142352 7.3265609,12.9044135 7.31782865,12.8967762 C6.54745676,12.0849499 5.94293356,11.2491 5.50428138,10.3914055 C4.96305449,9.33624353 4.69463388,8.30725598 4.70008107,7.30438698 C4.70008107,6.34523516 4.88121819,5.42426951 5.2423974,4.54260741 L5.2423974,4.54478908 C5.58830773,3.69474859 6.0793367,2.93529901 6.71657096,2.26750185 C7.3505397,1.60188355 8.0827282,1.07484728 8.91312809,0.686365091 C9.77079463,0.284809654 10.6753908,0.0589329743 11.625802,0.012003365 C11.7032749,0.00654779788 11.8254875,0.00218166815 11.9902607,0 L12.0142646,0 C12.1441144,0.00109223079 12.2750564,0.00545556709 12.4070766,0.0141850331 C13.3509484,0.0676540601 14.2490079,0.294617383 15.1001099,0.698351695 L15.1002356,0.698385216 Z" id="Page-1"></path>
        </g>
    </g>
</svg>