<?xml version="1.0" encoding="utf-8"?>
<!-- Generator: Adobe Illustrator 19.1.0, SVG Export Plug-In . SVG Version: 6.00 Build 0)  -->
<svg version="1.1" xmlns="http://www.w3.org/2000/svg" xmlns:xlink="http://www.w3.org/1999/xlink" x="0px" y="0px"
	 viewBox="0 0 20 20" style="enable-background:new 0 0 20 20;" xml:space="preserve">
<style type="text/css">
	.st0{fill:#FFFFFF;}
	.st1{fill:#333333;}
	.st2{fill:#D0D2D3;}
	.st3{opacity:0.7;}
	.st4{opacity:0.7;fill:#FFFFFF;}
</style>
<g id="Layer_1">
	<g transform="translate(0,-1032.3622)">
		<path class="st0" d="M0,1032.4v1v18v1h20v-1v-18v-1H0z M0.6,1033h18.7v0.9v16.9v0.9H0.6v-0.9v-16.9V1033z"/>
		<path class="st0" d="M11.7,1034.3c-0.3,0-0.6,0.3-0.6,0.6v6c0,0.3,0.3,0.6,0.6,0.6h6c0.3,0,0.6-0.3,0.6-0.6v-6
			c0-0.3-0.3-0.6-0.6-0.6H11.7z"/>
		<path class="st0" d="M2.4,1043.2c-0.3,0-0.6,0.3-0.6,0.6v6c0,0.3,0.3,0.6,0.6,0.6h6c0.3,0,0.6-0.3,0.6-0.6v-6
			c0-0.3-0.3-0.6-0.6-0.6H2.4z"/>
		<path class="st0" d="M11.6,1043.2c-0.3,0-0.6,0.3-0.6,0.6v6c0,0.3,0.3,0.6,0.6,0.6h6c0.3,0,0.6-0.3,0.6-0.6v-6
			c0-0.3-0.3-0.6-0.6-0.6H11.6z"/>
		<path class="st0" d="M2.3,1034.3c-0.3,0-0.6,0.3-0.6,0.6v6c0,0.3,0.3,0.6,0.6,0.6h6c0.3,0,0.6-0.3,0.6-0.6v-6
			c0-0.3-0.3-0.6-0.6-0.6H2.3z"/>
	</g>
</g>
<g id="Content">
</g>
</svg>
