<?xml version="1.0" encoding="UTF-8"?>
<svg width="24px" height="24px" viewBox="0 0 24 24" version="1.1" xmlns="http://www.w3.org/2000/svg" xmlns:xlink="http://www.w3.org/1999/xlink">
    <!-- Generator: Sketch 45.1 (43504) - http://www.bohemiancoding.com/sketch -->
    <title>settings-icon</title>
    <desc>Created with Sketch.</desc>
    <defs></defs>
    <g id="All-NEW" stroke="none" stroke-width="1" fill="none" fill-rule="evenodd">
        <g id="settings-icon" fill="#333333">
            <path d="M9.7674054,0 L9.00865818,3.28777441 C8.64672671,3.41204899 8.29353026,3.55703647 7.95342241,3.72382802 L5.09291076,1.93602219 L1.93602219,5.09291076 L3.72382802,7.95342241 C3.55703647,8.29355817 3.4120462,8.64675461 3.28777441,9.00865818 L0,9.7674054 L0,14.2325943 L3.28777441,14.9913415 C3.41204899,15.353273 3.55703647,15.7064695 3.72382802,16.0465773 L1.93602219,18.907089 L5.09291076,22.0639775 L7.95342241,20.2761717 C8.29355817,20.4429633 8.64675461,20.5879535 9.00865818,20.7122253 L9.7674054,24 L14.2325943,24 L14.9913415,20.7122253 C15.353273,20.5879507 15.7064695,20.4429633 16.0465773,20.2761717 L18.907089,22.0639775 L22.0639775,18.907089 L20.2761717,16.0465773 C20.4429633,15.7064416 20.5879535,15.3532451 20.7122253,14.9913415 L23.9999997,14.2325943 L23.9999997,9.7674054 L20.7122253,9.00865818 C20.5879507,8.64672671 20.4429633,8.29353026 20.2761717,7.95342241 L22.0639775,5.09291076 L18.907089,1.93602219 L16.0465773,3.72382802 C15.7064416,3.55703647 15.3532451,3.4120462 14.9913415,3.28777441 L14.2325943,0 L9.7674054,0 Z M11.9999999,6.41870907 C15.0829337,6.41870907 17.581486,8.91728925 17.581486,12.0001952 C17.581486,15.0831012 15.0829058,17.5816814 11.9999999,17.5816814 C8.9170939,17.5816814 6.41851372,15.0831012 6.41851372,12.0001952 C6.41851372,8.91728925 8.9170939,6.41870907 11.9999999,6.41870907 Z" id="Page-1"></path>
        </g>
    </g>
</svg>