<?xml version="1.0" encoding="utf-8"?>
<!-- Generator: Adobe Illustrator 19.1.0, SVG Export Plug-In . SVG Version: 6.00 Build 0)  -->
<svg version="1.1" xmlns="http://www.w3.org/2000/svg" xmlns:xlink="http://www.w3.org/1999/xlink" x="0px" y="0px"
	 viewBox="0 0 20 19.1" style="enable-background:new 0 0 20 19.1;" xml:space="preserve">
<style type="text/css">
	.st0{fill:#FFFFFF;}
	.st1{fill:#333333;}
	.st2{fill:#D0D2D3;}
	.st3{opacity:0.7;}
	.st4{opacity:0.7;fill:#FFFFFF;}
</style>
<g id="Layer_1">
</g>
<g id="Content">
	<path class="st0" d="M0.5,0C0.2,0,0,0.2,0,0.5v18c0,0.3,0.2,0.5,0.5,0.5h19.1c0.3,0,0.5-0.2,0.5-0.5v-18C20,0.2,19.8,0,19.5,0H0.5z
		 M1.2,1.5h2.5v2.9H1.2V1.5z M4.1,1.5h7.2v2.9H4.1V1.5z M11.6,1.5h7.2v2.9h-7.2V1.5z M1.2,4.8h2.5v2.9H1.2V4.8z M4.1,4.8h7.2v2.9
		H4.1V4.8z M11.6,4.8h7.2v2.9h-7.2V4.8z M1.2,8.1h2.5V11H1.2V8.1z M4.1,8.1h7.2V11H4.1V8.1z M11.6,8.1h7.2V11h-7.2V8.1z M1.2,11.4
		h2.5v2.9H1.2V11.4z M4.1,11.4h7.2v2.9H4.1V11.4z M11.6,11.4h7.2v2.9h-7.2V11.4z M1.2,14.7h2.5v2.9H1.2V14.7z M4.1,14.7h7.2v2.9H4.1
		V14.7z M11.6,14.7h7.2v2.9h-7.2V14.7z"/>
</g>
</svg>
