<?xml version="1.0" encoding="UTF-8"?>
<svg width="20px" height="15px" viewBox="0 0 20 15" version="1.1" xmlns="http://www.w3.org/2000/svg" xmlns:xlink="http://www.w3.org/1999/xlink">
    <!-- Generator: Sketch 50.2 (55047) - http://www.bohemiancoding.com/sketch -->
    <title>ico-check</title>
    <desc>Created with Sketch.</desc>
    <defs></defs>
    <g id="Page-1" stroke="none" stroke-width="1" fill="none" fill-rule="evenodd">
        <g id="ico-check" fill="#00B04A" fill-rule="nonzero">
            <path d="M17.8839585,0.353500929 C17.643229,0.117781929 17.3505543,0 17.0065649,0 C16.6624157,0 16.3697409,0.117781929 16.1290114,0.353500929 L7.66453082,8.64907179 L3.87098841,4.9242165 C3.63010125,4.68849771 3.33758197,4.57071579 2.9935926,4.57071579 C2.64944557,4.57071579 2.35692848,4.68849771 2.11604132,4.9242165 L0.3612519,6.64135393 C0.120364744,6.87707271 0,7.16331407 0,7.50007757 C0,7.83668593 0.120364744,8.12308221 0.3612519,8.35864607 L5.03219011,12.9293619 L6.7871372,14.6464991 C7.02786669,14.8822181 7.32038378,15 7.66453082,15 C8.00852018,15 8.30103728,14.8820631 8.54192443,14.6464991 L10.2968737,12.9293619 L19.6387479,3.7879305 C19.8794774,3.5522115 19.9999998,3.26597036 19.9999998,2.92920686 C20.0001575,2.59259829 19.8794774,2.30635714 19.6387479,2.07063814 L17.8839585,0.353500929 Z" id="Shape"></path>
        </g>
    </g>
</svg>