<svg id="Layer_1" data-name="Layer 1" xmlns="http://www.w3.org/2000/svg" viewBox="0 0 28 28"><defs><style>.cls-1{fill:#e7e7e7;}.cls-2{fill:#333;}</style></defs><title>ico-user-profile</title><path class="cls-1" d="M1011.28-233a14,14,0,0,1-14,14,14,14,0,0,1-14-14,14,14,0,0,1,14-14,14,14,0,0,1,14,14" transform="translate(-983.28 247)"/><path class="cls-2" d="M1000.42-236.14a3.14,3.14,0,0,1-3.14,3.14,3.14,3.14,0,0,1-3.14-3.14,3.14,3.14,0,0,1,3.14-3.14,3.14,3.14,0,0,1,3.14,3.14" transform="translate(-983.28 247)"/><path class="cls-2" d="M991.41-227s1.5-5.6,6-5.54,5.7,5.54,5.7,5.54H991.41Z" transform="translate(-983.28 247)"/></svg>