<?xml version="1.0" encoding="UTF-8"?>
<svg width="16px" height="16px" viewBox="0 0 16 16" version="1.1" xmlns="http://www.w3.org/2000/svg" xmlns:xlink="http://www.w3.org/1999/xlink">
    <!-- Generator: Sketch 41.2 (35397) - http://www.bohemiancoding.com/sketch -->
    <title>Remodel - White 16x16</title>
    <desc>Created with Sketch.</desc>
    <defs></defs>
    <g id="Other" stroke="none" stroke-width="1" fill="none" fill-rule="evenodd">
        <g id="Remodel---White-16x16" fill="#FFFFFF">
            <path d="M15.7500274,3.67857534 C15.5833425,3.512 15.3810411,3.42860274 15.1430137,3.42860274 L11.4284932,3.42860274 C11.0714521,3.42860274 10.690411,3.54761644 10.2856986,3.78575342 L10.2856986,0.857205479 C10.2856986,0.619068493 10.202411,0.416547945 10.035726,0.249972603 C9.8690411,0.0833972603 9.66673973,0 9.42849315,0 L5.71430137,0 C5.47616438,0 5.21424658,0.0595068493 4.92854795,0.178520548 C4.64284932,0.297534247 4.41665753,0.440438356 4.2499726,0.607123288 L0.607123288,4.2499726 C0.440438356,4.41665753 0.297534247,4.64284932 0.178520548,4.92854795 C0.0595068493,5.21435616 0,5.47616438 0,5.71430137 L0,11.7143014 C0,11.9525479 0.0832876712,12.1549589 0.249972603,12.3215342 C0.416657534,12.4882192 0.619068493,12.5715068 0.85709589,12.5715068 L5.71430137,12.5715068 L5.71430137,15.1430137 C5.71430137,15.3810411 5.79758904,15.5834521 5.96427397,15.7500274 C6.13084932,15.9167123 6.33326027,16 6.57139726,16 L15.1430137,16 C15.3810411,16 15.5834521,15.9167123 15.7500274,15.7500274 C15.9167123,15.5834521 16,15.3810411 16,15.1430137 L16,4.28580822 C16,4.04767123 15.9167123,3.84526027 15.7500274,3.67857534 L15.7500274,3.67857534 Z M10.2856986,5.33041096 L10.2856986,8 L7.61610959,8 L10.2856986,5.33041096 L10.2856986,5.33041096 Z M4.57139726,1.90180822 L4.57139726,4.57139726 L1.90180822,4.57139726 L4.57139726,1.90180822 L4.57139726,1.90180822 Z M6.32142466,7.67857534 C6.15473973,7.84526027 6.01183562,8.07145205 5.89282192,8.35726027 C5.77380822,8.64306849 5.71430137,8.90476712 5.71430137,9.1430137 L5.71430137,11.4284932 L1.14290411,11.4284932 L1.14290411,5.71430137 L4.85709589,5.71430137 C5.09523288,5.71430137 5.29764384,5.6310137 5.46432877,5.46432877 C5.63090411,5.29764384 5.71430137,5.09523288 5.71430137,4.85720548 L5.71430137,1.14290411 L9.1430137,1.14290411 L9.1430137,4.85720548 L6.32142466,7.67857534 L6.32142466,7.67857534 Z M14.8569863,14.8572055 L6.8569863,14.8572055 L6.8569863,9.14279452 L10.5713973,9.14279452 C10.8094247,9.14279452 11.011726,9.05950685 11.178411,8.89282192 C11.3450959,8.72624658 11.4283836,8.52383562 11.4283836,8.28580822 L11.4283836,4.57139726 L14.8568767,4.57139726 L14.8568767,14.8572055 L14.8569863,14.8572055 Z" id="Copy-Icon"></path>
        </g>
    </g>
</svg>