<svg xmlns="http://www.w3.org/2000/svg" viewBox="0 0 18 18"><defs><style>.cls-1{fill:#fff;}</style></defs><title>model-iteration</title><g id="Layer_2" data-name="Layer 2"><g id="Content"><path class="cls-1" d="M17.2,0H.8A.8.8,0,0,0,0,.8V17.2a.8.8,0,0,0,.8.8H17.2a.8.8,0,0,0,.8-.8V.8A.8.8,0,0,0,17.2,0ZM5,.83A.2.2,0,0,1,5.2.62h7.6a.2.2,0,0,1,.2.21v.4a.19.19,0,0,1-.2.19H5.2A.19.19,0,0,1,5,1.23ZM3.4.7a.29.29,0,0,1,.3.3.3.3,0,0,1-.6,0A.29.29,0,0,1,3.4.7Zm-1,0a.29.29,0,0,1,.3.3.3.3,0,1,1-.6,0A.29.29,0,0,1,2.4.7Zm-1,0a.29.29,0,0,1,.3.3.3.3,0,1,1-.6,0A.29.29,0,0,1,1.4.7ZM17.2,16.4a.8.8,0,0,1-.8.8H1.6a.8.8,0,0,1-.8-.8V2H17.2Z"/><path class="cls-1" d="M16.5,16,16,16.5a.19.19,0,0,0,0,.28.19.19,0,0,0,.28,0l.48-.48A.2.2,0,0,0,16.5,16Z"/><path class="cls-1" d="M15.56,16.64a.2.2,0,0,0,.14-.06l.88-.88a.2.2,0,0,0-.28-.28l-.88.88a.19.19,0,0,0,0,.28A.2.2,0,0,0,15.56,16.64Z"/><polygon class="cls-1" points="9.79 7.9 10.71 6.39 9.79 4.93 7.29 4.93 8.21 6.47 7.29 7.9 9.79 7.9"/><polygon class="cls-1" points="5.67 7.9 6.59 6.39 5.67 4.93 3.17 4.93 4.09 6.47 3.17 7.9 5.67 7.9"/><polygon class="cls-1" points="13.91 7.9 14.83 6.39 13.91 4.93 11.41 4.93 12.33 6.47 11.41 7.9 13.91 7.9"/><rect class="cls-1" x="3.4" y="9.96" width="11.2" height="1.24"/><rect class="cls-1" x="3.4" y="12.44" width="11.2" height="1.24"/></g></g></svg>