<?xml version="1.0" encoding="utf-8"?>
<!-- Generator: Adobe Illustrator 19.1.0, SVG Export Plug-In . SVG Version: 6.00 Build 0)  -->
<svg version="1.1" id="Layer_1" xmlns="http://www.w3.org/2000/svg" xmlns:xlink="http://www.w3.org/1999/xlink" x="0px" y="0px"
	 viewBox="0 0 33 33" style="enable-background:new 0 0 33 33;" xml:space="preserve">
<style type="text/css">
	.st0{fill:#D0D2D3;}
	.st1{fill:#333333;}
	.st2{fill:#D0D0D0;}
	.st3{fill:#222222;}
	.st4{fill:#F16A22;}
	.st5{fill:#629ACC;}
	.st6{fill:#6FBE4A;}
	.st7{fill:#76DFFF;}
	.st8{fill:#FFFFFF;}
	.st9{fill:none;stroke:#000000;stroke-miterlimit:10;}
	.st10{fill:#D22027;}
	.st11{fill:#FFBD48;}
	.st12{fill:#A2E264;}
</style>
<g>
	<path class="st8" d="M0,1.467C0,0.657,0.657,0,1.467,0h30.067C32.343,0,33,0.657,33,1.467v30.067C33,32.343,32.343,33,31.533,33
		H1.467C0.657,33,0,32.343,0,31.533V1.467z M1.467,30.067c0,0.81,0.657,1.467,1.467,1.467h27.133c0.81,0,1.467-0.657,1.467-1.467
		v-26.4c-0.917,0-29.072,0-30.067,0V30.067z M2.567,1.283c-0.304,0-0.55,0.246-0.55,0.55s0.246,0.55,0.55,0.55s0.55-0.246,0.55-0.55
		S2.871,1.283,2.567,1.283z M4.4,1.283c-0.304,0-0.55,0.246-0.55,0.55s0.246,0.55,0.55,0.55c0.304,0,0.55-0.246,0.55-0.55
		S4.704,1.283,4.4,1.283z M6.233,1.283c-0.304,0-0.55,0.246-0.55,0.55s0.246,0.55,0.55,0.55c0.304,0,0.55-0.246,0.55-0.55
		S6.537,1.283,6.233,1.283z M9.167,2.246c0,0.202,0.164,0.367,0.367,0.367h13.933c0.203,0,0.367-0.164,0.367-0.367V1.512
		c0-0.202-0.164-0.367-0.367-0.367H9.533c-0.202,0-0.367,0.164-0.367,0.367V2.246z M28.791,30.395l1.604-1.604
		c0.143-0.143,0.143-0.375,0-0.518c-0.143-0.143-0.375-0.143-0.518,0l-1.604,1.604c-0.143,0.143-0.143,0.375,0,0.518
		c0.072,0.071,0.165,0.107,0.259,0.107S28.719,30.466,28.791,30.395z M29.891,30.761l0.871-0.871c0.143-0.143,0.143-0.375,0-0.518
		c-0.143-0.143-0.375-0.143-0.518,0l-0.871,0.871c-0.143,0.143-0.143,0.375,0,0.518c0.072,0.071,0.165,0.107,0.259,0.107
		S29.819,30.833,29.891,30.761z"/>
	<path class="st8" d="M21.298,11.945l-1.253,1.282l-4.986,4.986l-1.421-1.421l-1.253-1.282L9.85,18.046l1.282,1.253l2.674,2.674
		l1.253,1.282l1.253-1.282l6.24-6.24l1.282-1.253L21.298,11.945z"/>
</g>
</svg>
