<?xml version="1.0" encoding="utf-8"?>
<!-- Generator: Adobe Illustrator 19.1.0, SVG Export Plug-In . SVG Version: 6.00 Build 0)  -->
<svg version="1.1" xmlns="http://www.w3.org/2000/svg" xmlns:xlink="http://www.w3.org/1999/xlink" x="0px" y="0px"
	 viewBox="0 0 20 20" style="enable-background:new 0 0 20 20;" xml:space="preserve">
<style type="text/css">
	.st0{fill:#FFFFFF;}
	.st1{fill:#333333;}
	.st2{fill:#D0D2D3;}
	.st3{opacity:0.7;}
	.st4{opacity:0.7;fill:#FFFFFF;}
</style>
<g id="Layer_1">
	<path class="st0" d="M3,3C1.3,4.7,0.2,7,0,9.4L0,10h5L5,9.6c0.3-2.3,2.2-4.2,4.5-4.5L10,5V0L9.4,0C7,0.2,4.7,1.3,3,3z M8.9,4.1
		C6.5,4.6,4.6,6.5,4.1,8.9H1.2c0.6-4,3.7-7.2,7.7-7.7C8.9,1.2,8.9,4.1,8.9,4.1z M17.5,16.8L14.7,14c0.8-1,1.4-2.3,1.4-3.7
		c0-2.9-2.2-5.4-5-5.8V0.6c5,0.4,8.9,4.6,8.9,9.7C20,12.8,19,15,17.5,16.8z M10.3,20c-5.1,0-9.3-3.9-9.7-8.9h3.9
		c0.4,2.8,2.8,5,5.8,5c1.4,0,2.7-0.5,3.7-1.4l2.8,2.8C15,19,12.8,20,10.3,20z"/>
</g>
<g id="Content">
</g>
</svg>
