<?xml version="1.0" encoding="utf-8"?>
<!-- Generator: Adobe Illustrator 19.2.1, SVG Export Plug-In . SVG Version: 6.00 Build 0)  -->
<svg version="1.1" id="Layer_1" xmlns="http://www.w3.org/2000/svg" xmlns:xlink="http://www.w3.org/1999/xlink" x="0px" y="0px"
	 viewBox="0 0 21.7 20.3" style="enable-background:new 0 0 21.7 20.3;" xml:space="preserve">
<style type="text/css">
	.st0{display:none;}
	.st1{fill:#231F20;}
</style>
<rect x="-35.7" y="-32.6" class="st0" width="198" height="87"/>
<g id="Content">
	<path class="st1" d="M20.2,13.9c0-0.1,0-0.1-0.1-0.2c0,0-0.1,0-0.2-0.1l-0.5-0.1c-0.2,0-0.3-0.1-0.3-0.3l-0.2-0.5
		c-0.1-0.1,0-0.3,0-0.4l0.3-0.4c0.1-0.1,0.1-0.3,0-0.4l-0.4-0.3c-0.1-0.1-0.3-0.1-0.4,0l-0.4,0.3c-0.1,0.1-0.3,0.1-0.4,0l-0.5-0.2
		c0,0-0.1-0.1-0.2-0.1c0-0.1-0.1-0.1-0.1-0.2l-0.1-0.5c0,0,0-0.1-0.1-0.2c0,0-0.1-0.1-0.2-0.1c0,0-0.1,0-0.3,0H16c0,0-0.1,0-0.2,0.1
		c0,0.1-0.1,0.1-0.1,0.2l0,0.5c0,0.2-0.1,0.3-0.3,0.3l-0.5,0.2c-0.1,0.1-0.3,0-0.4,0l-0.4-0.3c-0.1-0.1-0.3-0.1-0.4,0l-0.4,0.4
		c-0.1,0.1-0.1,0.3,0,0.4l0.3,0.4c0.1,0.1,0.1,0.3,0,0.4l-0.2,0.5c0,0-0.1,0.1-0.1,0.2c-0.1,0.1-0.1,0.1-0.2,0.1l-0.5,0
		c0,0-0.1,0-0.2,0.1c-0.1,0.1-0.1,0.2-0.1,0.2s0,0.1,0,0.3v0.3c0,0.1,0,0.1,0.1,0.2c0,0,0.1,0.1,0.2,0.1l0.5,0.1c0,0,0.1,0,0.2,0.1
		c0.1,0,0.1,0.1,0.1,0.2l0.2,0.5c0.1,0.1,0,0.3,0,0.4l-0.3,0.4c-0.1,0.1-0.1,0.3,0,0.3l0,0c0,0,0,0,0,0.1s0,0,0,0.1l0,0l0,0l0,0
		c0,0,0.1,0.1,0.2,0.1c0.1,0,0.2,0,0.3,0l0.4-0.3c0.1-0.1,0.3-0.1,0.4,0l0.5,0.2c0,0,0.1,0.1,0.2,0.1c0,0.1,0.1,0.1,0.1,0.2l0.1,0.5
		c0,0,0,0.1,0.1,0.2s0.1,0.1,0.2,0.1c0,0,0.1,0,0.3,0h0.3c0.1,0,0.1,0,0.2-0.1c0,0,0.1-0.1,0.1-0.2l0.1-0.5c0,0,0-0.1,0.1-0.2
		c0-0.1,0.1-0.1,0.2-0.1l0.5-0.2c0.1-0.1,0.3,0,0.4,0l0.4,0.3c0.1,0.1,0.3,0.1,0.4,0l0.3-0.3c0.1-0.1,0.1-0.3,0-0.4L18.9,16
		c-0.1-0.1-0.1-0.3,0-0.4l0.2-0.5c0-0.2,0.2-0.3,0.3-0.3l0.5-0.1c0,0,0.1,0,0.2-0.1s0.1-0.1,0.1-0.2c0,0,0-0.1,0-0.3V13.9z
		 M16.3,15.8c-0.9,0-1.7-0.8-1.7-1.7s0.8-1.7,1.7-1.7c0.9,0,1.7,0.8,1.7,1.7S17.2,15.8,16.3,15.8z"/>
</g>
<path class="st1" d="M11.2,14H5V4.7h10.8v4.6h0.8V3.9c0-0.3-0.2-0.5-0.5-0.5H4.7c-0.3,0-0.5,0.2-0.5,0.5v10.3c0,0.3,0.2,0.5,0.5,0.5
	h6.5V14z"/>
</svg>
