<?xml version="1.0" encoding="UTF-8"?>
<svg width="42px" height="42px" viewBox="0 0 42 42" version="1.1" xmlns="http://www.w3.org/2000/svg" xmlns:xlink="http://www.w3.org/1999/xlink">
    <!-- Generator: Sketch 44.1 (41455) - http://www.bohemiancoding.com/sketch -->
    <title>Group</title>
    <desc>Created with Sketch.</desc>
    <defs></defs>
    <g id="Page-1" stroke="none" stroke-width="1" fill="none" fill-rule="evenodd">
        <g id="rules" fill-rule="nonzero" fill="#212222">
            <g id="Group">
                <path d="M15.6,26 L14.2,26 L14.2,29.6 L14.6,29.6 L14.6,28.2 L15.6,28.2 C16.3,28.2 16.7,27.7 16.7,27.1 C16.7,26.5 16.3,26 15.6,26 Z M15.5,27.8 L14.6,27.8 L14.6,26.4 L15.5,26.4 C15.9,26.4 16.2,26.7 16.2,27.1 C16.2,27.5 16,27.8 15.5,27.8 Z M21.1,41.2 C9.8,41.2 0.6,32 0.6,20.7 C0.6,9.4 9.8,0.2 21.1,0.2 C32.4,0.2 41.6,9.4 41.6,20.7 C41.6,32 32.4,41.2 21.1,41.2 Z M21.1,1.2 C10.3,1.2 1.6,9.9 1.6,20.7 C1.6,31.5 10.3,40.2 21.1,40.2 C31.9,40.2 40.6,31.5 40.6,20.7 C40.6,9.9 31.9,1.2 21.1,1.2 Z" id="Shape"></path>
                <polygon id="Shape" points="19.1 28.7 17.9 26 17.3 26 17.3 29.6 17.7 29.6 17.7 26.6 19 29.6 19.1 29.6 20.4 26.6 20.4 29.6 20.8 29.6 20.8 26 20.2 26"></polygon>
                <polygon id="Shape" points="23.4 28.7 22.3 26 21.7 26 21.7 29.6 22.1 29.6 22.1 26.6 23.3 29.6 23.5 29.6 24.7 26.6 24.7 29.6 25.2 29.6 25.2 26 24.5 26"></polygon>
                <polygon id="Shape" points="26.5 29.2 26.5 26 26 26 26 29.6 28.1 29.6 28.1 29.2"></polygon>
                <rect id="Rectangle-path" x="15.6" y="22.1" width="9.5" height="1"></rect>
                <polygon id="Shape" points="24.1 18.4 23.4 17.7 20.9 20.2 20.9 11.8 19.9 11.8 19.9 20 17.6 17.7 16.9 18.4 20.5 22"></polygon>
            </g>
        </g>
    </g>
</svg>