<?xml version="1.0" encoding="UTF-8"?>
<svg width="40px" height="37px" viewBox="0 0 40 37" version="1.1" xmlns="http://www.w3.org/2000/svg" xmlns:xlink="http://www.w3.org/1999/xlink">
    <!-- Generator: Sketch 44.1 (41455) - http://www.bohemiancoding.com/sketch -->
    <title>rules</title>
    <desc>Created with Sketch.</desc>
    <defs></defs>
    <g id="Page-1" stroke="none" stroke-width="1" fill="none" fill-rule="evenodd">
        <g id="rules" transform="translate(-1.000000, -2.000000)" fill-rule="nonzero" fill="#222222">
            <path d="M1.5,9.6 L1.5,31.9 C1.5,32.8 2.1,33.6 3,33.9 L19.9,38.8 C20.7,39 21.5,39 22.3,38.8 L39.2,33.9 C40.1,33.6 40.7,32.8 40.7,31.9 L40.7,9.6 C40.7,8.7 40.1,7.9 39.2,7.6 L22.3,2.7 C21.5,2.5 20.7,2.5 19.9,2.7 L12.5,4.8 L12.5,14.2 L8.6,14.9 L8.6,5.9 L3,7.6 C2.1,7.9 1.5,8.7 1.5,9.6 Z M23.3,7.3 L36.5,11.1 L36.5,30.3 L23.3,34.1 L23.3,7.3 Z" id="Shape"></path>
        </g>
    </g>
</svg>