<?xml version="1.0" encoding="UTF-8"?>
<svg width="34px" height="32px" viewBox="0 0 34 32" version="1.1" xmlns="http://www.w3.org/2000/svg" xmlns:xlink="http://www.w3.org/1999/xlink">
    <!-- Generator: Sketch 44.1 (41455) - http://www.bohemiancoding.com/sketch -->
    <title>rules</title>
    <desc>Created with Sketch.</desc>
    <defs></defs>
    <g id="Page-1" stroke="none" stroke-width="1" fill="none" fill-rule="evenodd">
        <g id="rules" transform="translate(-4.000000, -5.000000)" fill-rule="nonzero" fill="#212221">
            <g id="Group" transform="translate(4.000000, 5.000000)">
                <path d="M30.4,6.6 C27.5,2.6 22.6,0 17.1,0 C9,0 2.2,5.8 1,13.3 L5.6,13.3 C6.7,8.2 11.4,4.4 17.1,4.4 C21.3,4.4 25,6.6 27.1,9.8 L23.5,13.3 L28.6,13.3 L33.2,13.3 L33.7,13.3 L33.7,3.4 L30.4,6.6 Z" id="Shape"></path>
                <path d="M17.1,27 C12.9,27 9.2,24.8 7.1,21.6 L10.7,18.1 L5.6,18.1 L1,18.1 L0.5,18.1 L0.5,28 L3.8,24.8 C6.7,28.8 11.6,31.4 17.1,31.4 C25.2,31.4 32,25.7 33.2,18.1 L28.6,18.1 C27.5,23.2 22.8,27 17.1,27 Z" id="Shape"></path>
            </g>
        </g>
    </g>
</svg>